<?xml version="1.0" standalone="no"?>
<!DOCTYPE svg PUBLIC "-//W3C//DTD SVG 1.1//EN" "http://www.w3.org/Graphics/SVG/1.1/DTD/svg11.dtd" >
<svg xmlns="http://www.w3.org/2000/svg" xmlns:xlink="http://www.w3.org/1999/xlink" version="1.1">
<metadata>
Created by FontForge 20190114 at Sun Feb 22 17:39:57 1931
 By Madiosn Scott-Clary,,,
http://members.aol.com/vroomfonde/ttf/ Copyright (c) 1997 Tom Murphy. Freeware, but not to be resold.  imightbetm@aol.com - Tom Murphy/339 Still Hill Rd/Hamden, CT 06518.1830
</metadata>
<defs>
<font id="Tom's-NewRoman" horiz-adv-x="364" >
  <font-face 
    font-family="Tom's New Roman"
    font-weight="400"
    font-stretch="normal"
    units-per-em="1000"
    panose-1="0 0 0 0 0 0 0 0 0 0"
    ascent="800"
    descent="-200"
    x-height="409"
    cap-height="628"
    bbox="-59 -228 1100 1056"
    underline-thickness="20"
    underline-position="-143"
    unicode-range="U+0015-2122"
  />
<missing-glyph horiz-adv-x="800" 
d="M50 0v800h700v-800h-700zM700 50v700h-600v-700h600z" />
    <glyph glyph-name=".notdef" horiz-adv-x="800" 
d="M50 0v800h700v-800h-700zM700 50v700h-600v-700h600z" />
    <glyph glyph-name=".null" horiz-adv-x="0" 
 />
    <glyph glyph-name="nonmarkingreturn" horiz-adv-x="500" 
 />
    <glyph glyph-name="space" unicode=" " horiz-adv-x="500" 
 />
    <glyph glyph-name="exclam" unicode="!" horiz-adv-x="239" 
d="M175 580q0 -45 -7 -93.5t-13 -94.5q-4 -46 -14 -129q-3 -28 -10 -77h-12q-5 35 -11 89t-13 113q-11 64 -14 92q-6 44 -6 100q0 112 55 112q28 0 36.5 -24.5t8.5 -87.5zM159 85q8 -13 8 -26q0 -22 -19 -35q-13 -8 -26 -8q-22 0 -35 19q-8 13 -8 26q0 22 19 35q13 8 26 8
q22 0 35 -19z" />
    <glyph glyph-name="quotedbl" unicode="&#x22;" horiz-adv-x="236" 
d="M210 628l-21 -135h-33l-24 138l6 99l72 -3v-99zM86 624l-21 -135h-33l-24 138l6 99l72 -3v-99z" />
    <glyph glyph-name="numbersign" unicode="#" horiz-adv-x="430" 
d="M414 405h-81l-24 -110h97l1 -36h-106l-9 -51l-36 -200h-36l45 251h-162l-7 -43l-36 -200h-36l44 243h-56l-1 36h63l14 73l6 37h-83v40h91q13 73 16 88.5t14 58.5l20 76l40 8l-44 -192l-5 -39h156q13 69 16.5 85.5t12.5 53.5l20 76l40 8l-44 -192l-4 -31h74v-40zM292 405
h-157l-24 -110h161l12 65z" />
    <glyph glyph-name="dollar" unicode="$" horiz-adv-x="440" 
d="M435 171q0 -63 -65.5 -122t-134.5 -59v-55h-40l2 56q-19 0 -37.5 4t-33.5 10t-41 24q-13 9 -18 10.5t-23.5 22t-20 25.5t-2.5 18t-1 39v18q0 16 1.5 30.5t4.5 28.5q1 -2 9.5 0.5t9.5 -6.5t2.5 -24t5 -29.5t5.5 -19.5l12 -26q12 -31 39 -53q13 -11 51 -25q12 -4 35 -12
v284l-20 10q-26 14 -61.5 37t-48.5 37q-19 20 -32 49.5t-13 62.5q0 22 8.5 52t19.5 48q8 14 21 27t30 25q42 32 96 41v46l40 5v-47h6q16 0 41.5 -7.5t55.5 -16.5q15 -2 36 -16q14 -9 14 -13v-54l1 -35l-2 -73h-15l-16 90q-3 12 -8.5 24t-11.5 22q-12 17 -43 26.5t-58 9.5
v-247l70 -34q40 -21 57.5 -35t36 -35.5t25 -40t9 -39.5t2.5 -58zM195 430v219q-34 -17 -63.5 -48t-29.5 -54q0 -36 27 -67q23 -27 66 -50zM343 195q-10 27 -45 50q-17 11 -33 22t-30 22v-267q27 0 54.5 16.5t43.5 44.5q10 18 15 33t5 32q0 19 -10 47z" />
    <glyph glyph-name="percent" unicode="%" horiz-adv-x="728" 
d="M358 548q0 -8 1 -17.5t1 -14.5q0 -66 -24 -112q-27 -52 -73 -52q-9 0 -14 1q-47 9 -71.5 55.5t-24.5 109.5q0 75 19 124q24 63 75 63q49 0 79 -49q24 -40 32 -108zM650 208q0 -8 1 -17.5t1 -14.5q0 -66 -24 -112q-27 -52 -73 -52q-9 0 -14 1q-47 9 -71.5 55.5
t-24.5 109.5q0 75 19 124q24 63 75 63q49 0 79 -49q24 -40 32 -108zM692 596l-588 -588h-52l588 588h52zM309 537q0 73 -5 96q-11 51 -48 51q-42 0 -51 -75q-4 -33 -4 -77v-32q0 -58 8 -83q12 -39 48 -39q32 0 44 28q9 22 9 71q0 14 -0.5 29t-0.5 31zM601 197q0 73 -5 96
q-11 51 -48 51q-42 0 -51 -75q-4 -33 -4 -77v-32q0 -58 8 -83q12 -39 48 -39q32 0 44 28q9 22 9 71q0 14 -0.5 29t-0.5 31z" />
    <glyph glyph-name="ampersand" unicode="&#x26;" horiz-adv-x="628" 
d="M621 99q-12 -30 -23 -45q-34 -45 -87 -45q-87 0 -139 45q-17 15 -35 45q-20 -20 -32 -31q-39 -35 -64 -44t-45 -13.5t-37 -4.5q-16 0 -32.5 4t-32.5 13q-78 43 -78 142q0 33 22 82q19 41 43 74q15 20 49 39q25 14 40 18q-4 11 -6 17q-7 20 -7 25q0 13 -11 42t-11 48
q0 46 29 80t76 34q68 0 100 -21q41 -27 41 -90q0 -40 -9 -59q-5 -12 -31 -39q-21 -23 -42.5 -34.5t-51.5 -14.5q4 -43 42 -99q31 -45 71 -83q48 49 63 70q31 43 31 83q0 31 -13 46q-18 20 -59 20v6h126h64l2 -11q-54 0 -73 -49l-24 -84q-13 -26 -45 -58l-54 -54l58 -60
q45 -39 86 -39q44 0 69 33q8 11 16 34q3 -7 4 -10q5 -10 10 -12zM335 505q0 25 -15 52q-22 40 -61 40q-30 0 -43.5 -9.5t-21.5 -39.5q-4 -16 -4 -29q0 -11 2 -18q8 -21 13 -38.5t17 -43.5q4 -10 13 -28q14 5 21 8q23 9 33 17q22 16 34 37t12 52zM292 127q0 9 -21 34
q-9 10 -17 20q-11 14 -33.5 50t-28.5 52q-11 29 -16 49q-1 7 -3 16q-22 -12 -32 -22q-33 -31 -33 -70q0 -79 14 -117q23 -61 86 -61q17 0 50.5 17t33.5 32z" />
    <glyph glyph-name="quotesingle" unicode="'" horiz-adv-x="96" 
d="M86 624l-21 -135h-33l-24 138l6 99l72 -3v-99z" />
    <glyph glyph-name="parenleft" unicode="(" horiz-adv-x="280" 
d="M232 -132q-29 19 -44 30q-48 34 -64 54q-44 54 -72 139t-28 165q0 139 52 244q38 77 98 130q43 38 54 38v-40q-60 -40 -90 -92q-24 -41 -42 -120q-8 -35 -10 -52.5t-2 -49.5v-46q0 -123 38 -218q27 -69 71 -116q31 -34 39 -34v-16v-16z" />
    <glyph glyph-name="parenright" unicode=")" horiz-adv-x="260" 
d="M232 256q0 -82 -27.5 -165t-72.5 -139q-16 -19 -63 -53q-15 -11 -45 -31q-1 5 -1 13t1 19q7 0 38 34q44 48 71 115q39 97 39 219v46q0 38 -1 50.5t-11 51.5q-18 79 -42 120q-30 52 -90 92v40q10 0 52 -37q60 -53 98 -129q54 -109 54 -246z" />
    <glyph glyph-name="asterisk" unicode="*" horiz-adv-x="498" 
d="M452 567q6 -9 6 -18q0 -14 -8 -26t-19 -19q-26 -15 -71.5 -16t-63.5 -17q19 -19 70.5 -28.5t62.5 -16.5q23 -14 23 -35q0 -10 -4 -18q-11 -22 -34 -22q-13 0 -27 7.5t-64 59.5q-20 21 -42 28q-3 -9 -3 -20q0 -19 7 -40q22 -66 22 -68q3 -19 -16 -29q-13 -7 -24 -7
q-20 0 -27 10q-2 3 -5.5 19.5t-3.5 21.5q0 18 11 52t11 51q0 8 -1 12q-18 -9 -40 -34q-55 -65 -57 -66q-9 -6 -20 -6q-12 0 -23 9q-11 11 -11 23q0 6 5.5 21.5t37.5 29.5q94 42 96 44q-19 18 -63.5 23t-67.5 28q-9 9 -9 33q0 17 9 25.5t25 8.5q11 0 19 -3t13 -7t25 -30
q30 -38 63 -57q1 6 1 16q0 21 -17 68q-9 25 -9 42q0 24 7 37t29 13q24 0 31 -11.5t7 -32.5q0 -15 -7 -36q-18 -55 -18 -79q0 -10 1 -15q33 10 56 31.5t45 42.5q22 17 42 17q18 0 30 -16z" />
    <glyph glyph-name="plus" unicode="+" horiz-adv-x="540" 
d="M512 332h-220l1 -73v-25v-20v-17v-14v-12q0 -19 -0.5 -38.5t-0.5 -39.5v-13h-36l-2 252h-54h-176l4 36h88h138l-2 236h40v-144v-92l103 -2l117 2v-36z" />
    <glyph glyph-name="comma" unicode="," horiz-adv-x="198" 
d="M179 4q-4 -24 -4 -25q-5 -19 -21.5 -35.5t-58.5 -21.5q-7 0 -19 -2v10q14 1 22 3q25 7 36 26q17 26 17 50q0 8 -3 17l-3 11l-7 -3q-8 -5 -25 -5q-22 0 -37 11q-25 18 -25 44q0 16 8 30t22 21t29 7q21 0 36.5 -9.5t24 -31.5t8.5 -38q0 -6 -2 -10q-3 -4 0.5 -21.5
t1.5 -27.5z" />
    <glyph glyph-name="hyphen" unicode="-" horiz-adv-x="312" 
d="M271 237h-38q-7 -1 -13 -1h-111h-60v67h56h68h14h32t36 1h16v-67z" />
    <glyph glyph-name="period" unicode="." horiz-adv-x="210" 
d="M150 25q-14 -21 -41 -21q-16 0 -27 8q-21 14 -21 41q0 15 9 27q14 21 41 21q15 0 27 -9q21 -15 21 -40q0 -15 -9 -27z" />
    <glyph glyph-name="slash" unicode="/" horiz-adv-x="208" 
d="M192 676l-44 -192q-7 -57 -24 -134q-24 -110 -28 -134l-36 -200h-36l64 352q9 51 13 76q14 81 31 148l20 76z" />
    <glyph glyph-name="zero" unicode="0" horiz-adv-x="425" 
d="M400 340q3 -27 3 -56q0 -118 -44 -204q-49 -96 -132 -96h-12q-9 2 -13 2q-85 15 -132 105q-42 81 -42 194q0 140 34 228q44 113 137 113q88 0 142 -89q45 -75 59 -197zM312 320q0 125 -11 175q-20 93 -86 93q-77 0 -93 -136q-6 -50 -6 -140v-63q0 -106 14 -149
q22 -69 88 -69q59 0 80 53q15 38 15 133v12q0 19 -0.5 38.5t-0.5 40.5v12z" />
    <glyph glyph-name="one" unicode="1" horiz-adv-x="306" 
d="M255 27l-125 -3h-65v7q37 0 50 24q9 17 9 57q0 73 -2 124q-7 178 -7 202q0 -2 0.5 12.5t0.5 23.5q0 16 -1 22v14q0 14 -2.5 20t-10.5 6q-10 0 -29 -8q-6 -2 -18 -9l-5 10q44 29 65 43q66 44 67 43t0 -40t-1 -40l4 -423q0 -41 9 -56q15 -24 61 -24v-5z" />
    <glyph glyph-name="two" unicode="2" horiz-adv-x="442" 
d="M418 132q-21 -35 -31 -53q-33 -55 -40 -62l-159 -1l-150 3q-4 6 63 66q42 37 54 52q50 52 100 105q39 63 39 136q0 70 -28.5 108.5t-76.5 38.5q-77 0 -115 -46q-12 -15 -23 -47l-25 6q4 22 8 35q12 39 29.5 60.5t58.5 42.5q50 26 92 26q25 0 45 -10q49 -24 77 -60
q32 -41 32 -94q0 -50 -17.5 -98.5t-46.5 -91.5q-44 -67 -113 -125q-23 -19 -61 -45l185 4q30 0 81 34q8 5 22 16z" />
    <glyph glyph-name="three" unicode="3" horiz-adv-x="416" 
d="M352 528q0 -61 -54 -119q-18 -19 -54 -46q34 -30 50 -47q51 -53 51 -80q0 -143 -63 -202q-51 -48 -150 -48h-14q-26 0 -37.5 2.5t-33.5 12.5t-22 37q0 12 8.5 23.5t24.5 11.5q23 0 42 -19q25 -24 27 -25q17 -11 48 -11q24 0 58 30q44 39 44 96q0 102 -88 154
q-29 17 -89 32q54 22 80 39q81 53 81 118q0 44 -12 61q-20 29 -82 29q-23 0 -71 -32q-16 -10 -44 -32l-5 7q18 38 35 56q53 56 138 56q47 0 87 -28q45 -32 45 -76z" />
    <glyph glyph-name="four" unicode="4" horiz-adv-x="416" 
d="M404 164h-64v-64v-88l-32 2q-11 0 -20.5 -3.5t-17.5 -4.5q1 13 1 24q0 37 -1 71t-2 63l-164 -2h-98q1 8 1.5 21t1.5 22q0 7 -1 15q19 23 88 135q42 68 117 194q29 49 59 99l60 4l-2 -92l4 -324h66q-1 -9 0.5 -29t3.5 -43zM272 572l-212 -340l208 4z" />
    <glyph glyph-name="five" unicode="5" horiz-adv-x="543" 
d="M438 214q0 -90 -63 -148t-171 -58q-69 0 -103 7q-65 13 -65 53q0 12 17.5 32.5t34.5 15.5q22 -7 45 -44q20 -32 51 -32q5 0 20 -1t21 -1q54 0 85 21q46 31 46 105q0 66 -51 125q-75 87 -229 87q6 14 20 65q7 24 12 39q7 0 32 76t28 76h264l-32 -84h-224q-9 -7 -25 -56
l-15 -48q25 0 78 -13q91 -22 146 -64q78 -59 78 -153z" />
    <glyph glyph-name="six" unicode="6" horiz-adv-x="405" 
d="M352 622q-35 -12 -57 -23q-67 -33 -110 -81.5t-70 -126.5q-22 -64 -19 -74q24 20 40 29q49 29 93 29q30 0 57 -14t50 -46q11 -15 19.5 -50.5t8.5 -77.5q0 -43 -11 -77.5t-37 -57.5q-57 -52 -129 -52q-55 0 -101 35t-56 65t-10 120q0 68 12 129t36 127q10 27 57.5 73
t81.5 63t93 26q19 3 52 6v-22zM276 260q-10 22 -36.5 36t-58.5 14q-22 0 -40 -7q-30 -13 -45.5 -41.5t-15.5 -64.5q0 -30 9 -59q16 -49 49.5 -77t82.5 -28q39 0 59 36q17 31 17 82q0 62 -21 109z" />
    <glyph glyph-name="seven" unicode="7" horiz-adv-x="510" 
d="M468 630q2 -4 -35 -75q-23 -44 -28 -57q-13 -34 -20 -48q-11 -20 -16 -30l-48 -101l-74 -151l-73 -143h-44l50 102l40 80l54 112q13 29 30 64q14 28 27.5 57.5t28 60.5t32.5 63q-12 1 -20 1q-60 3 -92 3q-19 0 -55 -2t-49 -2q-41 0 -80 -22q-31 -25 -61 -49q-5 -2 -7 3
q-1 2 33 68.5t37 68.5t27 2q15 0 30 -0.5t31 -0.5l118 2l113 -4h36.5t14.5 -2z" />
    <glyph glyph-name="eight" unicode="8" horiz-adv-x="446" 
d="M413 137q0 -55 -53 -95q-47 -35 -98 -35q-127 0 -183 40q-48 34 -48 97q0 58 63 127q21 22 63 57q-38 35 -57 57q-58 68 -58 119q0 61 56 104.5t119 43.5q81 0 126 -22q63 -31 63 -101q0 -63 -66 -124q-22 -20 -67 -49q30 -26 45 -40q45 -41 59 -60q24 -33 30 -52.5
t6 -66.5zM348 529q0 35 -24 63q-27 31 -69 31q-48 0 -83 -24q-47 -33 -47 -99q3 -28 57 -81q18 -17 55 -48q37 23 55 40q56 54 56 118zM319 162q0 47 -64 102q-21 18 -65 46q-26 -35 -39 -54q-40 -59 -40 -80q0 -75 32 -104q24 -22 76 -22q54 0 77 28t23 84z" />
    <glyph glyph-name="nine" unicode="9" horiz-adv-x="405" 
d="M370 428q0 -68 -12 -129t-36 -127q-10 -27 -57.5 -73t-81.5 -63t-93 -26q-19 -3 -52 -6v22q35 12 57 23q67 33 110 81.5t70 126.5q22 64 19 74q-24 -20 -40 -29q-49 -29 -93 -29q-30 0 -57 14t-50 46q-11 15 -19.5 50.5t-8.5 77.5q0 43 11 77.5t37 57.5q57 52 129 52
q55 0 101 -35t56 -65t10 -120zM301 510q-16 49 -49.5 77t-82.5 28q-39 0 -57.5 -33.5t-18.5 -84.5q0 -62 21 -109q10 -22 36.5 -36t58.5 -14q22 0 40 7q30 13 45.5 41.5t15.5 64.5q0 30 -9 59z" />
    <glyph glyph-name="colon" unicode=":" horiz-adv-x="210" 
d="M155 405q-14 -21 -41 -21q-16 0 -27 8q-21 14 -21 41q0 15 9 27q14 21 41 21q15 0 27 -9q21 -15 21 -40q0 -15 -9 -27zM150 25q-14 -21 -41 -21q-16 0 -27 8q-21 14 -21 41q0 15 9 27q14 21 41 21q15 0 27 -9q21 -15 21 -40q0 -15 -9 -27z" />
    <glyph glyph-name="semicolon" unicode=";" horiz-adv-x="198" 
d="M153 315q-18 -21 -46 -21q-23 0 -41 15q-21 18 -21 45q0 23 16.5 42.5t43.5 19.5q23 0 41 -15q22 -19 22 -47q0 -21 -15 -39zM179 4q-4 -24 -4 -25q-5 -19 -21.5 -35.5t-58.5 -21.5q-7 0 -19 -2v10q14 1 22 3q25 7 36 26q17 26 17 50q0 8 -3 17l-3 11l-7 -3q-8 -5 -25 -5
q-22 0 -37 11q-25 18 -25 44q0 16 8 30t22 21t29 7q21 0 36.5 -9.5t24 -31.5t8.5 -38q0 -6 -2 -10q-3 -4 0.5 -21.5t1.5 -27.5z" />
    <glyph glyph-name="less" unicode="&#x3c;" horiz-adv-x="340" 
d="M280 572l-200 -240l192 -256v-64l-252 320l260 316v-76z" />
    <glyph glyph-name="equal" unicode="=" horiz-adv-x="440" 
d="M410 405h-375v45h375v-45zM410 250h-375v45h375v-45z" />
    <glyph glyph-name="greater" unicode="&#x3e;" horiz-adv-x="340" 
d="M308 344l-252 -320v64l192 256l-200 240v76z" />
    <glyph glyph-name="question" unicode="?" horiz-adv-x="437" 
d="M414 491q0 -41 -12.5 -80.5t-35.5 -65.5l-76 -88q-29 -28 -49 -60q-26 -41 -26 -73h-28q0 11 0.5 25.5t4.5 24t79 118.5q47 68 47 181q0 75 -16 108q-21 43 -79 43q-50 0 -96 -30q-53 -34 -53 -82q0 -14 21 -24q52 -25 59 -64q2 -10 -11 -27.5t-29 -24.5q-9 -4 -24 -4
h-16q-21 0 -42.5 53.5t-21.5 78.5q0 63 51 106q43 36 117 54q18 4 30.5 6t26.5 2q22 0 47 -7q62 -18 97 -60.5t35 -109.5zM239 4q-14 -18 -37 -18q-16 0 -27 10q-18 14 -18 37q0 16 10 27q14 18 37 18q16 0 27 -10q18 -14 18 -37q0 -16 -10 -27z" />
    <glyph glyph-name="at" unicode="@" horiz-adv-x="915" 
d="M887 56q-17 -25 -34 -49q-40 -54 -78 -95q-52 -56 -87 -67q-61 -20 -166.5 -40t-143.5 -20q-142 0 -230 94q-66 71 -98 196q-22 87 -22 165q0 74 16 138q13 51 41.5 112t59 123.5t120 107t173.5 44.5q78 0 88 -4l72 -36q72 -29 130 -113q54 -78 85 -187q10 -37 15 -67.5
t5 -67.5q0 -103 -49 -189q-53 -93 -127 -93l-9 -2q-5 0 -17 -1t-19 -1t-21 2q-55 9 -90 37q-38 31 -47 81q-18 -25 -52 -56q-41 -37 -60.5 -40.5t-34.5 -3.5q-27 0 -46 13t-34.5 49t-22 63.5t-6.5 55.5q0 20 4 53q8 61 8 66q5 48 46 109q46 70 94 79q21 4 27 4.5t22 0.5
q65 0 96 -36q10 -12 19 -37l47 79l15 -3q33 -8 49 -16q-50 -147 -62 -187q-47 -155 -47 -215q0 -13 1 -18q5 -29 31 -41q20 -9 50 -9q8 0 16 0.5t14 1.5q69 0 115 89q40 77 40 163q0 64 -41 164q-47 115 -120 191q-88 92 -189 92q-162 0 -264 -178q-86 -150 -86 -322
q0 -131 39 -220q44 -101 146 -165q28 -18 63 -26.5t77 -8.5q52 0 111 13.5t111.5 35t114.5 76.5q44 39 91 94q18 23 37 46zM481 286l16 98q0 20 -5.5 36t-19.5 32q-20 22 -31 30q-18 13 -37 13q-6 0 -10 -1q-62 -11 -92 -88q-24 -61 -24 -155q0 -54 9.5 -110t57.5 -56
q16 0 39 6q37 10 63 69q22 50 34 126z" />
    <glyph glyph-name="A" unicode="A" horiz-adv-x="610" 
d="M585 5h-190v11q10 2 15 4q15 8 15 30l-23 88q-11 40 -32 100q-3 10 -10 27q-23 0 -46 -0.5t-56 -0.5l-43 1q-6 -13 -9 -20q-11 -25 -14 -35q-8 -31 -15 -51q-10 -28 -20.5 -49.5t-19.5 -42.5q-3 -7 -7 -17q0 -21 17 -30q5 -2 18 -4v-11h-140v11q15 -1 23 0q26 6 37 34
l23 61q22 63 45 126q6 18 21 51q32 75 36 84l33 93l24 96q14 41 26 63q2 4 7 11h46l20 -50l28 -72q10 -27 17 -48q3 -8 16 -61q2 -10 11 -38l45 -151l27 -89l20 -76q3 -21 29 -30q8 -2 26 -4v-11zM355 295l-22 83l-33 112q-7 -21 -10 -33q-12 -37 -20 -61t-25 -65
q-5 -13 -15 -36q20 0 40.5 -0.5t50.5 -0.5z" />
    <glyph glyph-name="B" unicode="B" horiz-adv-x="600" 
d="M551 163q0 -45 -28 -86q-6 -9 -15 -17q-3 -2 -19 -15q-10 -7 -21 -14.5t-23 -11.5q-47 -19 -149 -19h-281v16h23q35 0 53 24q10 17 10 65l1 111q0 27 3 89t3 91q0 37 -2 57.5t-5 36.5q0 57 -13 71q-19 19 -50 19h-29v16q36 2 80 3t85 1l99 -4q33 0 62.5 -3t53.5 -8.5
t34 -8.5t24 -12q12 -6 23 -16q8 -7 19 -19q35 -41 35 -93q0 -45 -27 -79.5t-81 -52.5q64 -14 92 -42q15 -15 22 -24q11 -14 15 -25t5 -24t1 -26zM431 440q0 16 -5 34q-9 31 -37 55q-41 37 -124 37q-44 0 -80 -9l7 -56q0 -29 -1 -61t-2 -62l-4 -50l37 -5l46 -2q16 0 31.5 3
t29.5 5.5t21.5 3t13.5 3.5q33 13 50 41t17 63zM449 156q0 35 -19 66q-17 31 -61 51q-4 2 -14.5 3t-15.5 3q-33 9 -35 9q-20 4 -41 4l-46 -1q-21 0 -29.5 -1t-17.5 -3q2 -7 2 -11q5 -29 5 -57q0 -21 -2 -39q-7 -64 -7 -66q0 -33 0.5 -42.5t2.5 -17.5q22 -5 58 -11t57 -6
q43 0 72 6.5t50 23.5q41 36 41 89z" />
    <glyph glyph-name="C" unicode="C" horiz-adv-x="590" 
d="M563 148q-42 -64 -98 -97t-132 -33q-17 0 -32 2.5t-63.5 15.5t-93.5 43t-74 76q-42 68 -42 151q0 63 8.5 108.5t33.5 80.5q10 14 31.5 28t33.5 22q21 13 44 27.5t47 23t45 13t47 4.5q17 0 37.5 -0.5t40.5 -3.5q5 0 35.5 -13t39.5 -13h14q2 1 5 10q4 7 10 23q0 2 2 6h15
l10 -140h-13q-12 18 -21 28q-58 63 -142 63q-22 0 -39.5 -2.5t-40.5 -12.5q-13 -6 -43 -24.5t-52.5 -44t-35.5 -59.5q-8 -22 -10.5 -52t-2.5 -68q0 -42 7.5 -81t25.5 -69q27 -45 71.5 -73.5t97.5 -28.5q8 -1 14 -1h13q34 0 55 6.5t46 20.5t51 35q18 14 46 40z" />
    <glyph glyph-name="D" unicode="D" horiz-adv-x="648" 
d="M621 299q0 -29 -7 -51t-24 -53q-25 -45 -53 -73q-34 -34 -82 -57q-82 -38 -87 -40q-32 -11 -61 -11h-192h-111l2 18q17 0 37 1t32.5 9t23.5 15q8 7 16 24q4 33 5 56q5 69 5 133q0 33 -7.5 96t-7.5 84l5 121q-28 21 -56 31q-10 3 -41 8q-5 0 -14 2v17h111q20 -2 44 -3
t46 -1q25 0 52 1t50 3q56 0 99.5 -15.5t88.5 -48.5q32 -24 57.5 -59t42.5 -76q26 -63 26 -131zM534 299q0 27 -9.5 58t-25 64t-31.5 67q-20 36 -48 57q-21 16 -40 26.5t-42.5 18t-47.5 7.5q-14 0 -43.5 -3.5t-40.5 -3.5l-6 -70q0 -82 -1 -138q-4 -222 -4 -227q0 -39 5 -71
q1 -11 6 -27q27 0 51.5 3.5t57.5 14.5q57 19 91 38q42 23 69.5 58t40.5 60q18 35 18 68z" />
    <glyph glyph-name="E" unicode="E" horiz-adv-x="565" 
d="M551 166l-42 -152q-6 2 -10 3q-30 8 -69 8q-20 0 -54 -3q-80 -7 -101 -7q-14 0 -46.5 2.5t-33.5 2.5l-94 -6h-80v18q8 0 25 1t32 13q8 6 16 23q2 5 7 15q-1 10 -1 18q-5 63 -5 118q0 15 2.5 53t2.5 42q0 37 -2.5 88t-2.5 57l6 125q-4 9 -6 13q-8 14 -18 21.5t-34 10.5
q-8 0 -22 1v20h80q22 1 36 2q100 7 133 7q59 0 140 -4q29 -1 77 -5l6 -112h-6q-5 18 -9 27q-12 28 -28 39q-10 6 -28 11q-6 1 -17 3l-65 1l-137 -1q-4 -34 -6 -54q-7 -69 -7 -100q0 -23 6 -56q2 -11 7 -31q11 2 18 2q44 5 69 5q19 0 36 -2t32 -5q11 -2 17.5 0.5t14.5 15.5
q3 4 11 42q1 6 4 17h12v-75v-48v-79h-12q-2 19 -3 29q-5 30 -12 38t-16.5 9.5t-15.5 2.5h-155q2 -29 4.5 -69t2.5 -61q0 -31 -2 -59t-5 -53q2 -5 5.5 -9.5t8.5 -9.5q8 -12 28 -12l100 -2l72 2q15 1 29.5 2t23.5 4t41 53q10 16 30 50h10z" />
    <glyph glyph-name="F" unicode="F" horiz-adv-x="511" 
d="M493 539h-6q-5 18 -9 27q-12 28 -28 39q-10 6 -28 11q-6 1 -17 3l-110 1l-92 -1l2 -54v-90v-60l-2 -43h24q89 3 93 3l38 -3q11 -2 17.5 0.5t14.5 15.5q3 4 11 42q1 6 4 17h12v-75v-48v-79h-12q-2 19 -3 29q-5 30 -12 38t-16.5 9.5t-23 3t-38 3.5t-47.5 2q-24 0 -48 -3
q-5 0 -14 -3l2 -64q0 -8 -2.5 -24t-2.5 -21v-75l3 -52q2 -5 5.5 -9.5t7 -8.5t15 -11.5t24 -13t40.5 -11.5q4 -1 13 -2v-18q-34 4 -56 5t-54 1h-18q-30 0 -61 -3q-6 0 -18 -3h-80v18q8 0 25 1t32 13q8 6 16 23q2 5 7 15l-1 111q0 22 -2.5 63.5t-2.5 51.5q0 36 2.5 91.5
t2.5 58.5v73.5t1 51.5q-4 9 -6 13q-8 14 -18 21.5t-34 10.5q-8 0 -22 1v20h80q17 5 29 7q36 7 70 7q23 0 61.5 -2.5t43.5 -2.5q49 0 117 -4q24 -1 65 -5z" />
    <glyph glyph-name="G" unicode="G" horiz-adv-x="590" 
d="M592 330q-23 -3 -36.5 -6.5t-13.5 -21.5l6 -210q-51 -49 -96 -63q-36 -11 -119 -11q-17 0 -32 2.5t-63.5 15.5t-93.5 43t-74 76q-42 68 -42 151q0 63 8.5 108.5t33.5 80.5q12 16 30 35t36 30.5t41.5 19t48 16t45.5 13t47 4.5q17 0 37.5 -0.5t40.5 -3.5q5 0 35.5 -13
t39.5 -13h14q2 1 5 10q4 7 10 23q0 2 2 6h15q3 -9 4 -15q9 -37 9 -57q0 -35 -0.5 -46.5t-2.5 -21.5h-13q-12 18 -21 28q-58 63 -142 63q-22 0 -39.5 -2.5t-40.5 -12.5q-13 -6 -41 -23q-56 -35 -80 -100q-8 -22 -10.5 -52t-2.5 -68q0 -42 7.5 -81t25.5 -69q25 -42 61 -59.5
t93 -17.5q8 -1 14 -1h13q34 0 55 6.5t49 21.5q4 2 5 35.5t1 85.5v14v11v26.5t-2 24.5t-19 18q-24 2 -36 4l2 12l86 2l100 -2v-16z" />
    <glyph glyph-name="H" unicode="H" horiz-adv-x="518" 
d="M508 643l-1 -19q-29 -1 -47.5 -2.5t-20.5 -16.5l-1 -90q0 -19 -0.5 -39.5t-0.5 -42.5v-11v-67t1 -65l-1 -130l2 -99q0 -19 9.5 -26t25.5 -7q8 0 11.5 0.5t7.5 2.5l2 -20l-96 -3l-69 2l-3 21q9 -3 13 -3q15 0 21.5 11.5t6.5 29.5v96q0 15 2.5 39t2.5 31q0 33 -1.5 48.5
t-4.5 24.5h-158h-58l-2 -106l2 -133q0 -28 33 -38q11 -3 33 -5v-20q-31 0 -79 -1t-79 -1l-56 1l-2 18q2 0 8 -1t11 -1q30 0 43 13t13 35l2 156v160l1 101v105q0 22 -21 29q-9 3 -21 3h-8t-6 -1v18h124h66v-18q-10 1 -16 1q-19 0 -32.5 -6.5t-13.5 -25.5l2 -111
q0 -44 -1 -78.5t-4 -66.5l67 1h84l65 -1l5 79q0 17 1 43t3 58q0 20 -5 61q0 6 -2 18q0 17 -25 24q-10 3 -33 7v17h35z" />
    <glyph glyph-name="I" unicode="I" horiz-adv-x="300" 
d="M282 34l-1 -18q-4 0 -19 1t-28 1l-49 -3l-84 1l-21 -1l-65 1v17l41 7q22 3 25 5q15 10 15 41q0 11 -0.5 22t-0.5 25v13l2 105l-2 102l2 44q0 15 -0.5 29.5t-0.5 28.5l-1 85l-6 26q-6 21 -16 28t-30.5 10t-28.5 6l2 16l44 -1l65 3l77 -1l77 -1l2 -16l-67 -15l-19 -13
q-6 -9 -9 -15q-9 -18 -9 -30v-47l2 -72l-4 -42q0 -9 1 -19t1 -18l-1 -69l1 -40l3 -139q6 -19 14 -29q3 -4 14 -11.5t26.5 -12t35.5 -4.5h12z" />
    <glyph glyph-name="J" unicode="J" horiz-adv-x="440" 
d="M418 610h-14.5t-19.5 -2.5t-19 -5t-14 -7.5t-13 -14l-7 -10.5t-8 -13.5q-9 -18 -9 -30v-47l2 -72l-4 -42l-1 -34l-7 -94q0 -40 -4 -72t-9 -45.5t-13.5 -24t-20.5 -20.5q-5 -5 -17 -12.5t-19 -13.5t-13 -9q-17 -10 -32 -13.5t-30 -3.5h-15q-11 2 -18 2.5t-22.5 3
t-27.5 5.5q-35 10 -40.5 27t-7.5 25t-2 19q0 23 17.5 39t44.5 13q21 0 38 -20l14 -34q9 -18 17 -28.5t15 -7.5q16 7 23.5 13.5t12.5 20.5q12 34 12 74l3 83l6 76v16l1 11l2 40q0 15 -0.5 29.5t-0.5 28.5v50l-1 35l-6 26q-6 21 -15 27.5t-43 11t-41 6.5l2 16l33 1l35 -3l65 3
q17 0 53 -2.5t39 -2.5l77 -1z" />
    <glyph glyph-name="K" unicode="K" horiz-adv-x="592" 
d="M569 608q-14 -1 -23 -2q-26 -5 -45 -17q-8 -5 -31 -28q-16 -14 -23 -21l-59 -64l-52 -53l-18 -18q-12 -12 -38 -37.5t-40 -41.5q5 -7 8 -12q12 -17 22 -30q3 -4 19 -21q10 -11 21 -25l46 -58l34 -46q4 -7 6 -11q9 -15 17.5 -25.5t17.5 -21.5q4 -4 15 -14q25 -20 43.5 -26
t57.5 -6l-1 -20q-5 -1 -19 1t-18 2q-17 -1 -27 -1q-4 0 -20 2l-157 1l1 17q21 4 27.5 7.5t8.5 5.5t6 11q2 4 -1 14t-5 15.5t-4 11.5q-5 14 -8.5 19.5t-11.5 13.5q-15 17 -20.5 25t-13.5 17l-16 18l-54 68q-11 14 -17 21.5t-11 16.5l-1 -71q-1 -4 -1 -12q0 -6 2 -19t2 -22
l-2 -42v-15q0 -18 1.5 -26t10.5 -19q2 -3 7 -12t12 -14t16 -7.5t22 -4.5l1 -13l-214 1l1 17q5 2 12 2h11q18 0 23 3q18 7 22.5 15t8 20t4.5 17q10 32 10 66l1 63l-1 107l-2 90v106l2 45v19q0 20 -3.5 32t-14.5 20q-13 7 -17 9q-8 5 -30 5q-13 2 -20 4v15h26l60 -2l38 2l42 2
h31.5t16.5 1l1 -18q-4 0 -10 -0.5t-15 -6.5q-16 -10 -25 -29q-4 -8 -5 -20.5t-1 -29.5l2 -61v-45l-4 -102l12 -10q5 6 8 10q23 27 50 51l75 69q43 39 59 55q26 26 26 34q2 10 2 14q0 11 -18 17v14l57 1h92v-13z" />
    <glyph glyph-name="L" unicode="L" horiz-adv-x="575" 
d="M540 5l-7 -1q-1 10 -16.5 13t-24.5 3h-11l-26 -1l-58 -2l-86 -2l-46 -1h-14h-12h-31.5t-22.5 1l-84 1l-21 -1l-65 1v17l41 7q22 3 25 5q15 10 15 41q0 11 -0.5 22t-0.5 25v13l2 105l-2 102l2 44q0 15 -0.5 29.5t-0.5 28.5l-1 85l-6 26q-6 21 -16 28t-30.5 10t-28.5 6
l2 16l44 -1l65 3l77 -1l77 -1l2 -16l-67 -15l-19 -13q-6 -9 -9 -15q-9 -18 -9 -30v-47l2 -72l-4 -42q0 -9 1 -19t1 -18l-1 -69l1 -40l3 -113q7 -22 13.5 -32t16.5 -17q4 -3 16 -6.5t31 -3.5q16 -3 28.5 -4t35.5 -1h38l56 2l58 1q30 0 43 8t13 17l10 1l1 -23v-15l-2 -18
t-0.5 -13.5t2.5 -7.5z" />
    <glyph glyph-name="M" unicode="M" horiz-adv-x="872" 
d="M822 645q-17 0 -26.5 -3t-27.5 -17q-8 -5 -14 -14q-9 -14 -16 -24l-10 -32q0 -2 1 -11.5t1 -20.5v-62q0 -17 -1 -60t-1 -67q0 -12 -2 -35.5t-2 -29.5q0 -20 2 -51.5t2 -41.5v-75q2 -42 12 -55t20 -17t30 -7v-17h-250v21q3 -1 19 -1q21 0 35 2.5t22.5 11t8.5 33.5
q0 10 -0.5 22t-0.5 26q4 35 4 78v79q0 16 -2 46.5t-2 34.5q0 22 2 64t2 57q0 40 -2 54q-5 22 -8 40q-13 -54 -36 -114q-19 -49 -38 -97q-3 -9 -9.5 -19.5t-10.5 -21.5l-39 -106q-6 -16 -37 -74q-18 -33 -24 -49l-22 -54h-18q-12 38 -22.5 64t-20 51t-23.5 48t-22 44l-36 93
q-6 15 -34 77q-15 32 -22 52l-36 102q0 -5 -2 -37t-2 -49t2 -74t2 -63q0 -19 -2 -60.5t-2 -45.5q0 -39 3 -88t3 -77q0 -14 4 -23t16 -18q6 -4 14 -6t16 -2h11v-18l-218 1l2 19h15q11 0 18 5t13.5 12.5t10.5 18t6 48.5t2 54v77l2 115l6 165q0 84 -8 103t-20.5 27t-35.5 12
l-1 13q19 0 38 -0.5t38 -0.5q16 0 41 -1t36 -1l57 -3q5 -20 7 -28.5t9 -26.5l27 -82q4 -12 20 -70q5 -19 12 -38l32 -85l36 -89q12 -29 16 -37l18 -36q15 24 29.5 49t24.5 56q7 21 18.5 53.5t30.5 89.5t39 119q20 53 54 118q12 2 31 4t31 2t33 -1t34 -1l87 -4v-20z" />
    <glyph glyph-name="N" unicode="N" horiz-adv-x="600" 
d="M580 672q-22 -3 -30.5 -6.5t-19.5 -17.5q-7 -10 -9.5 -32.5t-2.5 -60.5v-37l-2 -93l2 -65l1 -63l1 -64v-62q0 -12 -0.5 -19t-1.5 -13l-1 -53v-60h-27h-39l-59 88q-19 30 -27 44q-12 20 -13 22l-32 58q-2 6 -10 17t-14 23q-10 19 -18 35t-22.5 42t-30 59t-29.5 68
q-9 22 -36 66q-8 14 -24 38l-1 -103l-2 -137l-2 -103l1 -70l3 -98q0 -14 4 -23t16 -18q6 -4 14 -6t16 -2h11v-18l-183 1l2 19h15q11 0 18 5t13.5 12.5t10.5 18t6 48.5t2 54v76l2 116l2 167v18v15v13q0 18 -0.5 34.5t-3.5 20.5q-8 19 -20.5 27t-35.5 12l-1 13l76 -1
q16 0 41 -1t36 -1l47 -4q7 -15 14.5 -29t12.5 -28t19 -40l20 -36l52 -98l38 -78q9 -20 21 -42q4 -7 11 -19l25 -43l11 -1q1 4 1 31v40v48v66v29t1 27q0 8 -0.5 22.5t-0.5 34.5v17q0 11 0.5 23.5t1.5 26.5q0 19 -8 27.5t-25 11.5t-34 3q-15 0 -18 -1v21l215 5v-17z" />
    <glyph glyph-name="O" unicode="O" horiz-adv-x="695" 
d="M657 327q0 -63 -31 -123q-26 -50 -76 -99q-44 -43 -99.5 -66.5t-120.5 -23.5q-46 0 -85.5 6.5t-69.5 23.5q-37 21 -69 61q-26 32 -51 79q-38 71 -38 158q0 41 13 81t35 81q27 51 56 86q35 41 79 64q31 16 65.5 25.5t69.5 9.5q53 0 100 -13.5t85.5 -42t68.5 -72.5
q26 -38 46 -92q12 -33 17 -68t5 -75zM500 515q-36 58 -54 77q-46 48 -106 48q-79 0 -149 -117q-61 -101 -61 -173q0 -84 9 -115.5t37.5 -70.5t60.5 -61q41 -28 88 -28q65 0 108 26q26 16 52 49q30 38 42 83.5t12 99.5q0 58 -12.5 109t-26.5 73z" />
    <glyph glyph-name="P" unicode="P" horiz-adv-x="435" 
d="M408 502q0 -57 -15.5 -88.5t-50.5 -49.5q-20 -11 -56 -17.5t-64 -6.5q-10 0 -20 -0.5t-20 -0.5q-13 0 -28 1.5t-32 11.5q2 -24 4 -53t2 -55l2 -160q0 -23 20 -38q4 -3 11.5 -6t11.5 -5q16 -7 31 -7v-12h-200v9l1 9q16 3 22 6l16 12q3 4 4 17.5t1 15.5v31v208
q0 63 1.5 106t4.5 102v43v13q0 41 -3.5 47t-7 11.5t-8.5 8.5q-9 6 -17.5 7t-12.5 2v6v7h47l88 -2q14 0 35 1t30 1q21 0 30 -1t31 -8q35 -11 62.5 -27t39 -32.5t26 -53.5t14.5 -53zM310 534q-9 28 -27.5 52.5t-37 33.5t-38 13.5t-31.5 4.5q-15 1 -26 -2.5t-28 -3.5l-4 -76
q0 -12 2 -49.5t2 -40.5l-2 -90q15 0 28 -3t18 -3q7 0 15 1t25 5.5t38 9.5q22 7 42 32q16 21 22.5 42t6.5 42q0 20 -5 32z" />
    <glyph glyph-name="Q" unicode="Q" horiz-adv-x="695" 
d="M657 327q0 -63 -31 -123q-26 -50 -76 -99q-33 -33 -65 -52t-77 -27q10 -34 24 -60.5t42 -45.5q37 -24 82 -36q30 -8 61 -12q10 -1 25 -2v-22q-81 0 -176 18q-35 8 -66.5 24.5t-57.5 41.5l-52 52q-12 12 -24.5 24t-29.5 24q-13 4 -48 25t-50 33q-39 31 -49 42
q-14 15 -34 53q-38 71 -38 158q0 41 13 81t35 81q27 51 56 86q35 41 79 64q61 31 138 31q55 0 100 -12t82.5 -39.5t66.5 -70.5q25 -38 45 -90q25 -70 25 -147zM538 338q0 58 -12 106t-26 71q-36 58 -54 77q-46 48 -106 48q-79 0 -149 -117q-61 -101 -61 -173q0 -84 9 -115.5
t37.5 -70.5t60.5 -61q41 -28 88 -28q65 0 108 26q26 16 53.5 51t39.5 84t12 102z" />
    <glyph glyph-name="R" unicode="R" horiz-adv-x="637" 
d="M599 0l-198 2l-38 80l-44 94l-36 71l-49 97l-63 -2l-1 -68l-1 -98l2 -127q0 -10 9 -19t19.5 -11.5t34.5 -2.5q2 -1 1 -6t-1 -8h-218v17q18 0 32 12q10 7 14.5 10.5t4.5 8.5q0 28 4 132t4 161l1 88v88l1 71q-14 32 -31 42.5t-39 10.5v14t2 9l42 2l74 -1l41 -1l62 1
q30 0 58 -0.5t69.5 -7t73.5 -34.5q20 -18 30.5 -45.5t10.5 -66.5q0 -24 -18 -58t-41 -55q-14 -12 -42 -25q-18 -8 -32 -13q-5 -2 -15 -4l65 -128l43 -86q13 -24 25 -44q24 -41 27 -44q13 -11 28 -18.5t33 -10.5q11 -3 29.5 -5t26.5 -2v-20zM375 504q0 56 -35 89q-8 8 -22 16
t-26.5 11.5t-25.5 5.5t-27 2q-27 0 -41 -3q-14 -5 -28 -9l-1 -30l2 -69v-54q0 -17 -0.5 -33t-0.5 -31q0 -18 1 -26q7 0 13 -0.5t15 -0.5q22 0 42.5 2.5t34.5 7.5q25 11 43 23q27 18 41.5 43t14.5 56z" />
    <glyph glyph-name="S" unicode="S" horiz-adv-x="440" 
d="M435 171q0 -63 -63 -122t-131 -59q-38 0 -66.5 3.5t-49.5 12.5q-14 5 -40 23q-13 9 -19 11q-8 -7 -12 -7q-4 -8 -7 -13l-5 -24l-19 -3v47v49q0 18 -1 36.5t-2 36.5q0 16 1.5 30.5t4.5 28.5q1 -2 9.5 0.5t9.5 -6.5t2.5 -24t5 -29.5t5.5 -19.5l12 -26q12 -31 39 -53
q18 -15 58.5 -29t76.5 -14q53 0 89 63q10 18 15 33t5 32q0 19 -10 46.5t-45 50.5l-34 22q-18 14 -41.5 28t-47.5 25q-26 14 -61.5 37t-48.5 37q-19 20 -32 49.5t-13 62.5q0 22 8.5 52t19.5 48q8 14 21 27t30 25q32 24 65 34.5t77 10.5q16 0 41.5 -7.5t55.5 -16.5
q12 -2 13 -2q6 0 11.5 6t8.5 20q0 2 1 8q6 -1 9 -0.5t7 2.5v-63v-54l1 -35l-2 -73h-15l-16 90q-3 12 -8.5 24t-11.5 22q-13 18 -44 27t-61 9q-34 0 -81.5 -41.5t-47.5 -71.5q0 -42 32 -75q27 -28 81.5 -53t80.5 -37q47 -22 65.5 -37t37 -36.5t25 -40t9 -39.5t2.5 -58z" />
    <glyph glyph-name="T" unicode="T" horiz-adv-x="628" 
d="M594 535l-12 -2q-2 8 -12.5 27.5t-15.5 23.5q-19 17 -43 21t-64 4l-87 -1l-8 -112q0 -42 2 -110t2 -106q0 -21 -0.5 -40.5t-0.5 -37.5q0 -52 4.5 -93t18.5 -57.5t31.5 -20t49.5 -3.5l1 -17l-124 2l-98 -1h-57l-2 15l31 4q11 2 20.5 9t16 12.5t12 24t5.5 45.5q0 19 2 67.5
t2 54.5q0 33 1 102t1 100l-3 164q-17 0 -67.5 1t-57.5 1q-19 -2 -25 -3q-21 -5 -29 -13q-17 -17 -40 -62l-14 2l8 120q19 2 47 3t73 1l168 -2h132q47 0 75.5 -1t48.5 -3z" />
    <glyph glyph-name="U" unicode="U" horiz-adv-x="618" 
d="M600 648l-1 -13q-19 -3 -28 -5q-29 -8 -35.5 -24t-8.5 -31.5t-3 -25.5q-4 -22 -6 -51.5t-2 -49.5v-72q0 -109 -9 -171.5t-34 -107.5q-16 -31 -39 -50t-62 -32q-11 -4 -54.5 -8t-64.5 -4q-65 0 -95 15q-21 10 -56 51q-29 32 -38 66t-9 84l-5 157l-2 123l2 93q0 34 -22 44
q-7 3 -22 3l-1 13l60 2q10 0 34 -3t37 -3q23 0 41.5 0.5t33.5 1.5l-1 -17q-13 0 -20 -1q-45 -7 -45 -34q0 -24 2 -97t2 -78q0 -19 -0.5 -39.5t-0.5 -41.5q0 -46 2.5 -83t9.5 -73q13 -60 38 -90q31 -36 85 -36q41 0 69 9t50 26q28 22 42 62q5 14 18 76q7 31 10 58.5t3 48.5
q0 18 -1 45.5t-1 35.5q0 17 1 52t1 50q0 26 -2 45t-9.5 36t-21.5 22t-15 6v15l50 1l65 2z" />
    <glyph glyph-name="V" unicode="V" horiz-adv-x="750" 
d="M720 635q-10 -6 -27.5 -12.5t-24.5 -15.5t-22 -43q-21 -47 -22 -50q-11 -29 -21 -57q-13 -34 -29 -70q-11 -30 -15 -40t-31 -70q-33 -74 -65 -148q-16 -29 -35 -60l-44 -70q-8 -11 -13 -11q-10 0 -15 9q-33 62 -92 201l-69 168q-11 28 -21 55.5t-16 36.5l-70 144
q-21 26 -52 38q-5 2 -13 4v16l97 1l149 -1l-4 -16q-14 -5 -20 -8q-21 -11 -23 -20q-3 -16 15 -68q5 -13 24 -64t39.5 -100t36 -71.5t43.5 -84.5q9 -20 24 -55q9 15 15 26q35 65 73 148q6 13 26 73q7 20 19 51q23 56 26 65q12 32 12 47q0 8 -2 11q-5 11 -37 30q-10 6 -31 17
l1 13q2 -2 23 -2h27t30 1h10q40 0 78 -0.5t46 -3.5v-14z" />
    <glyph glyph-name="W" unicode="W" horiz-adv-x="1125" 
d="M1100 631q-10 -6 -27.5 -12.5t-24.5 -15.5t-25 -38.5t-24 -42.5q-12 -31 -23 -62q-16 -43 -31 -76q-7 -20 -17 -40l-34 -68q-14 -33 -39 -70q-38 -58 -42 -65q-20 -37 -39 -74t-27.5 -49.5t-13.5 -12.5q-10 0 -15 9q-11 20 -26 73q-19 67 -36 107l-63 150l-10 29
q-7 17 -9.5 23t-6.5 15q-9 -25 -25 -63q-8 -19 -29 -66q-17 -39 -36.5 -73t-38.5 -68l-78 -136q-8 -11 -13 -11q-10 0 -15 9q-11 20 -29 81q-22 74 -39 114l-69 168q-11 28 -21 55.5t-16 36.5l-70 144q-21 26 -52 38q-5 2 -13 4v16l97 1q40 0 86 -4q16 -1 43 -5l-4 -16
q-12 -5 -18 -8q-19 -11 -21 -20q-3 -16 15 -68q5 -13 24 -64t39.5 -100t36 -71.5t43.5 -84.5q9 -20 24 -55q20 29 33 50q41 67 71 132q5 11 20 56q12 37 25 74q-17 41 -25 62q-16 39 -32 59q-21 26 -52 38q-5 2 -13 4v16l97 1q40 0 86 -4q16 -1 43 -5l-4 -16q-12 -5 -18 -8
q-19 -11 -21 -20q-2 -10 12 -53q9 -27 27 -78t37 -104.5t31 -71.5q18 -27 44 -82q8 -18 22 -50q23 30 37 52q43 65 74 134q8 17 21.5 50.5t25.5 65.5q23 56 26 65q12 32 12 47q0 8 -2 11q-5 11 -33 30q-9 6 -27 17l1 13q2 -2 20 -2h24t28 1h10q37 0 70.5 -0.5t41.5 -3.5v-14
z" />
    <glyph glyph-name="X" unicode="X" horiz-adv-x="876" 
d="M841 67q0 -6 -0.5 -11.5t-2.5 -9.5h-126h-135v18q2 6 28 10t26 20q0 9 -31 45q-26 30 -74 78q-39 38 -79 75q-36 33 -59 51l-129 -111q-28 -24 -49 -48q-32 -38 -32 -66q0 -29 43 -43q14 -4 44 -8v-18l-87 3h-99l-87 3l3 18q6 -3 18 -3q19 0 35.5 12.5t33.5 35.5
q11 14 54 57q57 55 114 111l105 102q-16 16 -25 26q-54 59 -80 97q-8 12 -49 58q-46 51 -83.5 86.5t-93.5 40.5q-9 0 -23 1l-1 22q44 1 97 1.5t102 0.5l132 -3l3 -24h-11q-25 0 -43 -4t-18 -17q0 -12 24 -47q21 -30 54 -70q23 -28 58 -69q10 -12 26 -30l28 28q31 31 56 53
q67 60 79 75q23 29 23 51q0 5 -14 14t-22 13q-7 2 -2.5 10.5t2.5 10.5h96l153 1v-22q-17 -3 -37 -6t-47 -12q-44 -12 -63 -33l-114 -126q-32 -33 -72 -71q-12 -11 -30 -28l207 -222q21 -22 55 -61q26 -30 32 -35q15 -14 48.5 -21t38.5 -9z" />
    <glyph glyph-name="Y" unicode="Y" horiz-adv-x="635" 
d="M607 634q-10 -3 -24 -9q-22 -10 -33 -22q-21 -22 -48 -63l-28 -42l-79 -116l-54 -74v-52l-1 -167q0 -26 22 -43q15 -11 40 -19q8 -2 21 -6l2 -18l-90 1l-137 -1h-49v18q28 7 41 14q41 21 41 53v92v88l2 52q-8 25 -25 58q-21 42 -27 58q-10 30 -45 79q-30 40 -59 81
q-14 21 -38 31q-8 3 -23 6l1 12l117 1l103 -1l1 -13q-17 -4 -26 -6q-27 -8 -32 -18q-7 -14 26 -54q22 -26 25 -35t52 -102q20 -39 24 -59q3 0 34.5 37.5t61.5 73.5q43 56 65 87.5t19 43.5q-4 16 -26 22q-4 1 -12 2q0 14 1 18l71 2l30 -2l55 1z" />
    <glyph glyph-name="Z" unicode="Z" horiz-adv-x="617" 
d="M583 180q1 -2 -5 -28t-15 -58t-16.5 -51t-10.5 -21t-119 -2h-167q-43 0 -83 -0.5t-77 -0.5h-16h-12q-43 0 -46 3q-7 11 -7 25q0 5 1.5 10l3 10t39.5 68q32 53 59 95l118 174l62 92l98 122q-23 0 -89.5 1t-86.5 1q-54 0 -86.5 -2.5t-50 -11.5t-28.5 -36.5t-21 -55.5h-16
q4 42 8.5 87.5t10.5 51.5t37.5 7t50.5 1q24 0 48.5 -0.5t48.5 -0.5h130h136q6 -1 11.5 -2t10.5 -4q-17 -42 -48 -88q-9 -13 -33 -44q-17 -21 -33 -42q-78 -117 -130 -194q-55 -82 -77 -109t-54 -71q-10 -14 -27 -38q15 2 42.5 3t58.5 1q41 0 98.5 -1.5t124.5 -2.5
q18 -1 27 -1q16 0 27 3.5t23 13.5q16 16 25 27q27 34 43 72q3 6 8 2q1 -1 4 -5z" />
    <glyph glyph-name="bracketleft" unicode="[" horiz-adv-x="306" 
d="M264 656l-4 -48l-150 -3l2 -189v-424q0 -19 2 -66.5t2 -57.5h60l68 -4v-32h-112h-92l4 456l5 367l91 1h124z" />
    <glyph glyph-name="backslash" unicode="\" horiz-adv-x="208" 
d="M198 16h-36l-36 200l-52 268q-5 33 -15 73q-26 102 -29 119l40 -8l20 -76q14 -54 26 -122l18 -102z" />
    <glyph glyph-name="bracketright" unicode="]" horiz-adv-x="306" 
d="M250 -168h-92h-112v32l68 4h60q0 25 2 66t2 58v424l2 189l-150 3l-4 48h124l91 -1l5 -367z" />
    <glyph glyph-name="asciicircum" unicode="^" horiz-adv-x="452" 
d="M428 392h-28l-188 256q-41 -79 -92 -164l-60 -96h-40l104 172l88 148l96 -144z" />
    <glyph glyph-name="underscore" unicode="_" horiz-adv-x="648" 
d="M653 -167l-1 -33h-652v32z" />
    <glyph glyph-name="grave" unicode="`" 
d="M246 472l-36 -4l-116 156h104z" />
    <glyph glyph-name="a" unicode="a" horiz-adv-x="436" 
d="M407 65q-9 -19 -36 -36.5t-54 -17.5q-29 0 -42 15t-23 53q-33 -20 -52 -30q-61 -31 -96 -31q-43 0 -66.5 33t-23.5 79q0 62 62 116q45 39 108 64q14 7 43 16q5 1 14 4q2 9 3.5 20t1.5 12q0 35 -16 62q-19 32 -53 32q-45 0 -66 -26q-16 -20 -16 -52v-19q0 -43 -34 -43
q-7 0 -15 1.5t-14.5 11.5t-6.5 44q0 49 41 77q16 11 70 31q20 6 34 6q19 0 48 -9.5t49 -29.5q16 -16 33 -48q10 -18 13.5 -41.5t3.5 -47.5v-30v-87v-86q2 -11 13 -25.5t23 -14.5q7 0 26 9q25 12 28 13q-2 -4 -0.5 -13.5t0.5 -11.5zM252 114l-2 97q0 12 -0.5 38.5t-1.5 50.5
l-19 -6q-55 -23 -87 -48q-60 -47 -60 -108q0 -33 15 -46t41 -13q10 0 23 2t26.5 5t48.5 20z" />
    <glyph glyph-name="b" unicode="b" horiz-adv-x="456" 
d="M414 249q4 -20 4 -45q0 -50 -15 -92.5t-34 -60.5q-33 -30 -64 -40.5t-86 -10.5q-37 0 -94 25q-19 8 -50 26l4 49q0 68 -2 197.5t-2 149.5l1 96q0 7 2 27.5t2 21.5q0 12 -4 17t-10 5q-5 0 -12 -3t-14.5 -6.5t-28.5 -16.5l-1 32l66 25q14 5 36 15q39 17 42 15t3 -11
q0 -7 -1 -17l-2 -20l-4 -159v-171q19 29 34.5 44.5t32.5 25t33.5 13.5t32.5 4q49 0 86 -41q34 -38 45 -94zM336 145q7 20 7 44q0 49 -29 88t-71 39q-8 0 -23 -2.5t-30 -15.5q-21 -22 -37 -38v-128v-66q29 -28 65 -28t69 30t49 77z" />
    <glyph glyph-name="c" unicode="c" horiz-adv-x="381" 
d="M353 136q-4 -16 -8 -27q-13 -34 -36 -65q-18 -24 -56 -35q-24 -7 -46 -7q-31 0 -67.5 16.5t-54.5 37.5q-13 15 -36.5 62.5t-23.5 63.5q0 13 -0.5 26t-0.5 26q0 44 8.5 76t34.5 62q13 15 29 25.5t51 28.5q9 5 31.5 9.5t42.5 4.5q22 0 37.5 -4t32.5 -16q27 -19 38 -30
q20 -20 20 -36q0 -11 -12 -21.5t-28 -10.5t-22 12q-10 23 -20 47q-16 28 -45 28q-10 0 -22.5 -2.5t-29.5 -16.5q-13 -11 -30 -35t-21 -38.5t-4 -48.5v-30q0 -57 24 -109q32 -70 91 -70q13 0 31 5q42 12 71 57q9 15 21 43v-28z" />
    <glyph glyph-name="d" unicode="d" horiz-adv-x="424" 
d="M423 34q-15 -3 -24 -4q-25 -5 -44 -10q-10 -2 -23.5 -8.5t-18.5 -8t-11 -2t-11 -0.5l-2 50q-20 -13 -30 -19q-33 -19 -46 -19q-54 0 -80 9.5t-60 40.5q-17 16 -33 61t-16 93v18t4 26q11 57 45.5 96t85.5 39q16 0 32.5 -4t34.5 -14t32 -24t34 -44q2 39 3 84t1 79v93v15
q0 19 -3 24q-12 14 -23 14l-8 -2q-6 -2 -17 -3t-21 -2l-3 15q4 6 28 14t42.5 14.5t40.5 16.5q39 17 42 15t3 -11q0 -7 -1 -17l-2 -20q0 -37 -3.5 -98.5t-3.5 -81.5q0 -47 -1.5 -102.5t-2.5 -121.5v-123q0 -7 -1 -18t-1 -12q0 -22 9.5 -29t27.5 -7q9 0 25 4v-16zM289 78v66
v128q-19 18 -37 37q-17 14 -31.5 16.5t-23.5 2.5q-43 0 -72 -41.5t-29 -95.5q0 -24 7 -44q15 -45 47 -72t69 -27q39 0 70 30z" />
    <glyph glyph-name="e" unicode="e" horiz-adv-x="381" 
d="M360 141q-3 -10 -6 -17q-17 -42 -45 -80q-18 -24 -56 -35q-24 -7 -46 -7q-31 0 -67.5 16.5t-54.5 37.5q-13 15 -36.5 62.5t-23.5 63.5q0 13 -0.5 26t-0.5 26q0 44 8.5 76t34.5 62q13 15 29 25.5t51 28.5q9 5 31.5 9.5t42.5 4.5q28 0 76 -44q55 -51 55 -102l1 -23l-256 -1
q-1 -7 -1 -18v-29q0 -53 31 -102q39 -62 100 -62q14 0 34 5q42 12 68 52q8 13 18 39zM273 298q0 12 -1 24t-8 26q-12 23 -35 38t-48 15q-20 0 -34 -16q-2 -3 -19 -26q-25 -34 -31 -63z" />
    <glyph glyph-name="f" unicode="f" horiz-adv-x="339" 
d="M412 501q0 -16 -9 -24t-20 -8q-21 0 -31 19q-14 29 -22 42q-18 28 -45 28q-5 0 -17 -2q-47 -9 -66 -60q-14 -38 -14 -110l138 -2v-28l-138 1l-1 -25q0 -56 -1.5 -133.5t-1.5 -82.5q0 -58 54 -81q18 -7 55 -11v-20q-22 0 -50.5 -2.5t-43.5 -2.5l-100 3l-77 2v18
q16 -1 25 0q57 7 57 56v136l4 142h-56l2 30h55l3 48q0 85 74 128q55 32 116 32q10 0 18 -2q45 -17 66 -35q26 -23 26 -56z" />
    <glyph glyph-name="g" unicode="g" horiz-adv-x="514" 
d="M500 416q3 -3 3 -9q0 -9 -6.5 -16t-16.5 -7q-7 0 -19 2t-21 2q-10 0 -18 -3t-14 -5q5 -8 8 -16q7 -16 7 -29q0 -41 -19.5 -75.5t-53.5 -57.5q-52 -36 -119 -36q-27 0 -73 16q-15 5 -42 17l-14 -21l-6 -18q-2 -12 -3 -24q0 -11 4.5 -20.5t16.5 -17.5q25 -16 80 -22
q26 -2 37.5 -3t38.5 -1q20 0 40 -2t53 -7q61 -9 90 -28q35 -23 35 -63q0 -64 -36 -106q-29 -32 -77 -49.5t-105 -17.5h-16q-52 0 -80 1.5t-60.5 9t-52 17.5t-28.5 26q-12 21 -12 42q0 14 4.5 26t14.5 26q14 19 41 41q33 25 47 36l-16 4q-43 8 -57 15q-27 14 -27 47
q0 35 24 66l48 56q-17 14 -33 45q-20 40 -20 69q0 74 53 121q48 42 119 42q42 0 86 -21q35 -18 71 -35l10 -3q6 -1 10.5 -1.5t12.5 -0.5q12 0 24 1l24 2q27 0 43 -15zM329 335q0 39 -24 76q-31 47 -81 47q-45 0 -69 -41q-20 -34 -20 -81q0 -52 26 -91q30 -44 77 -44
q21 0 38 14t31 40q22 40 22 80zM462 -63q4 21 -17 34.5t-54 22t-59 12t-47 3.5l-69 1q-8 0 -21 -0.5t-30 -0.5q-22 0 -42.5 -43t-14.5 -62q4 -15 16 -25t32.5 -19t50.5 -14.5t57 -5.5q24 0 54 5t62.5 17t52.5 29q24 20 29 46z" />
    <glyph glyph-name="h" unicode="h" horiz-adv-x="518" 
d="M520 3l-72 1l-121 -3l1 13q13 2 20 3q22 4 29 10t9.5 23.5t2.5 48.5q0 17 -1 56.5t-1 58.5q0 16 1 30.5t2 29.5q0 25 -5 38t-16 26q-34 41 -88 41q-42 0 -83 -25q-23 -14 -35.5 -31.5t-16 -38t-3.5 -42.5q0 -11 1 -34t1 -32q0 -21 -1 -41.5t-2 -38.5q0 -19 1 -32
t6.5 -28.5t18 -15.5h20.5l-2 -20h-188v22q5 -1 12.5 -2t10.5 -1q17 0 29 4.5t15.5 17.5t3.5 41q0 25 -1 44t-2 36q0 75 -1 117q-4 169 -4 191q0 10 1 41.5t1 38.5q0 17 -1 33.5t-4 27t-11.5 14.5t-20.5 4q-11 0 -16.5 -0.5t-9.5 -0.5q1 8 63 29.5t67 16.5q6 -5 8.5 -65.5
t2.5 -144.5v-21v-20v-17v-15v-12v-30t-1 -21q21 31 27 41q12 18 27 31q28 24 62.5 34.5t69.5 10.5q17 0 29.5 -1.5t38 -16t34.5 -27.5q16 -23 24.5 -80t8.5 -120v-33.5t1 -32.5q0 -31 4 -59t13 -40.5t21.5 -13.5t19.5 -2v-16z" />
    <glyph glyph-name="i" unicode="i" horiz-adv-x="245" 
d="M154 582q3 -8 3 -16q0 -20 -19 -33q-12 -6 -24 -6q-14 0 -24 9t-10 23q0 12 6 23.5t17.5 15.5t17.5 4q24 0 33 -20zM221 15l-196 3v14q15 6 22 9q23 12 29 26q2 5 3 20.5t1 18.5q0 9 -1 33.5t-1 37.5q0 16 1 30l2 28q0 14 -2 27t-2 25v19q0 19 -0.5 37.5t-5.5 29
t-14 10.5q-7 0 -11 -1t-8 -4l-6 19l68 30l57 27q1 -9 1.5 -20t0.5 -22q0 -15 -0.5 -28.5t-0.5 -26.5v-117v-50.5t1 -59.5q0 -30 1.5 -46.5t8 -26.5t21 -15t31.5 -10q4 -2 1 -8t-1 -9z" />
    <glyph glyph-name="j" unicode="j" horiz-adv-x="266" 
d="M156 560q-14 -16 -36 -16q-16 0 -31 13t-15 35q0 16 13 31t35 15q16 0 31 -13t15 -35q0 -16 -12 -30zM184 60v-49q0 -125 -33.5 -164t-99.5 -39q-44 0 -64 4q-39 8 -42.5 24t-3.5 26q0 13 6 20q10 12 31 12q9 0 16 -4q2 -1 14 -12q1 -1 9 -21.5t25 -20.5q12 0 22.5 2.5
t21.5 9.5q16 11 21 29.5t5 43.5v15q0 32 2.5 83.5t2.5 60.5l-5 120v56q0 84 -1.5 100.5t-7.5 23.5q-2 2 -11 2q-7 0 -29 -2t-23 -2q-12 0 -15 4q-6 10 -6 17t6 7q7 0 53 18q97 38 100 34q4 -6 5 -28t1 -64v-12v-11q0 -20 -0.5 -39t-0.5 -38l1 -96v-110z" />
    <glyph glyph-name="k" unicode="k" horiz-adv-x="509" 
d="M528 18l-226 2v16q8 -2 12 -2q10 0 19 6t15 22q3 9 -4 22q-1 1 -40 52l-42 56l-40 64q-20 28 -49 54l-1 -26q0 -36 1.5 -73t3.5 -67q0 -34 1.5 -51.5t7.5 -26.5q10 -16 28 -21t32 -9q3 -2 -0.5 -8.5t0.5 -10.5l-218 3v16q16 5 24 9q25 13 32 30q3 7 4 24.5t1 22.5
q0 10 -1 35.5t-1 39.5v42t1 41q0 41 -2.5 56.5t-2.5 24.5v15v38t1 42v40v14q0 52 -5 65t-16 13q-6 0 -11 -2l-10 -4q-3 7 -4 10q-4 10 -2 11l75 33q17 7 41 19l22 11q3 -21 3 -49q0 -16 -0.5 -30.5t-0.5 -27.5v-176l-3 -57q24 19 37 38q20 29 34 44q43 41 67 67t25 37
q3 21 -42 29q-7 1 -22 3v12l156 2q24 2 35 2q12 0 15 -4v-16h-16q-41 -5 -74 -34q-27 -23 -86.5 -89t-77.5 -81q11 -18 65 -81q69 -82 139 -163q27 -35 66 -48q13 -4 34 -6v-20z" />
    <glyph glyph-name="l" unicode="l" horiz-adv-x="264" 
d="M246 17l-218 3v16q16 5 24 9q25 13 32 30q3 7 4 24.5t1 22.5q0 10 -1 35.5t-1 39.5q0 42 1 81.5t2 77.5q0 37 -2 50.5t-3 50t-1 63.5v40v14q0 52 -5 65t-16 13q-6 0 -11 -2l-10 -4q-3 7 -4 10q-4 10 -2 11l75 33q17 7 41 19l22 11q3 -21 3 -49q0 -16 -0.5 -30.5
t-0.5 -27.5v-240l-4 -99q0 -36 1.5 -73t3.5 -67q0 -34 1.5 -51.5t7.5 -26.5q10 -16 28 -21t32 -9q3 -2 -0.5 -8.5t0.5 -10.5z" />
    <glyph glyph-name="m" unicode="m" horiz-adv-x="667" 
d="M661 12l-174 3v13q13 4 19 7q21 11 26 25q2 5 3 20.5t1 18.5q0 13 -0.5 27t-0.5 29v14q0 7 -0.5 23t-0.5 27v21q2 12 2 23q0 12 -2 17q-6 22 -11 44q-9 19 -37 19t-62 -17q-24 -13 -47 -26q0 -31 -1 -71.5t-2 -74.5q0 -34 1.5 -58.5t6.5 -31.5q9 -13 26.5 -21.5
t22.5 -10.5q2 -2 -0.5 -7.5t0.5 -8.5l-174 3v13q13 4 19 7q21 11 25.5 23t5.5 31t1 53v95q1 11 1 20q0 12 -3 23q-6 22 -11 44q-9 19 -37 19q-31 0 -67 -19q-25 -14 -49 -28v-117t1 -66q0 -25 1.5 -40.5t5.5 -23.5q7 -10 20.5 -15t28.5 -9q3 -1 0 -7t0 -9l-177 3v13
q13 5 20 8q21 10 25.5 21t4.5 40q0 18 -1 41.5t-1 26.5v23v23v21v18v16v13v11q0 16 -0.5 29t-0.5 22q0 32 -17 32q-4 0 -15 -3t-16 -3v8q24 20 68 43.5t47 17.5q1 -2 2 -14t1 -14v-27l2 -64q41 38 63 52q44 29 81 29q26 0 40 -3.5t28 -18.5q24 -23 24 -56q44 41 76.5 57.5
t59.5 16.5q26 0 40 -3.5t28 -18.5q24 -23 24 -59l1 -82q0 -46 0.5 -106t5.5 -66q9 -13 26.5 -21.5t22.5 -10.5q2 -2 -0.5 -7.5t0.5 -8.5z" />
    <glyph glyph-name="n" unicode="n" horiz-adv-x="469" 
d="M433 12l-174 3v13q13 4 19 7q21 11 25.5 23.5t4.5 42.5q0 14 -0.5 28.5t-0.5 29.5l1 82q1 11 1 20q0 12 -3 23q-6 22 -11 44q-9 19 -37 19q-31 0 -67 -19q-25 -14 -49 -28v-117t1 -66q0 -25 1.5 -40.5t5.5 -23.5q7 -10 20.5 -15t28.5 -9q3 -1 0 -7t0 -9l-177 3v13
q13 5 20 8q21 10 25.5 21t4.5 37q0 9 -1 31t-1 33v24v23v22v19v17v14v12q0 16 -0.5 29t-0.5 23q0 32 -17 32q-4 0 -15 -3t-16 -3v8q24 20 68 43.5t47 17.5q1 -2 2 -14t1 -14v-27l2 -64q41 38 63 52q44 29 81 29q26 0 40 -3.5t28 -18.5q24 -23 24 -59v-80q0 -53 1.5 -113
t5.5 -65q9 -13 26.5 -21.5t22.5 -10.5q2 -2 -0.5 -7.5t0.5 -8.5z" />
    <glyph glyph-name="o" unicode="o" 
d="M350 215q0 -83 -43 -141q-48 -65 -127 -65q-75 0 -125 56t-50 130q-1 6 -1 12.5v10.5q0 71 38.5 126t107.5 64q7 1 20 1q74 0 127 -59t53 -135zM271 215q0 66 -24 113q-29 56 -80 56q-8 -1 -12 -1q-39 -5 -54.5 -37.5t-15.5 -82.5q0 -15 0.5 -24.5t3.5 -37.5
q9 -91 35 -125q23 -30 64 -30t62 35t21 134z" />
    <glyph glyph-name="p" unicode="p" horiz-adv-x="424" 
d="M399 251q4 -20 4 -45q0 -50 -15 -92.5t-34 -60.5q-32 -29 -60 -39.5t-80 -10.5q-13 0 -46 19q-10 6 -30 19l-6 -123q0 -22 0.5 -49.5t7.5 -32.5q15 -11 42 -14h26l1 -14q-2 -4 -11 -5t-23 -1q-10 0 -30 1t-26 1h-38.5t-31.5 -1q-45 0 -50 3v11q4 3 23 4.5t28 17.5
q4 7 5 54.5t1 83.5q0 47 2 81t2 69v123q0 5 1 17.5t1 13.5q0 19 -9 26.5t-30 7.5q-10 0 -19 -3v16l67 17q19 7 32 11t17 4q6 0 9 -4.5t4 -21t2 -32.5q15 18 24 28q27 30 43.5 39t33 13t32.5 4q49 0 86 -41q34 -38 45 -94zM324 137q7 20 7 45q0 52 -29.5 94t-72.5 42
q-9 0 -13 -1q-27 -5 -48 -24q-18 -19 -30 -31v-128v-66q31 -30 71 -30q36 0 68 27t47 72z" />
    <glyph glyph-name="q" unicode="q" horiz-adv-x="424" 
d="M421 -202q-5 -3 -50 -3q-23 0 -40.5 0.5t-29.5 0.5q-6 0 -25.5 -1t-30.5 -1q-30 0 -34 6l1 14q16 0 34.5 1t33.5 13q7 5 7.5 29t0.5 33v20l-4 168q-16 -21 -24 -31q-27 -33 -38 -39q-37 -20 -71 -20q-48 0 -81.5 36t-44.5 92q-4 20 -4 45q0 52 16.5 100.5t34.5 65.5
q32 29 60 39.5t80 10.5q11 0 37 -14q12 -6 37 -22q0 16 2.5 22t29.5 20.5t34 10.5q2 -2 3 -20t1 -35v-51l4 -169q0 -34 2 -76t2 -74q0 -39 0.5 -84t6 -55t18.5 -14q16 -3 32 -7v-11zM285 213v41q0 15 -3 22q-14 36 -37 52.5t-52 16.5q-33 0 -60.5 -20t-38 -52.5t-10.5 -67.5
q0 -63 33 -110t78 -47q8 0 19 2t24 12l43 43z" />
    <glyph glyph-name="r" unicode="r" horiz-adv-x="320" 
d="M273 342q-12 0 -24.5 11.5t-23.5 22.5q-8 5 -17 5q-6 0 -11 -3q-21 -12 -41 -23q-18 -13 -20.5 -29t-2.5 -23q0 -6 1 -19.5t1 -20.5v-10q-2 -7 -2 -10v-65.5v-62.5q1 -7 1 -19q-1 -21 -1 -30q0 -13 2 -23t9 -17q5 -7 30 -12q8 -1 24 -4v-7l-36 -1l-152 -1v9q8 1 12 2
q15 5 23.5 18.5t10 30.5t1.5 33v32q0 26 1 80.5t1 74.5v18q0 25 -4 35t-18 10q-21 -3 -34 -3v5q25 22 76.5 48t54.5 23q1 -1 2 -10.5t1 -30.5v-14q9 8 35 34q14 14 31 24q26 16 42.5 18.5t27.5 3.5q19 3 31.5 -13.5t12.5 -37.5t-11 -35t-33 -14z" />
    <glyph glyph-name="s" unicode="s" horiz-adv-x="379" 
d="M357 130q0 -61 -51 -100q-47 -36 -111 -36q-19 0 -38 6q-32 11 -63 22q-4 1 -8.5 -4.5t-8.5 -9.5q-7 1 -12 2v142l10 4q20 -62 45 -91q35 -41 90 -41q37 0 59 13q27 16 27 48q0 27 -17.5 49t-63.5 46q-50 22 -99 45q-61 38 -61 105q0 52 45.5 88t107.5 36q17 0 40.5 -11
t40.5 -10q15 0 29 13q2 2 6 7h9l1 -74v-66h-14q-10 34 -21 51q-33 52 -90 52q-35 0 -64.5 -18t-29.5 -48q0 -23 22 -44q15 -15 46 -31q48 -23 97 -46q27 -16 48 -40q29 -32 29 -59z" />
    <glyph glyph-name="t" unicode="t" horiz-adv-x="295" 
d="M294 94q-12 -18 -20 -28q-51 -62 -96 -62q-32 0 -52 10.5t-31.5 30t-15 43.5t-3.5 60l2 167v72h-61q12 9 19 14q41 33 60 52q14 14 37 61q7 15 20 42h7v-35l1 -40l1 -74h57l47 1l-2 -24h-22l-82 -1l-3 -163q0 -20 -0.5 -38t-0.5 -35q0 -48 8 -63.5t14.5 -18.5t29.5 -3
q19 0 49 20q10 6 27 20z" />
    <glyph glyph-name="u" unicode="u" horiz-adv-x="445" 
d="M431 48q-14 -9 -22 -13q-28 -16 -40 -21.5t-28 -9.5t-20 -1q-4 2 -4 21v11v37q-17 -21 -25 -30q-15 -18 -30 -24q-7 -3 -36.5 -9t-34.5 -6q-21 0 -50 7.5t-41 18.5q-47 39 -47 117l2 135v22t1 26q0 20 -2.5 38.5t-7.5 30.5q-8 16 -27 20q-3 0 -9 1l1 12h56h52l-1 -99
l1 -132q0 -10 -1 -28t-1 -26v-13q2 -9 2 -14q6 -36 28.5 -56.5t67.5 -20.5q37 0 62.5 15t36.5 47q5 16 5 36q0 10 -0.5 20.5t-0.5 22.5v143v18q0 26 -1.5 39t-9 20.5t-25.5 12.5q-6 1 -17 3v13h66h49l2 -102v-174q0 -11 -1.5 -33.5t-1.5 -23.5q0 -25 7 -36q3 -5 11 -5
q16 3 24 3.5t9 -1.5q3 -5 2 -8t-1 -4z" />
    <glyph glyph-name="v" unicode="v" horiz-adv-x="503" 
d="M480 436q-38 -5 -56 -24t-31.5 -49.5t-25.5 -69.5q-15 -48 -34 -96q-11 -27 -33.5 -78.5t-30.5 -68.5q-23 -47 -30 -47t-16 13q-5 7 -14 24q-44 84 -80 168q-23 60 -38 99q-29 73 -48 105q-8 14 -29 19q-6 1 -19 2l-1 12l54 -1l107 2l-1 -13q-9 0 -19.5 -1t-15.5 -12
q-3 -7 7 -33q17 -38 27 -62q22 -51 64 -139q15 -32 43 -88l25 60q21 54 44 119q18 52 31 96q4 11 4 21q0 14 -11 23q-5 4 -15.5 9t-29.5 7l-1 12h173v-9z" />
    <glyph glyph-name="w" unicode="w" horiz-adv-x="747" 
d="M752 444q-38 -5 -56 -24t-31.5 -49.5t-25.5 -69.5q-15 -48 -34 -96q-11 -27 -33.5 -78.5t-30.5 -68.5q-23 -47 -30 -47t-16 13q-5 7 -14 24q-44 84 -80 168l-30 79q-12 -35 -27 -72t-45 -107q-22 -49 -30 -66q-23 -47 -30 -47t-16 13q-5 7 -14 24q-44 84 -80 168
q-23 60 -38 99q-29 73 -48 105q-8 14 -29 19q-6 1 -19 2l-1 12l54 -1l107 2l-1 -13q-9 0 -19.5 -1t-15.5 -12q-3 -7 7 -33q17 -38 27 -62q22 -51 64 -139q15 -32 43 -88l25 60q16 42 37 100q17 48 29 86q-10 24 -13 31q-12 28 -21.5 43.5t-30.5 20.5q-6 1 -19 2l-1 12l54 -1
l107 2l-1 -13q-9 0 -19.5 -1t-15.5 -12q-3 -7 7 -33q17 -38 27 -62q22 -51 64 -139q15 -32 43 -88l25 60q21 54 44 119q18 52 31 96q4 11 4 21q0 14 -11 23q-5 4 -15.5 9t-29.5 7l-1 12h173v-9z" />
    <glyph glyph-name="x" unicode="x" horiz-adv-x="464" 
d="M451 0l-54 2h-126v12q15 2 21 6q11 7 11 20q0 25 -40 94q-13 22 -40 64l-110 -142q-8 -11 21 -33q5 -3 15 -10l-1 -11l-122 2l-1 12q9 2 15 5q19 10 37 31q24 28 52 63q32 39 51 65l29 41l-44 67q-14 26 -23 42q-16 29 -31 41q-20 18 -45 24q-8 2 -21 3l-1 14l86 -3h81
v-8l-15 -6q-15 -8 -15 -15q0 -19 34 -72q11 -17 34 -49q21 29 32 45q35 50 42 65q5 11 -11 25q-2 2 -9 6v12h108v-14q-10 -3 -15 -5q-17 -7 -24 -13q-34 -30 -76 -88q-14 -19 -35 -53l100 -156q10 -17 20 -33q7 -8 18 -14t33 -15q7 -2 19 -7v-14z" />
    <glyph glyph-name="y" unicode="y" horiz-adv-x="501" 
d="M477 416q-28 -7 -43 -22q-25 -26 -39 -74q-19 -63 -45 -125q-15 -37 -33 -82t-78 -151q-20 -36 -59 -100q-12 -13 -20 -19q-26 -19 -58 -19q-23 0 -36.5 12.5t-13.5 39.5q0 23 15 33.5t39 10.5q14 0 29 -11.5t27 -11.5q15 0 45 58q9 19 27 58q-4 6 -6 10q-14 25 -26 49.5
t-18 37.5q-14 34 -24 52q-36 68 -60 114q-31 60 -37 72q-16 31 -48 59q-5 4 -15 11l-2 16h214v-14q-22 -7 -33 -13q-34 -18 -34 -42q0 -8 3.5 -17.5t26.5 -56.5q10 -21 42 -83l58 -112q8 20 12 33q31 83 37 103q22 67 35 140q2 15 -26 33q-9 6 -30 15v10h174v-14z" />
    <glyph glyph-name="z" unicode="z" horiz-adv-x="443" 
d="M423 434l-67 -97q-21 -31 -45 -65q-20 -28 -44.5 -61.5t-83.5 -111.5q-17 -23 -46 -61l66 2l98 -2q58 0 81 46q7 15 12 46h14l1 -87l-1 -36h-183h-171v18q38 51 61 82q62 84 110 152q22 32 68 91q15 19 42 53l-126 -3h-105q-18 0 -32 -37q-4 -12 -11 -37h-9v66v38l166 2z
" />
    <glyph glyph-name="braceleft" unicode="{" horiz-adv-x="257" 
d="M208 -144l-2 -22q-96 56 -123 99t-27 103q0 36 8 90t8 90q0 38 -14 54q-4 4 -42 29q1 8 0 9q57 19 57 57q0 7 -1 11q-7 53 -13.5 107.5t-6.5 96.5q0 63 40.5 103.5t106.5 40.5l5 -16q-36 0 -57 -15q-27 -19 -27 -59q0 -32 8 -110t8 -107q0 -25 -17 -52q-20 -31 -39 -61
q0 -12 13 -28q35 -43 39 -55.5t6 -29.5t2 -30v-37q0 -37 -3 -69q-9 -96 -9 -103q0 -35 40 -69q13 -11 40 -27z" />
    <glyph glyph-name="bar" unicode="|" horiz-adv-x="100" 
d="M72 -196l-40 -4l-4 880h44v-876z" />
    <glyph glyph-name="braceright" unicode="}" horiz-adv-x="257" 
d="M228 299q-17 -11 -34 -21q-22 -17 -22 -62q0 -36 8 -90t8 -90q0 -76 -44 -125q-29 -32 -106 -77l-2 22q27 15 40 26q40 34 40 70q0 27 -6 82t-6 90v37q0 19 1 30t7 29t29 45t23 39q-22 34 -39 61.5t-17 51.5q0 28 8 106t8 111q0 40 -26 59q-21 15 -58 15l5 16
q67 0 107 -40t40 -104q0 -57 -8.5 -118.5t-10.5 -75t-2 -17v-4.5q0 -38 57 -57q-1 -1 0 -9z" />
    <glyph glyph-name="asciitilde" unicode="~" horiz-adv-x="454" 
d="M429 586q0 -50 -39.5 -80t-97.5 -30q-41 0 -84 25q-96 56 -130 56q-11 0 -27 -17q-21 -24 -41 -47q0 63 27 103.5t78 40.5q36 0 75 -24q88 -54 113 -54q57 0 93 45q12 15 25 46l5 -3q2 -14 2.5 -32t0.5 -29z" />
    <glyph glyph-name="quotesinglbase" unicode="&#x201a;" horiz-adv-x="198" 
d="M167 4q-4 -24 -4 -25q-5 -19 -21.5 -35.5t-58.5 -21.5q-7 0 -19 -2v10q14 1 22 3q25 7 36 26q17 26 17 50q0 8 -3 17l-3 11l-7 -3q-8 -5 -25 -5q-22 0 -37 11q-25 18 -25 44q0 16 8 30t22 21t29 7q21 0 36.5 -9.5t24 -31.5t8.5 -38q0 -6 -2 -10q-3 -4 0.5 -21.5
t1.5 -27.5z" />
    <glyph glyph-name="florin" unicode="&#x192;" horiz-adv-x="572" 
d="M504 634q0 -28 -5 -44q-8 -26 -26 -26q-11 0 -19.5 13t-8.5 23q0 1 9 25q5 14 5 22q0 12 -9 19.5t-32 7.5q-33 0 -51 -110q-8 -46 -15 -92l-15 -59l127 -1l-13 -33l-123 3q-8 -25 -19 -57q-17 -47 -33 -93l-104 -316q-20 -54 -39 -75t-45 -21q-35 0 -50 7q-22 10 -22 41
q0 20 16 20q9 0 15 -3.5t6 -9.5q0 -2 -3 -10t-3 -13t4 -8q8 -8 24 -8q34 0 53 73q16 83 20 103q8 35 27 102q25 91 29 106l44 164l-125 3l17 29l117 -1l23 77q24 83 41 119q37 81 83 81q37 0 62 -10q38 -15 38 -48z" />
    <glyph glyph-name="quotedblbase" unicode="&#x201e;" horiz-adv-x="392" 
d="M179 4q-4 -24 -4 -25q-5 -19 -21.5 -35.5t-58.5 -21.5q-7 0 -19 -2v10q14 1 22 3q25 7 36 26q17 26 17 50q0 8 -3 17l-3 11l-7 -3q-8 -5 -25 -5q-22 0 -37 11q-25 18 -25 44q0 16 8 30t22 21t29 7q21 0 36.5 -9.5t24 -31.5t8.5 -38q0 -6 -2 -10q-3 -4 0.5 -21.5
t1.5 -27.5zM355 4q-4 -24 -4 -25q-5 -19 -21.5 -35.5t-58.5 -21.5q-7 0 -19 -2v10q14 1 22 3q25 7 36 26q17 26 17 50q0 8 -3 17l-3 11l-7 -3q-8 -5 -25 -5q-22 0 -37 11q-25 18 -25 44q0 16 8 30t22 21t29 7q21 0 36.5 -9.5t24 -31.5t8.5 -38q0 -6 -2 -10q-3 -4 0.5 -21.5
t1.5 -27.5z" />
    <glyph glyph-name="ellipsis" unicode="&#x2026;" horiz-adv-x="532" 
d="M474 21q-14 -21 -41 -21q-16 0 -27 8q-21 14 -21 41q0 15 9 27q14 21 41 21q15 0 27 -9q21 -15 21 -40q0 -15 -9 -27zM310 21q-14 -21 -41 -21q-16 0 -27 8q-21 14 -21 41q0 15 9 27q14 21 41 21q15 0 27 -9q21 -15 21 -40q0 -15 -9 -27zM150 25q-14 -21 -41 -21
q-16 0 -27 8q-21 14 -21 41q0 15 9 27q14 21 41 21q15 0 27 -9q21 -15 21 -40q0 -15 -9 -27z" />
    <glyph glyph-name="dagger" unicode="&#x2020;" horiz-adv-x="506" 
d="M503 393q0 -21 -11 -35.5t-35 -14.5q-7 1 -10 1q-18 3 -75 30q-23 11 -48 11l-39 1q2 -8 5.5 -16.5t12.5 -19.5q12 -8 19 -13q15 -11 15 -17q0 -17 -10 -47.5t-18 -56.5q-9 -42 -14.5 -80t-9.5 -84q0 -36 -16 -167q-8 -65 -8 -105l-18 -8l-6 424q-6 22 -15 64.5t-9 55.5
q0 4 10.5 16.5t23.5 27.5q9 15 12 26l-49 -1q-27 0 -49 -9q-65 -26 -78 -28q-30 -4 -43 10.5t-13 38.5q0 25 6 33q12 16 50 16q26 0 45 -8q59 -25 86 -29l47 -5l-2 28q0 26 -28 81q-15 29 -19 59q-4 31 15.5 46.5t45.5 15.5q28 0 39 -7q20 -13 20 -55q0 -28 -15 -53
q-34 -58 -34 -85l-1 -30l46 5q30 5 76 25q18 8 43 8q37 0 49 -16q7 -9 7 -33z" />
    <glyph glyph-name="daggerdbl" unicode="&#x2021;" horiz-adv-x="506" 
d="M457 2q0 -20 -6 -28q-11 -14 -42 -14q-22 0 -36 6q-44 19 -58.5 21.5t-25.5 3.5t-20 1l1 -25q0 -29 20.5 -61t20.5 -56q0 -36 -16 -47q-11 -8 -34 -6q-23 0 -37 11q-18 14 -15 42q3 18 29 74q11 23 11 45l2 23h-23q-12 -3 -30.5 -5.5t-48.5 -17.5q-25 -12 -49 -12
q-32 0 -42 13q-6 8 -6 28t11.5 32.5t36.5 9.5q24 -4 53.5 -17.5t54.5 -13.5l41 -1q-1 7 -10 22q-1 1 -15 17.5t-14 19.5q0 9 6.5 39t14.5 63q0 11 4 36q9 56 9 79q0 25 -6 53t-11 50q-9 40 -14.5 67t-5.5 35q0 3 13 19l16 18q6 10 10 22l-42 -1q-24 0 -42 -7
q-57 -23 -66 -24q-24 -3 -35.5 10t-11.5 32q0 21 5 28q9 13 42 13q22 0 39 -7q50 -21 73 -24q20 -4 40 -4l-2 23q0 23 -10 44q-28 59 -30 75q-3 27 13 40t39 13q28 3 39 -11t11 -42q0 -23 -13 -45q-29 -49 -29 -72v-25q19 0 41.5 4t61.5 21q16 7 37 7q32 0 41 -13
q6 -8 6 -29q0 -18 -9 -30t-29 -12q-6 1 -9 1q-15 2 -63 25q-19 9 -42 9l-33 1q5 -18 15 -30q10 -7 16 -11q13 -9 13 -15q0 -15 -8.5 -40.5t-15.5 -47.5q-12 -60 -24 -119v-4q0 -26 9.5 -61t18.5 -68q1 -4 14 -44q10 -30 10 -44q0 -5 -14 -14.5t-16.5 -13t-7 -10.5t-7.5 -18
l34 1q21 0 40 9q47 23 64 25q24 3 36 -9.5t12 -31.5z" />
    <glyph glyph-name="circumflex" unicode="&#x2c6;" horiz-adv-x="445" 
d="M356 516l-24 -8l-144 92l-104 -84l-24 4l94 142l78 -2z" />
    <glyph glyph-name="perthousand" unicode="&#x2030;" horiz-adv-x="1000" 
d="M876 210q1 -10 1.5 -17.5t0.5 -12.5q0 -60 -22 -101q-25 -47 -67 -47q-8 0 -12 1q-42 8 -64.5 50.5t-22.5 99.5q0 70 17 113q22 57 69 57q45 0 71 -44q22 -37 29 -99zM348 546q1 -10 1.5 -17.5t0.5 -12.5q0 -60 -22 -101q-25 -47 -67 -47q-8 0 -12 1q-42 8 -64.5 50.5
t-22.5 99.5q0 70 17 113q22 57 69 57q45 0 71 -44q22 -37 29 -99zM640 206q1 -10 1.5 -17.5t0.5 -12.5q0 -60 -22 -101q-25 -47 -67 -47q-8 0 -12 1q-42 8 -64.5 50.5t-22.5 99.5q0 70 17 113q22 57 69 57q45 0 71 -44q22 -37 29 -99zM692 596l-588 -588h-52l588 588h52z
M832 200q0 63 -5 87q-10 47 -43 47q-32 0 -43 -46q-7 -30 -7 -92v-29q0 -67 12.5 -89t38.5 -22q29 0 40 25q8 19 8 64q0 13 -0.5 26.5t-0.5 28.5zM304 536q0 63 -5 87q-10 47 -43 47q-32 0 -43 -46q-7 -30 -7 -92v-29q0 -67 12.5 -89t38.5 -22q29 0 40 25q8 19 8 64
q0 13 -0.5 26.5t-0.5 28.5zM596 196q0 63 -5 87q-10 47 -43 47q-32 0 -43 -46q-7 -30 -7 -92v-29q0 -67 12.5 -89t38.5 -22q29 0 40 25q8 19 8 64q0 13 -0.5 26.5t-0.5 28.5z" />
    <glyph glyph-name="Scaron" unicode="&#x160;" horiz-adv-x="440" 
d="M435 171q0 -63 -63 -122t-131 -59q-38 0 -66.5 3.5t-49.5 12.5q-14 5 -40 23q-13 9 -19 11q-8 -7 -12 -7q-4 -8 -7 -13l-5 -24l-19 -3v47v49q0 18 -1 36.5t-2 36.5q0 16 1.5 30.5t4.5 28.5q1 -2 9.5 0.5t9.5 -6.5t2.5 -24t5 -29.5t5.5 -19.5l12 -26q12 -31 39 -53
q18 -15 58.5 -29t76.5 -14q53 0 89 63q10 18 15 33t5 32q0 19 -10 46.5t-45 50.5l-34 22q-18 14 -41.5 28t-47.5 25q-26 14 -61.5 37t-48.5 37q-19 20 -32 49.5t-13 62.5q0 22 8.5 52t19.5 48q8 14 21 27t30 25q32 24 65 34.5t77 10.5q16 0 41.5 -7.5t55.5 -16.5
q12 -2 13 -2q6 0 11.5 6t8.5 20q0 2 1 8q6 -1 9 -0.5t7 2.5v-63v-54l1 -35l-2 -73h-15l-16 90q-3 12 -8.5 24t-11.5 22q-13 18 -44 27t-61 9q-34 0 -81.5 -41.5t-47.5 -71.5q0 -42 32 -75q27 -28 81.5 -53t80.5 -37q47 -22 65.5 -37t37 -36.5t25 -40t9 -39.5t2.5 -58z
M380 864l-124 -144l-78 -2l-94 142l24 4l104 -84l144 92z" />
    <glyph glyph-name="guilsinglleft" unicode="&#x2039;" horiz-adv-x="328" 
d="M286 14h-48l-208 244l208 240h32l-140 -235z" />
    <glyph glyph-name="OE" unicode="&#x152;" horiz-adv-x="963" 
d="M955 166l-42 -152q-6 2 -10 3q-30 8 -69 8q-20 0 -54 -3q-80 -7 -101 -7q-14 0 -46.5 2.5t-33.5 2.5l-94 -6l-77 1l-8 -1q-20 -7 -39 -9t-47 -2q-46 0 -85.5 6.5t-69.5 23.5q-37 21 -69 61q-26 32 -51 79q-38 71 -38 158q0 41 13 81t35 81q27 51 56 86q35 41 79 64
q31 16 65.5 25.5t69.5 9.5q74 0 137 -27h29q22 1 36 2q100 7 133 7q59 0 140 -4q29 -1 77 -5l6 -112h-6q-5 18 -9 27q-12 28 -28 39q-10 6 -28 11q-6 1 -17 3l-65 1l-137 -1q-4 -34 -6 -54q-7 -69 -7 -100q0 -23 6 -56q2 -11 7 -31q11 2 18 2q44 5 69 5q19 0 36 -2t32 -5
q11 -2 17.5 0.5t14.5 15.5q3 4 11 42q1 6 4 17h12v-75v-48v-79h-12q-2 19 -3 29q-5 30 -12 38t-16.5 9.5t-15.5 2.5h-155q2 -29 4.5 -69t2.5 -61q0 -31 -2 -59t-5 -53q2 -5 5.5 -9.5t8.5 -9.5q8 -12 28 -12l100 -2l72 2q15 1 29.5 2t23.5 4t41 53q10 16 30 50h10zM504 315
q0 37 -2.5 88t-2.5 57l2 48q-32 53 -54 75q-45 45 -103 45q-79 0 -149 -117q-61 -101 -61 -173q0 -84 9 -115.5t37.5 -70.5t60.5 -61q41 -28 88 -28q61 0 110 27q34 19 63 53l-3 77q0 15 2.5 53t2.5 42z" />
    <glyph glyph-name="quoteleft" unicode="&#x2018;" horiz-adv-x="198" 
d="M158 529q-7 -13 -21 -20t-29 -7q-21 0 -36.5 9.5t-24 31.5t-8.5 38q0 6 2 10q3 4 -0.5 21.5t-1.5 27.5q4 24 4 25q5 19 21.5 35.5t58.5 21.5q7 0 19 2v-10q-14 -1 -22 -3q-25 -7 -34.5 -23t-14 -29t-4.5 -24q0 -9 3 -17l3 -11l7 3q8 5 25 5q22 0 37 -11q25 -18 25 -44
q0 -16 -9 -31z" />
    <glyph glyph-name="quoteright" unicode="&#x2019;" horiz-adv-x="198" 
d="M167 608q-4 -24 -4 -25q-5 -19 -21.5 -35.5t-58.5 -21.5q-7 0 -19 -2v10q14 1 22 3q25 7 36 26q17 26 17 50q0 8 -3 17l-3 11l-7 -3q-8 -5 -25 -5q-22 0 -37 11q-25 18 -25 44q0 16 8 30t22 21t29 7q21 0 36.5 -9.5t24 -31.5t8.5 -38q0 -6 -2 -10q-3 -4 0.5 -21.5
t1.5 -27.5z" />
    <glyph glyph-name="quotedblleft" unicode="&#x201c;" horiz-adv-x="368" 
d="M334 521q-7 -13 -21 -20t-29 -7q-21 0 -36.5 9.5t-24 31.5t-8.5 38q0 6 2 10q3 4 -0.5 21.5t-1.5 27.5q4 24 4 25q5 19 21.5 35.5t58.5 21.5q7 0 19 2v-10q-14 -1 -22 -3q-25 -7 -34.5 -23t-14 -29t-4.5 -24q0 -9 3 -17l3 -11l7 3q8 5 25 5q22 0 37 -11q25 -18 25 -44
q0 -16 -9 -31zM142 525q-7 -13 -21 -20t-29 -7q-21 0 -36.5 9.5t-24 31.5t-8.5 38q0 6 2 10q3 4 -0.5 21.5t-1.5 27.5q4 24 4 25q5 19 21.5 35.5t58.5 21.5q7 0 19 2v-10q-14 -1 -22 -3q-25 -7 -34.5 -23t-14 -29t-4.5 -24q0 -9 3 -17l3 -11l7 3q8 5 25 5q22 0 37 -11
q25 -18 25 -44q0 -16 -9 -31z" />
    <glyph glyph-name="quotedblright" unicode="&#x201d;" horiz-adv-x="388" 
d="M359 608q-4 -24 -4 -25q-5 -19 -21.5 -35.5t-58.5 -21.5q-7 0 -19 -2v10q14 1 22 3q25 7 36 26q17 26 17 50q0 8 -3 17l-3 11l-7 -3q-8 -5 -25 -5q-22 0 -37 11q-25 18 -25 44q0 16 8 30t22 21t29 7q21 0 36.5 -9.5t24 -31.5t8.5 -38q0 -6 -2 -10q-3 -4 0.5 -21.5
t1.5 -27.5zM167 608q-4 -24 -4 -25q-5 -19 -21.5 -35.5t-58.5 -21.5q-7 0 -19 -2v10q14 1 22 3q25 7 36 26q17 26 17 50q0 8 -3 17l-3 11l-7 -3q-8 -5 -25 -5q-22 0 -37 11q-25 18 -25 44q0 16 8 30t22 21t29 7q21 0 36.5 -9.5t24 -31.5t8.5 -38q0 -6 -2 -10
q-3 -4 0.5 -21.5t1.5 -27.5z" />
    <glyph glyph-name="bullet" unicode="&#x2022;" horiz-adv-x="306" 
d="M282 369l-84 -78l36 -102l-18 -9l-69 84l-54 -87l-21 6l27 108l-87 60l6 21l99 -33l18 117h15l24 -117l96 42z" />
    <glyph glyph-name="endash" unicode="&#x2013;" horiz-adv-x="548" 
d="M548 224l-548 8v48l548 -16v-40z" />
    <glyph glyph-name="emdash" unicode="&#x2014;" horiz-adv-x="1000" 
d="M1004 240l-1004 -4l-4 48l1008 8v-52z" />
    <glyph glyph-name="tilde" unicode="&#x2dc;" horiz-adv-x="454" 
d="M429 586q0 -50 -39.5 -80t-97.5 -30q-41 0 -84 25q-96 56 -130 56q-11 0 -27 -17q-21 -24 -41 -47q0 63 27 103.5t78 40.5q36 0 75 -24q88 -54 113 -54q57 0 93 45q12 15 25 46l5 -3q2 -14 2.5 -32t0.5 -29z" />
    <glyph glyph-name="trademark" unicode="&#x2122;" horiz-adv-x="684" 
d="M663 619q-13 0 -24 -9q-5 -3 -14 -17l-4 -14v-15v-28v-57l-2 -29l2 -42q0 -17 0.5 -34.5t4.5 -23.5t9.5 -8t12.5 -3v-8h-112v10q3 -1 17 0t17.5 5t3.5 18v19q1 16 1.5 30t0.5 40l-2 37l2 54l-5 43q-6 -25 -11 -40q-16 -38 -22 -55l-9 -19l-18 -47q-4 -11 -9 -20
q-16 -30 -18 -36l-10 -24h-8l-20 53q-4 10 -10 19.5t-10 20.5l-16 42q-13 29 -25 58l-16 46l-2 -39q0 -14 1 -37t1 -25l-2 -47l2 -74q0 -11 8 -17.5t20 -4.5v-9l-98 1l1 8l14 2q9 7 11 13t3 24.5t1 23.5v34l1 52l3 74q0 20 -1 30t-3.5 17t-4.5 9q-6 6 -20 8l-1 6l35 -1h34
l26 -2l7 -25l12 -36q7 -25 15 -49l14 -38l16 -40l15 -33l14 22t11 25l21 62l18 56q5 13 12 28t13 25l28 3l30 -1l39 -2v-9zM263 577l-5 -1q-4 16 -12.5 23t-21.5 9t-27 2h-39l-4 -51q0 -18 1 -48.5t1 -48.5q0 -7 -0.5 -16t-0.5 -20q0 -21 2.5 -40t9 -26.5t13.5 -9t23 -1.5
v-8l-56 1l-44 -1h-26v7l13 2q8 1 16.5 9.5t8.5 31.5l2 55v91l-1 73q-8 1 -18 1.5t-22 0.5q-11 -1 -16 -1q-11 -1 -16 -2t-8 -5q-8 -8 -18 -28l-7 1l4 54l54 2l75 -1h60l56 -2z" />
    <glyph glyph-name="scaron" unicode="&#x161;" horiz-adv-x="379" 
d="M357 130q0 -61 -51 -100q-47 -36 -111 -36q-19 0 -38 6q-32 11 -63 22q-4 1 -8.5 -4.5t-8.5 -9.5q-7 1 -12 2v142l10 4q20 -62 45 -91q35 -41 90 -41q37 0 59 13q27 16 27 48q0 27 -17.5 49t-63.5 46q-50 22 -99 45q-61 38 -61 105q0 52 45.5 88t107.5 36q17 0 40.5 -11
t40.5 -10q15 0 29 13q2 2 6 7h9l1 -74v-66h-14q-10 34 -21 51q-33 52 -90 52q-35 0 -64.5 -18t-29.5 -48q0 -23 22 -44q15 -15 46 -31q48 -23 97 -46q27 -16 48 -40q29 -32 29 -59zM364 668l-124 -144l-78 -2l-94 142l24 4l104 -84l144 92z" />
    <glyph glyph-name="guilsinglright" unicode="&#x203a;" horiz-adv-x="328" 
d="M298 258l-208 -244h-48l156 249l-140 235h32z" />
    <glyph glyph-name="oe" unicode="&#x153;" horiz-adv-x="654" 
d="M636 141q-3 -10 -6 -17q-17 -42 -45 -80q-18 -24 -56 -35q-24 -7 -46 -7q-31 0 -67.5 16.5t-54.5 37.5q-5 6 -14 20t-18 31q-22 -45 -60 -71.5t-89 -26.5q-75 0 -125 56t-50 130q-1 6 -1 12.5v10.5q0 71 38.5 126t107.5 64q7 1 20 1q44 0 81 -22.5t63 -61.5q10 27 29 47
q13 15 29 25.5t51 28.5q9 5 31.5 9.5t42.5 4.5q28 0 76 -44q55 -51 55 -102l1 -23l-256 -1q-1 -7 -1 -18v-29q0 -53 31 -102q39 -62 100 -62q14 0 34 5q42 12 68 52q8 13 18 39zM549 298q0 12 -1 24t-8 26q-12 23 -35 38t-48 15q-20 0 -34 -16q-2 -3 -19 -26
q-25 -34 -31 -63zM271 215q0 66 -24 113q-29 56 -80 56q-8 -1 -12 -1q-39 -5 -54.5 -37.5t-15.5 -82.5q0 -15 0.5 -24.5t3.5 -37.5q9 -91 35 -125q23 -30 64 -30t62 35t21 134z" />
    <glyph glyph-name="Ydieresis" unicode="&#x178;" horiz-adv-x="635" 
d="M607 634q-10 -3 -24 -9q-22 -10 -33 -22q-21 -22 -48 -63l-28 -42l-79 -116l-54 -74v-52l-1 -167q0 -26 22 -43q15 -11 40 -19q8 -2 21 -6l2 -18l-90 1l-137 -1h-49v18q28 7 41 14q41 21 41 53v92v88l2 52q-8 25 -25 58q-21 42 -27 58q-10 30 -45 79q-30 40 -59 81
q-14 21 -38 31q-8 3 -23 6l1 12l117 1l103 -1l1 -13q-17 -4 -26 -6q-27 -8 -32 -18q-7 -14 26 -54q22 -26 25 -35t52 -102q20 -39 24 -59q3 0 34.5 37.5t61.5 73.5q43 56 65 87.5t19 43.5q-4 16 -26 22q-4 1 -12 2q0 14 1 18l71 2l30 -2l55 1zM450 782q10 -13 10 -30
q0 -25 -20 -40q-13 -10 -30 -10q-25 0 -40 20q-10 13 -10 30q0 25 20 40q13 10 30 10q25 0 40 -20zM296 720q-14 -21 -41 -21q-15 0 -27 9q-21 14 -21 41q0 15 9 27q14 21 41 21q15 0 27 -9q21 -14 21 -41q0 -15 -9 -27z" />
    <glyph glyph-name="exclamdown" unicode="&#xa1;" horiz-adv-x="239" 
d="M161 677q8 -13 8 -26q0 -22 -19 -35q-13 -8 -26 -8q-22 0 -35 19q-8 13 -8 26q0 22 19 35q13 8 26 8q22 0 35 -19zM173 132q0 -112 -55 -112q-28 0 -36.5 24.5t-8.5 87.5q0 45 6.5 93t13.5 95q4 46 14 129q3 28 10 77h12q5 -35 11 -89t13 -113q11 -64 15.5 -100t4.5 -92z
" />
    <glyph glyph-name="cent" unicode="&#xa2;" horiz-adv-x="381" 
d="M353 136q-4 -16 -8 -27q-13 -34 -36 -65q-18 -24 -56 -35q-24 -7 -46 -7q-6 0 -17 2t-18 4l-16 -78l-12 -98h-36l29 184q-31 14 -44.5 23t-20.5 17q-13 14 -30 60.5t-17 65.5q0 13 -0.5 26t-0.5 26q0 44 8.5 76t34.5 62q13 15 29 25.5t51 28.5q12 6 31.5 12t35.5 6l14 56
l20 76l40 8q-4 -24 -12 -55q-12 -45 -24 -89q8 -2 18.5 -7.5t20.5 -12.5q27 -19 38 -30q20 -20 20 -36q0 -11 -12 -21.5t-28 -10.5t-22 12q-16 32 -23 44q-10 11 -19 23q-7 -51 -25 -139q-24 -113 -28 -138l-10 -48q-1 -7 14.5 -11t36.5 -4q16 0 28 3q42 12 71 57
q9 15 21 43v-28zM214 409q-46 -15 -75 -55q-16 -23 -20 -37.5t-4 -48.5v-30q0 -26 10 -65t27 -68l32 171q8 44 14.5 71.5t15.5 61.5z" />
    <glyph glyph-name="sterling" unicode="&#xa3;" horiz-adv-x="491" 
d="M464 167q0 -65 -28 -96q-36 -39 -124 -39q-45 0 -91 30q-15 10 -37 30q0 -21 -2 -31q-6 -32 -29 -38t-43 -6q-16 0 -28.5 5t-20.5 16.5t-10.5 25.5t-2.5 28q0 37 10 54.5t38 17.5h56v14q0 9 -0.5 22t-2.5 26.5t-7 29.5t-6 24q-4 21 -4 42q0 11 2 39t2 35v5l-88 -1l-4 36
l88 3q-3 20 -3 38q0 14 3 31q9 50 17 67t27 37q50 56 124 56q67 0 114 -42q41 -36 41 -72q0 -30 -31 -26q-27 4 -51.5 56t-68.5 52q-67 0 -89 -33q-15 -23 -15 -85v-38l1 -39l91 3l12 -40l-94 -1l2 -43q0 -36 -3 -74q-9 -113 -9 -122t24.5 -24t47.5 -24q15 -6 31 -10t30 -4
q15 0 33 3t54 33q12 10 32 30zM152 116q-4 2 -6 2q-16 5 -28 5q-14 0 -22 -7q-12 -12 -12 -29q0 -15 10.5 -26t27.5 -11q16 0 25.5 9t9.5 27q0 11 -1 17.5t-4 12.5z" />
    <glyph glyph-name="currency" unicode="&#xa4;" horiz-adv-x="488" 
d="M464 348q0 -45 -19.5 -85.5t-53.5 -71.5l45 -51l-28 -32l-51 58q-51 -30 -117 -30q-34 0 -64 10.5t-58 30.5l-50 -57l-28 32l46 53q-58 64 -58 155q0 37 13.5 71.5t37.5 62.5l-47 54l28 32l49 -56q62 48 143 48q36 0 69.5 -12.5t60.5 -35.5l50 56l28 -32l-47 -54
q51 -60 51 -146zM420 348q0 75 -49.5 129.5t-122.5 54.5q-75 0 -129.5 -49.5t-54.5 -122.5q0 -75 49.5 -129.5t122.5 -54.5q75 0 129.5 49.5t54.5 122.5z" />
    <glyph glyph-name="yen" unicode="&#xa5;" horiz-adv-x="635" 
d="M607 634q-10 -3 -24 -9q-22 -10 -33 -22q-21 -22 -48 -63l-28 -42l-79 -116l-37 -52l150 2v-48l-167 3v-31v-52h163l2 -48l-166 2v-69q0 -26 22 -43q15 -11 40 -19q8 -2 21 -6l2 -18l-90 1l-137 -1h-49v18q28 7 41 14q41 21 41 53v71l-161 1l2 44h159v64l1 21l-152 3
l4 36l146 1q-25 53 -49 107q-10 30 -45 79q-30 40 -59 81q-14 21 -38 31q-8 3 -23 6l1 12l117 1l103 -1l1 -13q-17 -4 -26 -6q-27 -8 -32 -18q-7 -14 26 -54q22 -26 25 -35t52 -102q20 -39 24 -59q3 0 34.5 37.5t61.5 73.5q43 56 65 87.5t19 43.5q-4 16 -26 22q-4 1 -12 2
q0 14 1 18l71 2l30 -2l55 1z" />
    <glyph glyph-name="brokenbar" unicode="&#xa6;" horiz-adv-x="284" 
d="M164 249l-48 -1v428l48 5v-432zM168 -143l-52 -1l-1 240l52 1z" />
    <glyph glyph-name="section" unicode="&#xa7;" horiz-adv-x="427" 
d="M384 242q4 -13 4 -30q0 -48 -36 -93q-21 -27 -66 -61q30 -25 42 -46.5t12 -41.5q0 -73 -32 -113q-36 -45 -108 -45q-53 0 -81.5 12.5t-50.5 49.5q-8 10 -12 15.5t-4 26.5q0 24 5.5 39t26.5 15q22 0 42 -14.5t14 -33.5q-3 -8 -4 -16.5t-1 -13.5q0 -29 22.5 -44.5
t52.5 -15.5h10q7 2 10 2q27 5 44.5 25.5t17.5 48.5q0 26 -27 56q-16 18 -49 44q-71 56 -96 81q-56 55 -68 105q-4 13 -4 30q0 35 19 70q24 45 76 85q-22 18 -33 37q-14 23 -14 50q0 73 32 113q36 45 108 45q53 0 81.5 -12.5t50.5 -49.5q8 -10 12 -15.5t4 -26.5q0 -24 -4 -35
q-7 -19 -28 -19q-22 0 -42 14.5t-14 33.5q3 8 3.5 16.5t1.5 13.5q0 29 -22.5 44.5t-52.5 15.5h-10q-7 -2 -10 -2q-27 -5 -44.5 -25.5t-17.5 -48.5q0 -26 27 -56q16 -18 49 -44q71 -56 96 -81q56 -55 68 -105zM320 128q3 11 4 27.5t1 17.5q0 49 -32 88q-19 23 -73 65
q-12 10 -26 18.5t-29 18.5q-24 -18 -30 -24q-15 -15 -18.5 -28.5t-4.5 -30t-1 -17.5q0 -49 32 -88q19 -23 73 -65q3 -2 28 -19q12 -8 31 -22q18 14 29.5 28t15.5 31z" />
    <glyph glyph-name="dieresis" unicode="&#xa8;" 
d="M274 546q10 -13 10 -30q0 -25 -20 -40q-13 -10 -30 -10q-25 0 -40 20q-10 13 -10 30q0 25 20 40q13 10 30 10q25 0 40 -20zM120 484q-14 -21 -41 -21q-15 0 -27 9q-21 14 -21 41q0 15 9 27q14 21 41 21q15 0 27 -9q21 -14 21 -41q0 -15 -9 -27z" />
    <glyph glyph-name="copyright" unicode="&#xa9;" horiz-adv-x="732" 
d="M716 372q0 -144 -103 -246t-249 -102q-144 0 -246 103t-102 249q0 144 103 246t249 102q144 0 246 -103t102 -249zM664 368q0 124 -86 213t-208 89q-124 0 -213 -86t-89 -208q0 -124 86 -213t208 -89q124 0 213 86t89 208zM546 239q-32 -49 -73 -73t-99 -24
q-12 -1 -21.5 0.5t-48.5 12t-72 32.5t-55 57q-32 50 -32 114q0 49 6 81.5t26 59.5q9 12 21 21q18 11 27 17q16 10 34 20.5t34.5 16.5t33.5 10t34 4q8 1 27.5 0t27 -2t39.5 -14q18 -7 22 -7h11q2 1 4 8l9 22h11l7 -105h-9q-16 23 -29 34q-39 34 -92 34h-13q-9 -2 -19.5 -3
t-26.5 -8t-33 -18q-49 -30 -68 -78q-8 -20 -9 -49t-1 -41q0 -34 5.5 -61.5t19.5 -51.5q21 -34 54 -55t73 -21q6 -1 11 -1h10q24 0 41.5 5.5t35.5 16t36 24.5q8 6 35 30z" />
    <glyph glyph-name="ordfeminine" unicode="&#xaa;" horiz-adv-x="218" 
d="M204 453q-5 -10 -18 -18.5t-27 -8.5q-24 0 -33 34q-17 -10 -26 -15q-31 -16 -48 -16q-21 0 -33 17t-12 39q0 31 31 58q22 19 54 32q5 3 22 8q2 0 7 2l2 16q0 17 -8.5 32t-25.5 15q-23 0 -32 -11.5t-9 -27.5v-9q0 -26 -23 -21q-7 1 -9.5 5.5t-2.5 22.5q0 24 20 38
q9 6 35 16q11 3 17 3q7 0 23 -5t24.5 -14t17.5 -25q5 -8 7 -21.5t2 -24.5v-13v-44v-43q1 -5 6.5 -12.5t11.5 -7.5q5 0 12.5 3.5t14.5 7.5q1 -9 0 -12zM126 477l-1 49v11v17.5t-1 15.5l-9 -3q-28 -12 -44 -24q-30 -23 -30 -54q0 -16 7.5 -22.5t20.5 -6.5q12 0 23 3q9 1 21 7
q4 2 13 7z" />
    <glyph glyph-name="guillemotleft" unicode="&#xab;" horiz-adv-x="500" 
d="M286 14h-48l-208 244l208 240h32l-140 -235zM494 10h-48l-208 244l208 240h32l-140 -235z" />
    <glyph glyph-name="logicalnot" unicode="&#xac;" horiz-adv-x="664" 
d="M637 184h-45v212h-584v44h627z" />
    <glyph glyph-name="minus" unicode="&#xad;" horiz-adv-x="468" 
d="M382 221l-296 4l3 86l289 4z" />
    <glyph glyph-name="registered" unicode="&#xae;" horiz-adv-x="808" 
d="M790 336q-21 -147 -133.5 -243.5t-259.5 -96.5h-35q-15 3 -22 4q-147 21 -243.5 133.5t-96.5 258.5v35q3 16 4 23q21 148 133.5 244.5t259.5 96.5h24t33 -4q147 -22 243.5 -134.5t96.5 -259.5v-35q-3 -15 -4 -22zM741 359q1 12 1.5 21.5t0.5 15.5q0 130 -88.5 228.5
t-219.5 112.5q-9 1 -17 1.5t-20 0.5q-130 0 -228.5 -88.5t-112.5 -219.5q-1 -12 -1.5 -21.5t-0.5 -15.5q0 -130 88.5 -228.5t219.5 -112.5q9 -1 17 -1.5t20 -0.5q130 0 228.5 88.5t112.5 219.5zM625 172l-141 3l-27 57l-32 65l-25 52l-34 68h-46v-48l-1 -72l1 -90
q0 -7 8 -14q4 -4 10 -7t28 -3v-8h-156v11q12 0 24 10t12 13q0 40 1 66q5 130 5 142v63v62l1 52q-9 20 -22 28.5t-28 8.5v10t2 7h29h54h29h44q21 0 41 -0.5t50 -5.5t52 -25q15 -12 22.5 -31t7.5 -48q0 -17 -13 -41t-30 -40l-30 -17q-11 -6 -27 -10q-2 0 -6 -2l46 -91l31 -62
l37 -63q8 -7 20 -12.5t22.5 -7.5t22.5 -4t18 -2v-14zM465 531q0 40 -24 64q-14 14 -35 20q-9 1 -17 2.5t-21 1.5q-22 0 -32 -3t-16 -5l-1 -20l1 -50v-38q0 -13 -0.5 -23.5t-0.5 -18.5q0 -16 1 -23q11 -1 17 -1q20 0 33.5 1.5t24.5 7.5q16 4 30 15q10 6 16.5 13t14.5 17
q9 18 9 40z" />
    <glyph glyph-name="macron" unicode="&#xaf;" horiz-adv-x="576" 
d="M572 652l-572 -4l4 48l568 -4v-40z" />
    <glyph glyph-name="degree" unicode="&#xb0;" horiz-adv-x="291" 
d="M269 554q0 -50 -36 -83t-87 -33q-50 0 -83.5 35.5t-33.5 87.5q0 49 36 83t87 34q49 0 83 -37t34 -87zM230 561q0 38 -26.5 64.5t-64.5 26.5t-64.5 -26.5t-26.5 -64.5q0 -39 26 -65t65 -26t65 26t26 65z" />
    <glyph glyph-name="plusminus" unicode="&#xb1;" horiz-adv-x="540" 
d="M512 364h-220l1 -73v-25v-20v-17v-14v-12q0 -19 -0.5 -38.5t-0.5 -39.5v-13h-36l-2 252h-54h-176l4 36h88h138l-2 236h40v-144v-92l103 -2l117 2v-36zM535.392 65l-0.799805 -33h-521.592v32z" />
    <glyph glyph-name="twosuperior" unicode="&#xb2;" horiz-adv-x="244" 
d="M226 453q-10 -17 -15 -26q-16 -27 -21 -30l-79 -2l-75 3l12 14q40 37 46 45q15 11 27 22q43 41 43 97q0 34 -14.5 54.5t-38.5 20.5q-39 0 -58 -24q-6 -8 -11 -24l-12 3q2 11 4 17q6 20 14.5 30.5t31.5 22.5t44 12q10 0 22 -5q25 -11 40 -30.5t15 -46.5q0 -25 -7.5 -46.5
t-24.5 -48.5q-23 -34 -56 -62q-11 -9 -31 -23q24 1 50.5 1.5t41.5 0.5t40 16q4 2 12 9z" />
    <glyph glyph-name="threesuperior" unicode="&#xb3;" horiz-adv-x="212" 
d="M181 648q0 -30 -27 -59q-9 -9 -27 -23q17 -15 25 -23q26 -27 26 -41q0 -72 -31 -101q-26 -24 -76 -24q-12 0 -20.5 0.5t-20.5 6.5t-12 19q0 8 4.5 13t11.5 5q11 0 21 -10q5 -5 10 -9q11 -9 28 -9q20 2 37 23q14 17 14 40q0 51 -44 77q-14 8 -45 16q27 12 40 20
q41 27 41 59q0 21 -6 30q-10 15 -41 15q-12 0 -36 -16q-8 -5 -22 -16l-2 3q9 19 17 28q26 28 69 28q24 0 45 -15t21 -37z" />
    <glyph glyph-name="acute" unicode="&#xb4;" 
d="M280 624l-116 -156l-36 4l48 152h104z" />
    <glyph glyph-name="mu" unicode="&#xb5;" horiz-adv-x="445" 
d="M441 96q0 -66 -19 -86q-9 -9 -31 -9q-16 0 -27.5 3t-16 6.5t-12.5 12t-12.5 17.5t-5 16.5t-0.5 15.5q-17 -21 -25 -30q-15 -18 -30 -24q-7 -3 -36.5 -9t-34.5 -6q-21 0 -50 7.5t-41 18.5l-8 4q20 -68 23 -79q10 -41 10 -78q0 -30 -15.5 -50.5t-35.5 -20.5t-31 16.5
t-11 58.5q0 32 15 121q8 47 8 74l-1 45v5l-1 21l2 135v22t1 26q0 20 -2.5 38.5t-7.5 30.5q-8 16 -27 20q-3 0 -9 1l1 12h56h52l-1 -99l1 -132q0 -10 -1 -28t-1 -26v-13q2 -9 2 -14q6 -36 28.5 -56.5t67.5 -20.5q37 0 62.5 15t36.5 47q5 16 5 36q0 10 -0.5 20.5t-0.5 22.5
v143v18q0 26 -1.5 39t-9 20.5t-25.5 12.5q-6 1 -17 3v13h66h49l2 -102v-174q0 -6 -1 -23.5t-1 -27.5q0 -14 1 -24.5t5 -17.5q9 -20 19 -20q9 0 18 22q17 43 16 44q2 -3 2 -13z" />
    <glyph glyph-name="paragraph" unicode="&#xb6;" horiz-adv-x="469" 
d="M415 695l-5 -43h-48v-66.5t1 -82.5l4 -96v-136v-104l4 -260l4 -32v-60l-42 2v601l-1 228h-75l1 -830h-38l-4 516q-90 0 -138 37q-54 42 -54 127q0 60 21 98t111 94q9 5 30 5q11 0 24 -0.5t28 -0.5q69 0 105.5 0.5t71.5 2.5z" />
    <glyph glyph-name="periodcentered" unicode="&#xb7;" horiz-adv-x="210" 
d="M146 261q-14 -21 -41 -21q-16 0 -27 8q-21 14 -21 41q0 15 9 27q14 21 41 21q15 0 27 -9q21 -15 21 -40q0 -15 -9 -27z" />
    <glyph glyph-name="periodcentered" unicode="&#x2219;" horiz-adv-x="210" 
d="M146 261q-14 -21 -41 -21q-16 0 -27 8q-21 14 -21 41q0 15 9 27q14 21 41 21q15 0 27 -9q21 -15 21 -40q0 -15 -9 -27z" />
    <glyph glyph-name="cedilla" unicode="&#xb8;" horiz-adv-x="264" 
d="M200 -104q0 -22 -17.5 -41.5t-32 -25.5t-24.5 -7.5t-26 -1.5h-18h-32v16h14q25 0 31.5 1t20.5 7q28 12 28 41q0 12 -5.5 22t-17 13.5t-26.5 3.5q-9 0 -15.5 -0.5t-11.5 -1.5q10 15 27 45q22 38 27 47q13 -7 28 -8q-8 -9 -15 -18.5t-13 -19.5q33 0 57 -26q21 -23 21 -46z
" />
    <glyph glyph-name="onesuperior" unicode="&#xb9;" horiz-adv-x="153" 
d="M128 410l-63 -2h-32v4q18 0 23.5 11t5.5 29q0 31 -2 81t-2 82v29l-2 18q-3 5 -20 -2l-8 -4l-5 10l68 38v-40l2 -212q0 -21 5.5 -29.5t29.5 -8.5v-4z" />
    <glyph glyph-name="ordmasculine" unicode="&#xba;" horiz-adv-x="213" 
d="M200 574q1 -10 1.5 -17.5t0.5 -12.5q0 -60 -22 -101q-25 -47 -67 -47q-8 0 -12 1q-42 8 -64.5 50.5t-22.5 99.5q0 70 17 113q22 57 69 57q45 0 71 -44q22 -37 29 -99zM156 564q0 63 -5 87q-10 47 -43 47q-32 0 -43 -46q-7 -30 -7 -92v-29q0 -67 12.5 -89t38.5 -22
q29 0 40 25q8 19 8 64q0 13 -0.5 26.5t-0.5 28.5z" />
    <glyph glyph-name="guillemotright" unicode="&#xbb;" horiz-adv-x="508" 
d="M286 258l-208 -244h-48l156 249l-140 235h32zM474 258l-208 -244h-48l156 249l-140 235h32z" />
    <glyph glyph-name="onequarter" unicode="&#xbc;" horiz-adv-x="680" 
d="M282 389l-69 -2h-35v4q20 0 26.5 12t4.5 32q0 34 -2 89t-2 91v31v11q0 6 -2 9q-3 5 -17 0q-4 -1 -14 -6l-5 11l74 41v-23.5v-20.5l3 -233q0 -22 6.5 -32t31.5 -10v-4zM574 132h-35v-36v-48l-17 1q-10 -3 -21 -4l-1 87l-91 -2h-54q3 16 2 22.5t-1 9.5q16 19 82 129
q22 36 64 107l33 2l-1 -51l2 -178h36q-1 -5 0 -15.5t2 -23.5zM628 600l-532 -532h-52l532 532h52zM502 356l-117 -187l115 2z" />
    <glyph glyph-name="onehalf" unicode="&#xbd;" horiz-adv-x="668" 
d="M270 401l-69 -2h-35v4q20 0 26.5 12t4.5 32q0 34 -2 89t-2 91v31v11q0 6 -2 9q-3 5 -17 0q-4 -1 -14 -6l-5 11l74 41v-23.5v-20.5l3 -233q0 -22 6.5 -32t31.5 -10v-4zM613 90q-11 -20 -17 -29q-18 -30 -23 -33l-87 -2q-21 0 -43 1t-40 3q6 7 13 15q43 39 51 49
q21 20 43 40q34 40 34 91q0 38 -16 60.5t-42 22.5q-42 0 -63 -26q-7 -8 -13 -27l-13 3q2 12 4 19q6 22 17 34q9 12 34 25t48 13q13 0 25 -6q26 -11 43 -33t17 -52q0 -27 -8.5 -51t-26.5 -53q-24 -36 -62 -68q-12 -11 -34 -26q26 1 48 1.5t53 1.5q16 0 45 18q5 3 13 9z
M616 612l-540 -540h-52l540 540h52z" />
    <glyph glyph-name="threequarters" unicode="&#xbe;" horiz-adv-x="612" 
d="M290 688q0 -33 -29 -65q-9 -10 -30 -26q19 -17 28 -26q28 -29 28 -44q0 -78 -35 -111q-29 -27 -83 -27q-18 0 -26.5 1t-20.5 8t-12 21q0 5 5.5 11.5t13.5 6.5q14 0 21.5 -8.5t16 -15t26.5 -6.5q21 2 40 25q16 19 16 44q0 56 -49 85q-16 9 -49 18q30 12 45 21q45 29 45 66
q0 30 -12.5 39.5t-39.5 9.5q-14 0 -40 -17q-8 -5 -24 -18l-2 3q10 21 19 31q29 31 76 31q26 0 49 -16.5t23 -40.5zM584 612l-508 -508h-52l508 508h52zM530 140h-35v-36v-48l-17 1q-10 -3 -21 -4l-1 87l-91 -2h-54q3 16 2 22.5t-1 9.5q16 19 82 129q22 36 64 107l33 2
l-1 -51l2 -178h36q-1 -5 0 -15.5t2 -23.5zM458 364l-117 -187l115 2z" />
    <glyph glyph-name="questiondown" unicode="&#xbf;" horiz-adv-x="437" 
d="M263 612q-14 -18 -37 -18q-16 0 -27 10q-18 14 -18 37q0 16 10 27q14 18 37 18q16 0 27 -10q18 -14 18 -37q0 -16 -10 -27zM420 172q0 -63 -51 -106q-43 -36 -117 -54q-18 -4 -30.5 -6t-26.5 -2q-22 0 -47 7q-62 18 -97 60.5t-35 109.5q0 41 12.5 80.5t35.5 65.5l76 88
q29 28 49 60q26 41 26 73h28v-11q0 -11 -1 -21.5t-4.5 -18.5t-78.5 -117q-47 -68 -47 -181q0 -75 16 -108q21 -43 79 -43q50 0 96 30q53 34 53 82q0 14 -21 24q-52 25 -59 64q-2 10 11 27.5t25.5 23t27.5 5.5h16q21 0 44 -57q20 -50 20 -75z" />
    <glyph glyph-name="Agrave" unicode="&#xc0;" horiz-adv-x="610" 
d="M585 5h-190v11q10 2 15 4q15 8 15 30l-23 88q-11 40 -32 100q-3 10 -10 27q-23 0 -46 -0.5t-56 -0.5l-43 1q-6 -13 -9 -20q-11 -25 -14 -35q-8 -31 -15 -51q-10 -28 -20.5 -49.5t-19.5 -42.5q-3 -7 -7 -17q0 -21 17 -30q5 -2 18 -4v-11h-140v11q15 -1 23 0q26 6 37 34
l23 61q22 63 45 126q6 18 21 51q32 75 36 84l33 93l24 96q14 41 26 63q2 4 7 11h46l20 -50l28 -72q10 -27 17 -48q3 -8 16 -61q2 -10 11 -38l45 -151l27 -89l20 -76q3 -21 29 -30q8 -2 26 -4v-11zM355 295l-22 83l-33 112q-7 -21 -10 -33q-12 -37 -20 -61t-25 -65
q-5 -13 -15 -36q20 0 40.5 -0.5t50.5 -0.5zM154 184v800h700v-800h-700zM804 234v700h-600v-700h600z" />
    <glyph glyph-name="Aacute" unicode="&#xc1;" horiz-adv-x="610" 
d="M585 5h-190v11q10 2 15 4q15 8 15 30l-23 88q-11 40 -32 100q-3 10 -10 27q-23 0 -46 -0.5t-56 -0.5l-43 1q-6 -13 -9 -20q-11 -25 -14 -35q-8 -31 -15 -51q-10 -28 -20.5 -49.5t-19.5 -42.5q-3 -7 -7 -17q0 -21 17 -30q5 -2 18 -4v-11h-140v11q15 -1 23 0q26 6 37 34
l23 61q22 63 45 126q6 18 21 51q32 75 36 84l33 93l24 96q14 41 26 63q2 4 7 11h46l20 -50l28 -72q10 -27 17 -48q3 -8 16 -61q2 -10 11 -38l45 -151l27 -89l20 -76q3 -21 29 -30q8 -2 26 -4v-11zM355 295l-22 83l-33 112q-7 -21 -10 -33q-12 -37 -20 -61t-25 -65
q-5 -13 -15 -36q20 0 40.5 -0.5t50.5 -0.5zM444 800l-116 -156l-36 4l48 152h104z" />
    <glyph glyph-name="Acircumflex" unicode="&#xc2;" horiz-adv-x="610" 
d="M585 5h-190v11q10 2 15 4q15 8 15 30l-23 88q-11 40 -32 100q-3 10 -10 27q-23 0 -46 -0.5t-56 -0.5l-43 1q-6 -13 -9 -20q-11 -25 -14 -35q-8 -31 -15 -51q-10 -28 -20.5 -49.5t-19.5 -42.5q-3 -7 -7 -17q0 -21 17 -30q5 -2 18 -4v-11h-140v11q15 -1 23 0q26 6 37 34
l23 61q22 63 45 126q6 18 21 51q32 75 36 84l33 93l24 96q14 41 26 63q2 4 7 11h46l20 -50l28 -72q10 -27 17 -48q3 -8 16 -61q2 -10 11 -38l45 -151l27 -89l20 -76q3 -21 29 -30q8 -2 26 -4v-11zM355 295l-22 83l-33 112q-7 -21 -10 -33q-12 -37 -20 -61t-25 -65
q-5 -13 -15 -36q20 0 40.5 -0.5t50.5 -0.5zM488 644l-24 -8l-144 92l-104 -84l-24 4l94 142l78 -2z" />
    <glyph glyph-name="Atilde" unicode="&#xc3;" horiz-adv-x="610" 
d="M585 5h-190v11q10 2 15 4q15 8 15 30l-23 88q-11 40 -32 100q-3 10 -10 27q-23 0 -46 -0.5t-56 -0.5l-43 1q-6 -13 -9 -20q-11 -25 -14 -35q-8 -31 -15 -51q-10 -28 -20.5 -49.5t-19.5 -42.5q-3 -7 -7 -17q0 -21 17 -30q5 -2 18 -4v-11h-140v11q15 -1 23 0q26 6 37 34
l23 61q22 63 45 126q6 18 21 51q32 75 36 84l33 93l24 96q14 41 26 63q2 4 7 11h46l20 -50l28 -72q10 -27 17 -48q3 -8 16 -61q2 -10 11 -38l45 -151l27 -89l20 -76q3 -21 29 -30q8 -2 26 -4v-11zM355 295l-22 83l-33 112q-7 -21 -10 -33q-12 -37 -20 -61t-25 -65
q-5 -13 -15 -36q20 0 40.5 -0.5t50.5 -0.5zM541 790q0 -50 -39.5 -80t-97.5 -30q-41 0 -84 25q-96 56 -130 56q-11 0 -27 -17q-21 -24 -41 -47q0 63 27 103.5t78 40.5q36 0 75 -24q88 -54 113 -54q57 0 93 45q12 15 25 46l5 -3q2 -14 2.5 -32t0.5 -29z" />
    <glyph glyph-name="Adieresis" unicode="&#xc4;" horiz-adv-x="610" 
d="M585 5h-190v11q10 2 15 4q15 8 15 30l-23 88q-11 40 -32 100q-3 10 -10 27q-23 0 -46 -0.5t-56 -0.5l-43 1q-6 -13 -9 -20q-11 -25 -14 -35q-8 -31 -15 -51q-10 -28 -20.5 -49.5t-19.5 -42.5q-3 -7 -7 -17q0 -21 17 -30q5 -2 18 -4v-11h-140v11q15 -1 23 0q26 6 37 34
l23 61q22 63 45 126q6 18 21 51q32 75 36 84l33 93l24 96q14 41 26 63q2 4 7 11h46l20 -50l28 -72q10 -27 17 -48q3 -8 16 -61q2 -10 11 -38l45 -151l27 -89l20 -76q3 -21 29 -30q8 -2 26 -4v-11zM355 295l-22 83l-33 112q-7 -21 -10 -33q-12 -37 -20 -61t-25 -65
q-5 -13 -15 -36q20 0 40.5 -0.5t50.5 -0.5zM442 750q10 -13 10 -30q0 -25 -20 -40q-13 -10 -30 -10q-25 0 -40 20q-10 13 -10 30q0 25 20 40q13 10 30 10q25 0 40 -20zM288 688q-14 -21 -41 -21q-15 0 -27 9q-21 14 -21 41q0 15 9 27q14 21 41 21q15 0 27 -9q21 -14 21 -41
q0 -15 -9 -27z" />
    <glyph glyph-name="Aring" unicode="&#xc5;" horiz-adv-x="610" 
d="M585 5h-190v11q10 2 15 4q15 8 15 30l-23 88q-11 40 -32 100q-3 10 -10 27q-23 0 -46 -0.5t-56 -0.5l-43 1q-6 -13 -9 -20q-11 -25 -14 -35q-8 -31 -15 -51q-10 -28 -20.5 -49.5t-19.5 -42.5q-3 -7 -7 -17q0 -21 17 -30q5 -2 18 -4v-11h-140v11q15 -1 23 0q26 6 37 34
l23 61q22 63 45 126q6 18 21 51q32 75 36 84l33 93l24 96q14 41 26 63q2 4 7 11h46l20 -50l28 -72q10 -27 17 -48q3 -8 16 -61q2 -10 11 -38l45 -151l27 -89l20 -76q3 -21 29 -30q8 -2 26 -4v-11zM355 295l-22 83l-33 112q-7 -21 -10 -33q-12 -37 -20 -61t-25 -65
q-5 -13 -15 -36q20 0 40.5 -0.5t50.5 -0.5zM445 710q0 -50 -36 -83t-87 -33q-50 0 -83.5 35.5t-33.5 87.5q0 49 36 83t87 34q49 0 83 -37t34 -87zM406 717q0 38 -26.5 64.5t-64.5 26.5t-64.5 -26.5t-26.5 -64.5q0 -39 26 -65t65 -26t65 26t26 65z" />
    <glyph glyph-name="AE" unicode="&#xc6;" horiz-adv-x="840" 
d="M819 158l-42 -152q-6 2 -10 3q-30 8 -69 8q-20 0 -54 -3q-80 -7 -101 -7q-14 0 -46.5 2.5t-33.5 2.5l-94 -6h-80v18q8 0 25 1t32 13q8 6 16 23q2 5 7 15q-1 10 -1 18q-5 63 -5 118l3 52h-108l-43 1q-6 -13 -9 -20q-11 -25 -14 -35q-8 -31 -15 -51q-10 -28 -20.5 -49.5
t-19.5 -42.5q-3 -7 -7 -17q0 -21 17 -30q5 -2 18 -4v-11h-140v11q15 -1 23 0q26 6 37 34l23 61q22 63 45 126q6 18 21 51q32 75 36 84l33 93l24 96q2 5 2 15q0 24 -26 44q-8 6 -27 16v6l153 1q22 1 36 2q100 7 133 7q59 0 140 -4q29 -1 77 -5l6 -112h-6q-5 18 -9 27
q-12 28 -28 39q-10 6 -28 11q-6 1 -17 3l-65 1l-137 -1q-4 -34 -6 -54q-7 -69 -7 -100q0 -23 6 -56q2 -11 7 -31q11 2 18 2q44 5 69 5q19 0 36 -2t32 -5q11 -2 17.5 0.5t14.5 15.5q3 4 11 42q1 6 4 17h12v-75v-48v-79h-12q-2 19 -3 29q-5 30 -12 38t-16.5 9.5t-15.5 2.5
h-155q2 -29 4.5 -69t2.5 -61q0 -31 -2 -59t-5 -53q2 -5 5.5 -9.5t8.5 -9.5q8 -12 28 -12l100 -2l72 2q15 1 29.5 2t23.5 4t41 53q10 16 30 50h10zM369 577q-2 7 -4 10q-5 9 -13 18l-52 -115q-7 -21 -10 -33q-12 -37 -20 -61t-25 -65q-5 -13 -15 -36q28 0 59.5 -0.5
t78.5 -0.5v13q0 37 -2.5 88t-2.5 57z" />
    <glyph glyph-name="Ccedilla" unicode="&#xc7;" horiz-adv-x="590" 
d="M563 148q-42 -64 -98 -97t-132 -33q-17 0 -32 2.5t-63.5 15.5t-93.5 43t-74 76q-42 68 -42 151q0 63 8.5 108.5t33.5 80.5q10 14 31.5 28t33.5 22q21 13 44 27.5t47 23t45 13t47 4.5q17 0 37.5 -0.5t40.5 -3.5q5 0 35.5 -13t39.5 -13h14q2 1 5 10q4 7 10 23q0 2 2 6h15
l10 -140h-13q-12 18 -21 28q-58 63 -142 63q-22 0 -39.5 -2.5t-40.5 -12.5q-13 -6 -43 -24.5t-52.5 -44t-35.5 -59.5q-8 -22 -10.5 -52t-2.5 -68q0 -42 7.5 -81t25.5 -69q27 -45 71.5 -73.5t97.5 -28.5q8 -1 14 -1h13q34 0 55 6.5t46 20.5t51 35q18 14 46 40zM396 -80
q0 -22 -17.5 -41.5t-32 -25.5t-24.5 -7.5t-26 -1.5h-18h-32v16h14q25 0 31.5 1t20.5 7q28 12 28 41q0 12 -5.5 22t-17 13.5t-26.5 3.5q-9 0 -15.5 -0.5t-11.5 -1.5q10 15 27 45q22 38 27 47q13 -7 28 -8q-8 -9 -15 -18.5t-13 -19.5q33 0 57 -26q21 -23 21 -46z" />
    <glyph glyph-name="Egrave" unicode="&#xc8;" horiz-adv-x="565" 
d="M551 166l-42 -152q-6 2 -10 3q-30 8 -69 8q-20 0 -54 -3q-80 -7 -101 -7q-14 0 -46.5 2.5t-33.5 2.5l-94 -6h-80v18q8 0 25 1t32 13q8 6 16 23q2 5 7 15q-1 10 -1 18q-5 63 -5 118q0 15 2.5 53t2.5 42q0 37 -2.5 88t-2.5 57l6 125q-4 9 -6 13q-8 14 -18 21.5t-34 10.5
q-8 0 -22 1v20h80q22 1 36 2q100 7 133 7q59 0 140 -4q29 -1 77 -5l6 -112h-6q-5 18 -9 27q-12 28 -28 39q-10 6 -28 11q-6 1 -17 3l-65 1l-137 -1q-4 -34 -6 -54q-7 -69 -7 -100q0 -23 6 -56q2 -11 7 -31q11 2 18 2q44 5 69 5q19 0 36 -2t32 -5q11 -2 17.5 0.5t14.5 15.5
q3 4 11 42q1 6 4 17h12v-75v-48v-79h-12q-2 19 -3 29q-5 30 -12 38t-16.5 9.5t-15.5 2.5h-155q2 -29 4.5 -69t2.5 -61q0 -31 -2 -59t-5 -53q2 -5 5.5 -9.5t8.5 -9.5q8 -12 28 -12l100 -2l72 2q15 1 29.5 2t23.5 4t41 53q10 16 30 50h10zM138 220v800h700v-800h-700zM788 270
v700h-600v-700h600z" />
    <glyph glyph-name="Eacute" unicode="&#xc9;" horiz-adv-x="565" 
d="M551 166l-42 -152q-6 2 -10 3q-30 8 -69 8q-20 0 -54 -3q-80 -7 -101 -7q-14 0 -46.5 2.5t-33.5 2.5l-94 -6h-80v18q8 0 25 1t32 13q8 6 16 23q2 5 7 15q-1 10 -1 18q-5 63 -5 118q0 15 2.5 53t2.5 42q0 37 -2.5 88t-2.5 57l6 125q-4 9 -6 13q-8 14 -18 21.5t-34 10.5
q-8 0 -22 1v20h80q22 1 36 2q100 7 133 7q59 0 140 -4q29 -1 77 -5l6 -112h-6q-5 18 -9 27q-12 28 -28 39q-10 6 -28 11q-6 1 -17 3l-65 1l-137 -1q-4 -34 -6 -54q-7 -69 -7 -100q0 -23 6 -56q2 -11 7 -31q11 2 18 2q44 5 69 5q19 0 36 -2t32 -5q11 -2 17.5 0.5t14.5 15.5
q3 4 11 42q1 6 4 17h12v-75v-48v-79h-12q-2 19 -3 29q-5 30 -12 38t-16.5 9.5t-15.5 2.5h-155q2 -29 4.5 -69t2.5 -61q0 -31 -2 -59t-5 -53q2 -5 5.5 -9.5t8.5 -9.5q8 -12 28 -12l100 -2l72 2q15 1 29.5 2t23.5 4t41 53q10 16 30 50h10zM360 824l-116 -156l-36 4l48 152h104
z" />
    <glyph glyph-name="Ecircumflex" unicode="&#xca;" horiz-adv-x="565" 
d="M551 166l-42 -152q-6 2 -10 3q-30 8 -69 8q-20 0 -54 -3q-80 -7 -101 -7q-14 0 -46.5 2.5t-33.5 2.5l-94 -6h-80v18q8 0 25 1t32 13q8 6 16 23q2 5 7 15q-1 10 -1 18q-5 63 -5 118q0 15 2.5 53t2.5 42q0 37 -2.5 88t-2.5 57l6 125q-4 9 -6 13q-8 14 -18 21.5t-34 10.5
q-8 0 -22 1v20h80q22 1 36 2q100 7 133 7q59 0 140 -4q29 -1 77 -5l6 -112h-6q-5 18 -9 27q-12 28 -28 39q-10 6 -28 11q-6 1 -17 3l-65 1l-137 -1q-4 -34 -6 -54q-7 -69 -7 -100q0 -23 6 -56q2 -11 7 -31q11 2 18 2q44 5 69 5q19 0 36 -2t32 -5q11 -2 17.5 0.5t14.5 15.5
q3 4 11 42q1 6 4 17h12v-75v-48v-79h-12q-2 19 -3 29q-5 30 -12 38t-16.5 9.5t-15.5 2.5h-155q2 -29 4.5 -69t2.5 -61q0 -31 -2 -59t-5 -53q2 -5 5.5 -9.5t8.5 -9.5q8 -12 28 -12l100 -2l72 2q15 1 29.5 2t23.5 4t41 53q10 16 30 50h10zM424 696l-24 -8l-144 92l-104 -84
l-24 4l94 142l78 -2z" />
    <glyph glyph-name="Edieresis" unicode="&#xcb;" horiz-adv-x="565" 
d="M551 166l-42 -152q-6 2 -10 3q-30 8 -69 8q-20 0 -54 -3q-80 -7 -101 -7q-14 0 -46.5 2.5t-33.5 2.5l-94 -6h-80v18q8 0 25 1t32 13q8 6 16 23q2 5 7 15q-1 10 -1 18q-5 63 -5 118q0 15 2.5 53t2.5 42q0 37 -2.5 88t-2.5 57l6 125q-4 9 -6 13q-8 14 -18 21.5t-34 10.5
q-8 0 -22 1v20h80q22 1 36 2q100 7 133 7q59 0 140 -4q29 -1 77 -5l6 -112h-6q-5 18 -9 27q-12 28 -28 39q-10 6 -28 11q-6 1 -17 3l-65 1l-137 -1q-4 -34 -6 -54q-7 -69 -7 -100q0 -23 6 -56q2 -11 7 -31q11 2 18 2q44 5 69 5q19 0 36 -2t32 -5q11 -2 17.5 0.5t14.5 15.5
q3 4 11 42q1 6 4 17h12v-75v-48v-79h-12q-2 19 -3 29q-5 30 -12 38t-16.5 9.5t-15.5 2.5h-155q2 -29 4.5 -69t2.5 -61q0 -31 -2 -59t-5 -53q2 -5 5.5 -9.5t8.5 -9.5q8 -12 28 -12l100 -2l72 2q15 1 29.5 2t23.5 4t41 53q10 16 30 50h10zM394 766q10 -13 10 -30
q0 -25 -20 -40q-13 -10 -30 -10q-25 0 -40 20q-10 13 -10 30q0 25 20 40q13 10 30 10q25 0 40 -20zM240 704q-14 -21 -41 -21q-15 0 -27 9q-21 14 -21 41q0 15 9 27q14 21 41 21q15 0 27 -9q21 -14 21 -41q0 -15 -9 -27z" />
    <glyph glyph-name="Igrave" unicode="&#xcc;" horiz-adv-x="300" 
d="M282 34l-1 -18q-4 0 -19 1t-28 1l-49 -3l-84 1l-21 -1l-65 1v17l41 7q22 3 25 5q15 10 15 41q0 11 -0.5 22t-0.5 25v13l2 105l-2 102l2 44q0 15 -0.5 29.5t-0.5 28.5l-1 85l-6 26q-6 21 -16 28t-30.5 10t-28.5 6l2 16l44 -1l65 3l77 -1l77 -1l2 -16l-67 -15l-19 -13
q-6 -9 -9 -15q-9 -18 -9 -30v-47l2 -72l-4 -42q0 -9 1 -19t1 -18l-1 -69l1 -40l3 -139q6 -19 14 -29q3 -4 14 -11.5t26.5 -12t35.5 -4.5h12zM14 216v800h700v-800h-700zM664 266v700h-600v-700h600z" />
    <glyph glyph-name="Iacute" unicode="&#xcd;" horiz-adv-x="300" 
d="M282 34l-1 -18q-4 0 -19 1t-28 1l-49 -3l-84 1l-21 -1l-65 1v17l41 7q22 3 25 5q15 10 15 41q0 11 -0.5 22t-0.5 25v13l2 105l-2 102l2 44q0 15 -0.5 29.5t-0.5 28.5l-1 85l-6 26q-6 21 -16 28t-30.5 10t-28.5 6l2 16l44 -1l65 3l77 -1l77 -1l2 -16l-67 -15l-19 -13
q-6 -9 -9 -15q-9 -18 -9 -30v-47l2 -72l-4 -42q0 -9 1 -19t1 -18l-1 -69l1 -40l3 -139q6 -19 14 -29q3 -4 14 -11.5t26.5 -12t35.5 -4.5h12zM256 824l-116 -156l-36 4l48 152h104z" />
    <glyph glyph-name="Icircumflex" unicode="&#xce;" horiz-adv-x="300" 
d="M282 34l-1 -18q-4 0 -19 1t-28 1l-49 -3l-84 1l-21 -1l-65 1v17l41 7q22 3 25 5q15 10 15 41q0 11 -0.5 22t-0.5 25v13l2 105l-2 102l2 44q0 15 -0.5 29.5t-0.5 28.5l-1 85l-6 26q-6 21 -16 28t-30.5 10t-28.5 6l2 16l44 -1l65 3l77 -1l77 -1l2 -16l-67 -15l-19 -13
q-6 -9 -9 -15q-9 -18 -9 -30v-47l2 -72l-4 -42q0 -9 1 -19t1 -18l-1 -69l1 -40l3 -139q6 -19 14 -29q3 -4 14 -11.5t26.5 -12t35.5 -4.5h12zM304 660l-24 -8l-144 92l-104 -84l-24 4l94 142l78 -2z" />
    <glyph glyph-name="Idieresis" unicode="&#xcf;" horiz-adv-x="300" 
d="M282 34l-1 -18q-4 0 -19 1t-28 1l-49 -3l-84 1l-21 -1l-65 1v17l41 7q22 3 25 5q15 10 15 41q0 11 -0.5 22t-0.5 25v13l2 105l-2 102l2 44q0 15 -0.5 29.5t-0.5 28.5l-1 85l-6 26q-6 21 -16 28t-30.5 10t-28.5 6l2 16l44 -1l65 3l77 -1l77 -1l2 -16l-67 -15l-19 -13
q-6 -9 -9 -15q-9 -18 -9 -30v-47l2 -72l-4 -42q0 -9 1 -19t1 -18l-1 -69l1 -40l3 -139q6 -19 14 -29q3 -4 14 -11.5t26.5 -12t35.5 -4.5h12zM266 738q10 -13 10 -30q0 -25 -20 -40q-13 -10 -30 -10q-25 0 -40 20q-10 13 -10 30q0 25 20 40q13 10 30 10q25 0 40 -20zM112 676
q-14 -21 -41 -21q-15 0 -27 9q-21 14 -21 41q0 15 9 27q14 21 41 21q15 0 27 -9q21 -14 21 -41q0 -15 -9 -27z" />
    <glyph glyph-name="Eth" unicode="&#xd0;" horiz-adv-x="648" 
d="M621 299q0 -29 -7 -51t-24 -53q-25 -45 -53 -73q-34 -34 -82 -57q-82 -38 -87 -40q-32 -11 -61 -11h-192h-111l2 18q17 0 37 1t32.5 9t23.5 15q8 7 16 24q1 23 2 73t1 86v24t1 24q0 24 -3 48h-88v36h84q-2 24 -2 62v16l5 121q-28 21 -56 31q-10 3 -41 8q-5 0 -14 2v17
h111q20 -2 44 -3t46 -1q25 0 52 1t50 3q56 0 99.5 -15.5t88.5 -48.5q32 -24 57.5 -59t42.5 -76q26 -63 26 -131zM534 299q0 27 -9.5 58t-25 64t-31.5 67q-20 36 -48 57q-21 16 -40 26.5t-42.5 18t-47.5 7.5q-14 0 -43.5 -3.5t-40.5 -3.5l-6 -70q0 -31 -2 -65.5t-4 -82.5h162
v-36h-163q0 -38 0.5 -83t1.5 -98q0 -39 5 -71q1 -11 6 -27q27 0 51.5 3.5t57.5 14.5q57 19 91 38q42 23 69.5 58t40.5 60q18 35 18 68z" />
    <glyph glyph-name="Ntilde" unicode="&#xd1;" horiz-adv-x="600" 
d="M580 672q-22 -3 -30.5 -6.5t-19.5 -17.5q-7 -10 -9.5 -32.5t-2.5 -60.5v-37l-2 -93l2 -65l1 -63l1 -64v-62q0 -12 -0.5 -19t-1.5 -13l-1 -53v-60h-27h-39l-59 88q-19 30 -27 44q-12 20 -13 22l-32 58q-2 6 -10 17t-14 23q-10 19 -18 35t-22.5 42t-30 59t-29.5 68
q-9 22 -36 66q-8 14 -24 38l-1 -103l-2 -137l-2 -103l1 -70l3 -98q0 -14 4 -23t16 -18q6 -4 14 -6t16 -2h11v-18l-183 1l2 19h15q11 0 18 5t13.5 12.5t10.5 18t6 48.5t2 54v76l2 116l2 167v18v15v13q0 18 -0.5 34.5t-3.5 20.5q-8 19 -20.5 27t-35.5 12l-1 13l76 -1
q16 0 41 -1t36 -1l47 -4q7 -15 14.5 -29t12.5 -28t19 -40l20 -36l52 -98l38 -78q9 -20 21 -42q4 -7 11 -19l25 -43l11 -1q1 4 1 31v40v48v66v29t1 27q0 8 -0.5 22.5t-0.5 34.5v17q0 11 0.5 23.5t1.5 26.5q0 19 -8 27.5t-25 11.5t-34 3q-15 0 -18 -1v21l215 5v-17zM477 826
q0 -50 -39.5 -80t-97.5 -30q-41 0 -84 25q-96 56 -130 56q-11 0 -27 -17q-21 -24 -41 -47q0 63 27 103.5t78 40.5q36 0 75 -24q88 -54 113 -54q57 0 93 45q12 15 25 46l5 -3q2 -14 2.5 -32t0.5 -29z" />
    <glyph glyph-name="Ograve" unicode="&#xd2;" horiz-adv-x="695" 
d="M657 327q0 -63 -31 -123q-26 -50 -76 -99q-44 -43 -99.5 -66.5t-120.5 -23.5q-46 0 -85.5 6.5t-69.5 23.5q-37 21 -69 61q-26 32 -51 79q-38 71 -38 158q0 41 13 81t35 81q27 51 56 86q35 41 79 64q31 16 65.5 25.5t69.5 9.5q53 0 100 -13.5t85.5 -42t68.5 -72.5
q26 -38 46 -92q12 -33 17 -68t5 -75zM500 515q-36 58 -54 77q-46 48 -106 48q-79 0 -149 -117q-61 -101 -61 -173q0 -84 9 -115.5t37.5 -70.5t60.5 -61q41 -28 88 -28q65 0 108 26q26 16 52 49q30 38 42 83.5t12 99.5q0 58 -12.5 109t-26.5 73zM210 256v800h700v-800h-700z
M860 306v700h-600v-700h600z" />
    <glyph glyph-name="Oacute" unicode="&#xd3;" horiz-adv-x="695" 
d="M657 327q0 -63 -31 -123q-26 -50 -76 -99q-44 -43 -99.5 -66.5t-120.5 -23.5q-46 0 -85.5 6.5t-69.5 23.5q-37 21 -69 61q-26 32 -51 79q-38 71 -38 158q0 41 13 81t35 81q27 51 56 86q35 41 79 64q31 16 65.5 25.5t69.5 9.5q53 0 100 -13.5t85.5 -42t68.5 -72.5
q26 -38 46 -92q12 -33 17 -68t5 -75zM500 515q-36 58 -54 77q-46 48 -106 48q-79 0 -149 -117q-61 -101 -61 -173q0 -84 9 -115.5t37.5 -70.5t60.5 -61q41 -28 88 -28q65 0 108 26q26 16 52 49q30 38 42 83.5t12 99.5q0 58 -12.5 109t-26.5 73zM464 876l-116 -156l-36 4
l48 152h104z" />
    <glyph glyph-name="Ocircumflex" unicode="&#xd4;" horiz-adv-x="695" 
d="M657 327q0 -63 -31 -123q-26 -50 -76 -99q-44 -43 -99.5 -66.5t-120.5 -23.5q-46 0 -85.5 6.5t-69.5 23.5q-37 21 -69 61q-26 32 -51 79q-38 71 -38 158q0 41 13 81t35 81q27 51 56 86q35 41 79 64q31 16 65.5 25.5t69.5 9.5q53 0 100 -13.5t85.5 -42t68.5 -72.5
q26 -38 46 -92q12 -33 17 -68t5 -75zM500 515q-36 58 -54 77q-46 48 -106 48q-79 0 -149 -117q-61 -101 -61 -173q0 -84 9 -115.5t37.5 -70.5t60.5 -61q41 -28 88 -28q65 0 108 26q26 16 52 49q30 38 42 83.5t12 99.5q0 58 -12.5 109t-26.5 73zM492 720l-24 -8l-144 92
l-104 -84l-24 4l94 142l78 -2z" />
    <glyph glyph-name="Otilde" unicode="&#xd5;" horiz-adv-x="695" 
d="M657 327q0 -63 -31 -123q-26 -50 -76 -99q-44 -43 -99.5 -66.5t-120.5 -23.5q-46 0 -85.5 6.5t-69.5 23.5q-37 21 -69 61q-26 32 -51 79q-38 71 -38 158q0 41 13 81t35 81q27 51 56 86q35 41 79 64q31 16 65.5 25.5t69.5 9.5q53 0 100 -13.5t85.5 -42t68.5 -72.5
q26 -38 46 -92q12 -33 17 -68t5 -75zM500 515q-36 58 -54 77q-46 48 -106 48q-79 0 -149 -117q-61 -101 -61 -173q0 -84 9 -115.5t37.5 -70.5t60.5 -61q41 -28 88 -28q65 0 108 26q26 16 52 49q30 38 42 83.5t12 99.5q0 58 -12.5 109t-26.5 73zM529 834q0 -50 -39.5 -80
t-97.5 -30q-41 0 -84 25q-96 56 -130 56q-11 0 -27 -17q-21 -24 -41 -47q0 63 27 103.5t78 40.5q36 0 75 -24q88 -54 113 -54q57 0 93 45q12 15 25 46l5 -3q2 -14 2.5 -32t0.5 -29z" />
    <glyph glyph-name="Odieresis" unicode="&#xd6;" horiz-adv-x="695" 
d="M657 327q0 -63 -31 -123q-26 -50 -76 -99q-44 -43 -99.5 -66.5t-120.5 -23.5q-46 0 -85.5 6.5t-69.5 23.5q-37 21 -69 61q-26 32 -51 79q-38 71 -38 158q0 41 13 81t35 81q27 51 56 86q35 41 79 64q31 16 65.5 25.5t69.5 9.5q53 0 100 -13.5t85.5 -42t68.5 -72.5
q26 -38 46 -92q12 -33 17 -68t5 -75zM500 515q-36 58 -54 77q-46 48 -106 48q-79 0 -149 -117q-61 -101 -61 -173q0 -84 9 -115.5t37.5 -70.5t60.5 -61q41 -28 88 -28q65 0 108 26q26 16 52 49q30 38 42 83.5t12 99.5q0 58 -12.5 109t-26.5 73zM458 782q10 -13 10 -30
q0 -25 -20 -40q-13 -10 -30 -10q-25 0 -40 20q-10 13 -10 30q0 25 20 40q13 10 30 10q25 0 40 -20zM304 720q-14 -21 -41 -21q-15 0 -27 9q-21 14 -21 41q0 15 9 27q14 21 41 21q15 0 27 -9q21 -14 21 -41q0 -15 -9 -27z" />
    <glyph glyph-name="multiply" unicode="&#xd7;" horiz-adv-x="488" 
d="M447 553l-165 -166l155 -155l-36 -28l-151 151l-167 -168l-34 33l168 168l-160 160l36 28l156 -156l164 164z" />
    <glyph glyph-name="Oslash" unicode="&#xd8;" horiz-adv-x="695" 
d="M672 624l-80 -67q11 -18 22.5 -41.5t22 -51t15.5 -62.5t5 -75q0 -63 -31 -123q-26 -50 -76 -99q-44 -43 -99.5 -66.5t-120.5 -23.5q-46 0 -85.5 6.5t-68 22.5t-51.5 40q-19 20 -40 51l-57 -47l-16 24l57 47l-14 26q-38 71 -38 158q0 41 13 81t35 81q27 51 56 86
q35 41 79 64q31 16 65.5 25.5t69.5 9.5q53 0 100 -13.5t85 -41.5q29 -21 55 -55l77 64zM498 516l-2 4q-34 56 -52 74q-45 46 -104 46q-79 0 -149 -117q-61 -101 -61 -173q0 -90 13 -129zM510 489l-355 -295l20 -29q30 -40 62 -62q41 -28 88 -28q65 0 108 26q26 16 52.5 50.5
t39.5 81t13 95.5q0 48 -7 86.5t-21 74.5z" />
    <glyph glyph-name="Ugrave" unicode="&#xd9;" horiz-adv-x="618" 
d="M600 648l-1 -13q-19 -3 -28 -5q-29 -8 -35.5 -24t-8.5 -31.5t-3 -25.5q-4 -22 -6 -51.5t-2 -49.5v-72q0 -109 -9 -171.5t-34 -107.5q-16 -31 -39 -50t-62 -32q-11 -4 -54.5 -8t-64.5 -4q-65 0 -95 15q-21 10 -56 51q-29 32 -38 66t-9 84l-5 157l-2 123l2 93q0 34 -22 44
q-7 3 -22 3l-1 13l60 2q10 0 34 -3t37 -3q23 0 41.5 0.5t33.5 1.5l-1 -17q-13 0 -20 -1q-45 -7 -45 -34q0 -24 2 -97t2 -78q0 -19 -0.5 -39.5t-0.5 -41.5q0 -46 2.5 -83t9.5 -73q13 -60 38 -90q31 -36 85 -36q41 0 69 9t50 26q28 22 42 62q5 14 18 76q7 31 10 58.5t3 48.5
q0 18 -1 45.5t-1 35.5q0 17 1 52t1 50q0 26 -2 45t-9.5 36t-21.5 22t-15 6v15l50 1l65 2zM146 232v800h700v-800h-700zM796 282v700h-600v-700h600z" />
    <glyph glyph-name="Uacute" unicode="&#xda;" horiz-adv-x="618" 
d="M600 648l-1 -13q-19 -3 -28 -5q-29 -8 -35.5 -24t-8.5 -31.5t-3 -25.5q-4 -22 -6 -51.5t-2 -49.5v-72q0 -109 -9 -171.5t-34 -107.5q-16 -31 -39 -50t-62 -32q-11 -4 -54.5 -8t-64.5 -4q-65 0 -95 15q-21 10 -56 51q-29 32 -38 66t-9 84l-5 157l-2 123l2 93q0 34 -22 44
q-7 3 -22 3l-1 13l60 2q10 0 34 -3t37 -3q23 0 41.5 0.5t33.5 1.5l-1 -17q-13 0 -20 -1q-45 -7 -45 -34q0 -24 2 -97t2 -78q0 -19 -0.5 -39.5t-0.5 -41.5q0 -46 2.5 -83t9.5 -73q13 -60 38 -90q31 -36 85 -36q41 0 69 9t50 26q28 22 42 62q5 14 18 76q7 31 10 58.5t3 48.5
q0 18 -1 45.5t-1 35.5q0 17 1 52t1 50q0 26 -2 45t-9.5 36t-21.5 22t-15 6v15l50 1l65 2zM420 864l-116 -156l-36 4l48 152h104z" />
    <glyph glyph-name="Ucircumflex" unicode="&#xdb;" horiz-adv-x="618" 
d="M600 648l-1 -13q-19 -3 -28 -5q-29 -8 -35.5 -24t-8.5 -31.5t-3 -25.5q-4 -22 -6 -51.5t-2 -49.5v-72q0 -109 -9 -171.5t-34 -107.5q-16 -31 -39 -50t-62 -32q-11 -4 -54.5 -8t-64.5 -4q-65 0 -95 15q-21 10 -56 51q-29 32 -38 66t-9 84l-5 157l-2 123l2 93q0 34 -22 44
q-7 3 -22 3l-1 13l60 2q10 0 34 -3t37 -3q23 0 41.5 0.5t33.5 1.5l-1 -17q-13 0 -20 -1q-45 -7 -45 -34q0 -24 2 -97t2 -78q0 -19 -0.5 -39.5t-0.5 -41.5q0 -46 2.5 -83t9.5 -73q13 -60 38 -90q31 -36 85 -36q41 0 69 9t50 26q28 22 42 62q5 14 18 76q7 31 10 58.5t3 48.5
q0 18 -1 45.5t-1 35.5q0 17 1 52t1 50q0 26 -2 45t-9.5 36t-21.5 22t-15 6v15l50 1l65 2zM456 696l-24 -8l-144 92l-104 -84l-24 4l94 142l78 -2z" />
    <glyph glyph-name="Udieresis" unicode="&#xdc;" horiz-adv-x="618" 
d="M600 648l-1 -13q-19 -3 -28 -5q-29 -8 -35.5 -24t-8.5 -31.5t-3 -25.5q-4 -22 -6 -51.5t-2 -49.5v-72q0 -109 -9 -171.5t-34 -107.5q-16 -31 -39 -50t-62 -32q-11 -4 -54.5 -8t-64.5 -4q-65 0 -95 15q-21 10 -56 51q-29 32 -38 66t-9 84l-5 157l-2 123l2 93q0 34 -22 44
q-7 3 -22 3l-1 13l60 2q10 0 34 -3t37 -3q23 0 41.5 0.5t33.5 1.5l-1 -17q-13 0 -20 -1q-45 -7 -45 -34q0 -24 2 -97t2 -78q0 -19 -0.5 -39.5t-0.5 -41.5q0 -46 2.5 -83t9.5 -73q13 -60 38 -90q31 -36 85 -36q41 0 69 9t50 26q28 22 42 62q5 14 18 76q7 31 10 58.5t3 48.5
q0 18 -1 45.5t-1 35.5q0 17 1 52t1 50q0 26 -2 45t-9.5 36t-21.5 22t-15 6v15l50 1l65 2zM434 786q10 -13 10 -30q0 -25 -20 -40q-13 -10 -30 -10q-25 0 -40 20q-10 13 -10 30q0 25 20 40q13 10 30 10q25 0 40 -20zM280 724q-14 -21 -41 -21q-15 0 -27 9q-21 14 -21 41
q0 15 9 27q14 21 41 21q15 0 27 -9q21 -14 21 -41q0 -15 -9 -27z" />
    <glyph glyph-name="Yacute" unicode="&#xdd;" horiz-adv-x="635" 
d="M607 634q-10 -3 -24 -9q-22 -10 -33 -22q-21 -22 -48 -63l-28 -42l-79 -116l-54 -74v-52l-1 -167q0 -26 22 -43q15 -11 40 -19q8 -2 21 -6l2 -18l-90 1l-137 -1h-49v18q28 7 41 14q41 21 41 53v92v88l2 52q-8 25 -25 58q-21 42 -27 58q-10 30 -45 79q-30 40 -59 81
q-14 21 -38 31q-8 3 -23 6l1 12l117 1l103 -1l1 -13q-17 -4 -26 -6q-27 -8 -32 -18q-7 -14 26 -54q22 -26 25 -35t52 -102q20 -39 24 -59q3 0 34.5 37.5t61.5 73.5q43 56 65 87.5t19 43.5q-4 16 -26 22q-4 1 -12 2q0 14 1 18l71 2l30 -2l55 1zM448 824l-116 -156l-36 4
l48 152h104z" />
    <glyph glyph-name="Thorn" unicode="&#xde;" horiz-adv-x="492" 
d="M468 298q0 -57 -15.5 -88.5t-50.5 -49.5q-20 -11 -56 -17.5t-64 -6.5h-23q-24 0 -40 1.5t-35 6.5v-57q6 -19 14 -29q3 -4 14 -11.5t26.5 -12t35.5 -4.5h12l-1 -18q-4 0 -19 1t-28 1l-49 -3l-84 1l-21 -1l-65 1v17l41 7q22 3 25 5q15 10 15 41q0 11 -0.5 22t-0.5 25v13
l2 105q1 5 1 17.5v21.5q0 36 -0.5 77.5t-1.5 87.5l-1 85l-6 26q-6 21 -16 28t-30.5 10t-28.5 6l2 16l44 -1l65 3l77 -1l77 -1l2 -16l-67 -15l-19 -13q-6 -9 -9 -15q-9 -18 -9 -30v-47v-14q17 0 44 1.5t28 1.5q19 0 36.5 -2t36.5 -9q35 -11 62.5 -27t39 -32.5t26 -53.5
t14.5 -53zM370 330q-9 28 -27.5 52.5t-37 33.5t-38 13.5t-31.5 4.5q-15 1 -26 -2.5t-27 -3.5v-14l-4 -42q3 -23 4 -106.5t1 -93.5q13 0 25 -3t18 -3q7 0 14.5 1t24.5 5.5t38 9.5q22 7 42 32q16 21 22.5 42t6.5 42q0 20 -5 32z" />
    <glyph glyph-name="germandbls" unicode="&#xdf;" horiz-adv-x="543" 
d="M492 288v-33t1 -31q0 -25 -1.5 -39t-6.5 -33t-47.5 -64.5t-62.5 -56.5q-47 -25 -101 -25q-28 0 -38 10q-22 21 -29.5 36t-7.5 41q0 39 32 39q18 0 35.5 -27t17.5 -49q0 -5 -2 -9q-2 -7 10 -7q7 0 14 4q37 16 70 50q40 42 40 82q0 48 -11 82q-14 45 -45 62q-14 8 -38 15
q-66 19 -70 21t-14 3.5t-15 3.5l-1 22q76 0 119 24q55 31 55 99q0 54 -35 91t-89 37q-86 0 -105 -31t-19 -153l-2 -328v-116h-66l-61 -2v12q55 0 55 34v308q0 74 13.5 142.5t40.5 125.5q8 16 42.5 33t61.5 19q33 0 52.5 -1.5t41.5 -3.5q64 -6 105 -46q37 -36 37 -93
q0 -78 -27 -118q-16 -25 -59 -36q37 -18 55 -29q55 -35 55 -65z" />
    <glyph glyph-name="agrave" unicode="&#xe0;" horiz-adv-x="436" 
d="M407 65q-9 -19 -36 -36.5t-54 -17.5q-29 0 -42 15t-23 53q-33 -20 -52 -30q-61 -31 -96 -31q-43 0 -66.5 33t-23.5 79q0 62 62 116q45 39 108 64q14 7 43 16q5 1 14 4q2 9 3.5 20t1.5 12q0 35 -16 62q-19 32 -53 32q-45 0 -66 -26q-16 -20 -16 -52v-19q0 -43 -34 -43
q-7 0 -15 1.5t-14.5 11.5t-6.5 44q0 49 41 77q16 11 70 31q20 6 34 6q19 0 48 -9.5t49 -29.5q16 -16 33 -48q10 -18 13.5 -41.5t3.5 -47.5v-30v-87v-86q2 -11 13 -25.5t23 -14.5q7 0 26 9q25 12 28 13q-2 -4 -0.5 -13.5t0.5 -11.5zM252 114l-2 97q0 12 -0.5 38.5t-1.5 50.5
l-19 -6q-55 -23 -87 -48q-60 -47 -60 -108q0 -33 15 -46t41 -13q10 0 23 2t26.5 5t48.5 20zM-2 68v800h700v-800h-700zM648 118v700h-600v-700h600z" />
    <glyph glyph-name="aacute" unicode="&#xe1;" horiz-adv-x="436" 
d="M407 65q-9 -19 -36 -36.5t-54 -17.5q-29 0 -42 15t-23 53q-33 -20 -52 -30q-61 -31 -96 -31q-43 0 -66.5 33t-23.5 79q0 62 62 116q45 39 108 64q14 7 43 16q5 1 14 4q2 9 3.5 20t1.5 12q0 35 -16 62q-19 32 -53 32q-45 0 -66 -26q-16 -20 -16 -52v-19q0 -43 -34 -43
q-7 0 -15 1.5t-14.5 11.5t-6.5 44q0 49 41 77q16 11 70 31q20 6 34 6q19 0 48 -9.5t49 -29.5q16 -16 33 -48q10 -18 13.5 -41.5t3.5 -47.5v-30v-87v-86q2 -11 13 -25.5t23 -14.5q7 0 26 9q25 12 28 13q-2 -4 -0.5 -13.5t0.5 -11.5zM252 114l-2 97q0 12 -0.5 38.5t-1.5 50.5
l-19 -6q-55 -23 -87 -48q-60 -47 -60 -108q0 -33 15 -46t41 -13q10 0 23 2t26.5 5t48.5 20zM308 696l-116 -156l-36 4l48 152h104z" />
    <glyph glyph-name="acircumflex" unicode="&#xe2;" horiz-adv-x="436" 
d="M407 65q-9 -19 -36 -36.5t-54 -17.5q-29 0 -42 15t-23 53q-33 -20 -52 -30q-61 -31 -96 -31q-43 0 -66.5 33t-23.5 79q0 62 62 116q45 39 108 64q14 7 43 16q5 1 14 4q2 9 3.5 20t1.5 12q0 35 -16 62q-19 32 -53 32q-45 0 -66 -26q-16 -20 -16 -52v-19q0 -43 -34 -43
q-7 0 -15 1.5t-14.5 11.5t-6.5 44q0 49 41 77q16 11 70 31q20 6 34 6q19 0 48 -9.5t49 -29.5q16 -16 33 -48q10 -18 13.5 -41.5t3.5 -47.5v-30v-87v-86q2 -11 13 -25.5t23 -14.5q7 0 26 9q25 12 28 13q-2 -4 -0.5 -13.5t0.5 -11.5zM252 114l-2 97q0 12 -0.5 38.5t-1.5 50.5
l-19 -6q-55 -23 -87 -48q-60 -47 -60 -108q0 -33 15 -46t41 -13q10 0 23 2t26.5 5t48.5 20zM328 536l-24 -8l-144 92l-104 -84l-24 4l94 142l78 -2z" />
    <glyph glyph-name="atilde" unicode="&#xe3;" horiz-adv-x="436" 
d="M407 65q-9 -19 -36 -36.5t-54 -17.5q-29 0 -42 15t-23 53q-33 -20 -52 -30q-61 -31 -96 -31q-43 0 -66.5 33t-23.5 79q0 62 62 116q45 39 108 64q14 7 43 16q5 1 14 4q2 9 3.5 20t1.5 12q0 35 -16 62q-19 32 -53 32q-45 0 -66 -26q-16 -20 -16 -52v-19q0 -43 -34 -43
q-7 0 -15 1.5t-14.5 11.5t-6.5 44q0 49 41 77q16 11 70 31q20 6 34 6q19 0 48 -9.5t49 -29.5q16 -16 33 -48q10 -18 13.5 -41.5t3.5 -47.5v-30v-87v-86q2 -11 13 -25.5t23 -14.5q7 0 26 9q25 12 28 13q-2 -4 -0.5 -13.5t0.5 -11.5zM252 114l-2 97q0 12 -0.5 38.5t-1.5 50.5
l-19 -6q-55 -23 -87 -48q-60 -47 -60 -108q0 -33 15 -46t41 -13q10 0 23 2t26.5 5t48.5 20zM425 614q0 -50 -39.5 -80t-97.5 -30q-41 0 -84 25q-96 56 -130 56q-11 0 -27 -17q-21 -24 -41 -47q0 63 27 103.5t78 40.5q36 0 75 -24q88 -54 113 -54q57 0 93 45q12 15 25 46
l5 -3q2 -14 2.5 -32t0.5 -29z" />
    <glyph glyph-name="adieresis" unicode="&#xe4;" horiz-adv-x="436" 
d="M407 65q-9 -19 -36 -36.5t-54 -17.5q-29 0 -42 15t-23 53q-33 -20 -52 -30q-61 -31 -96 -31q-43 0 -66.5 33t-23.5 79q0 62 62 116q45 39 108 64q14 7 43 16q5 1 14 4q2 9 3.5 20t1.5 12q0 35 -16 62q-19 32 -53 32q-45 0 -66 -26q-16 -20 -16 -52v-19q0 -43 -34 -43
q-7 0 -15 1.5t-14.5 11.5t-6.5 44q0 49 41 77q16 11 70 31q20 6 34 6q19 0 48 -9.5t49 -29.5q16 -16 33 -48q10 -18 13.5 -41.5t3.5 -47.5v-30v-87v-86q2 -11 13 -25.5t23 -14.5q7 0 26 9q25 12 28 13q-2 -4 -0.5 -13.5t0.5 -11.5zM252 114l-2 97q0 12 -0.5 38.5t-1.5 50.5
l-19 -6q-55 -23 -87 -48q-60 -47 -60 -108q0 -33 15 -46t41 -13q10 0 23 2t26.5 5t48.5 20zM294 610q10 -13 10 -30q0 -25 -20 -40q-13 -10 -30 -10q-25 0 -40 20q-10 13 -10 30q0 25 20 40q13 10 30 10q25 0 40 -20zM140 548q-14 -21 -41 -21q-15 0 -27 9q-21 14 -21 41
q0 15 9 27q14 21 41 21q15 0 27 -9q21 -14 21 -41q0 -15 -9 -27z" />
    <glyph glyph-name="aring" unicode="&#xe5;" horiz-adv-x="436" 
d="M407 65q-9 -19 -36 -36.5t-54 -17.5q-29 0 -42 15t-23 53q-33 -20 -52 -30q-61 -31 -96 -31q-43 0 -66.5 33t-23.5 79q0 62 62 116q45 39 108 64q14 7 43 16q5 1 14 4q2 9 3.5 20t1.5 12q0 35 -16 62q-19 32 -53 32q-45 0 -66 -26q-16 -20 -16 -52v-19q0 -43 -34 -43
q-7 0 -15 1.5t-14.5 11.5t-6.5 44q0 49 41 77q16 11 70 31q20 6 34 6q19 0 48 -9.5t49 -29.5q16 -16 33 -48q10 -18 13.5 -41.5t3.5 -47.5v-30v-87v-86q2 -11 13 -25.5t23 -14.5q7 0 26 9q25 12 28 13q-2 -4 -0.5 -13.5t0.5 -11.5zM252 114l-2 97q0 12 -0.5 38.5t-1.5 50.5
l-19 -6q-55 -23 -87 -48q-60 -47 -60 -108q0 -33 15 -46t41 -13q10 0 23 2t26.5 5t48.5 20zM305 638q0 -50 -36 -83t-87 -33q-50 0 -83.5 35.5t-33.5 87.5q0 49 36 83t87 34q49 0 83 -37t34 -87zM266 645q0 38 -26.5 64.5t-64.5 26.5t-64.5 -26.5t-26.5 -64.5q0 -39 26 -65
t65 -26t65 26t26 65z" />
    <glyph glyph-name="ae" unicode="&#xe6;" horiz-adv-x="600" 
d="M569 315l-256 -1q-1 -7 -1 -18v-29q0 -101 28.5 -149t85.5 -48q19 0 43 6q42 11 68 52q8 13 18 39l13 -14q-3 -10 -6 -17q-17 -42 -45 -80q-18 -24 -56 -35q-24 -7 -46 -7q-30 0 -70 20.5t-50 34t-31 13.5q-4 0 -10 -2q-29 -17 -57 -33q-57 -29 -93 -29q-43 0 -66.5 33
t-23.5 79q0 62 62 116q45 39 108 64q14 7 43 16q5 1 14 4q2 9 3.5 20t1.5 12q0 35 -16 62q-19 32 -53 32q-45 0 -66 -26q-16 -20 -16 -52v-19q0 -43 -34 -43q-7 0 -15 1.5t-14.5 11.5t-6.5 44q0 49 41 77q16 11 70 31q20 6 34 6q19 0 49 -10q23 -7 45 -40q10 -13 20 -25
q15 21 42 38q11 7 37 20q9 5 31.5 9.5t42.5 4.5q28 0 76 -44q55 -51 55 -102zM489 342q0 12 -1 24t-8 26q-12 23 -35 38t-48 15q-20 0 -34 -16q-2 -3 -19 -26q-25 -34 -31 -63zM252 114l-2 97q0 12 -0.5 38.5t-1.5 50.5l-19 -6q-55 -23 -87 -48q-60 -47 -60 -108
q0 -33 15 -46t41 -13q10 0 23 2t26.5 5t48.5 20z" />
    <glyph glyph-name="ccedilla" unicode="&#xe7;" horiz-adv-x="381" 
d="M353 136q-4 -16 -8 -27q-13 -34 -36 -65q-18 -24 -56 -35q-24 -7 -46 -7q-31 0 -67.5 16.5t-54.5 37.5q-13 15 -36.5 62.5t-23.5 63.5q0 13 -0.5 26t-0.5 26q0 44 8.5 76t34.5 62q13 15 29 25.5t51 28.5q9 5 31.5 9.5t42.5 4.5q22 0 37.5 -4t32.5 -16q27 -19 38 -30
q20 -20 20 -36q0 -11 -12 -21.5t-28 -10.5t-22 12q-10 23 -20 47q-16 28 -45 28q-10 0 -22.5 -2.5t-29.5 -16.5q-13 -11 -30 -35t-21 -38.5t-4 -48.5v-30q0 -57 24 -109q32 -70 91 -70q13 0 31 5q42 12 71 57q9 15 21 43v-28zM280 -84q0 -22 -17.5 -41.5t-32 -25.5
t-24.5 -7.5t-26 -1.5h-18h-32v16h14q25 0 31.5 1t20.5 7q28 12 28 41q0 12 -5.5 22t-17 13.5t-26.5 3.5q-9 0 -15.5 -0.5t-11.5 -1.5q10 15 27 45q22 38 27 47q13 -7 28 -8q-8 -9 -15 -18.5t-13 -19.5q33 0 57 -26q21 -23 21 -46z" />
    <glyph glyph-name="egrave" unicode="&#xe8;" horiz-adv-x="381" 
d="M360 141q-3 -10 -6 -17q-17 -42 -45 -80q-18 -24 -56 -35q-24 -7 -46 -7q-31 0 -67.5 16.5t-54.5 37.5q-13 15 -36.5 62.5t-23.5 63.5q0 13 -0.5 26t-0.5 26q0 44 8.5 76t34.5 62q13 15 29 25.5t51 28.5q9 5 31.5 9.5t42.5 4.5q28 0 76 -44q55 -51 55 -102l1 -23l-256 -1
q-1 -7 -1 -18v-29q0 -53 31 -102q39 -62 100 -62q14 0 34 5q42 12 68 52q8 13 18 39zM273 298q0 12 -1 24t-8 26q-12 23 -35 38t-48 15q-20 0 -34 -16q-2 -3 -19 -26q-25 -34 -31 -63zM50 12v800h700v-800h-700zM700 62v700h-600v-700h600z" />
    <glyph glyph-name="eacute" unicode="&#xe9;" horiz-adv-x="381" 
d="M360 141q-3 -10 -6 -17q-17 -42 -45 -80q-18 -24 -56 -35q-24 -7 -46 -7q-31 0 -67.5 16.5t-54.5 37.5q-13 15 -36.5 62.5t-23.5 63.5q0 13 -0.5 26t-0.5 26q0 44 8.5 76t34.5 62q13 15 29 25.5t51 28.5q9 5 31.5 9.5t42.5 4.5q28 0 76 -44q55 -51 55 -102l1 -23l-256 -1
q-1 -7 -1 -18v-29q0 -53 31 -102q39 -62 100 -62q14 0 34 5q42 12 68 52q8 13 18 39zM273 298q0 12 -1 24t-8 26q-12 23 -35 38t-48 15q-20 0 -34 -16q-2 -3 -19 -26q-25 -34 -31 -63zM284 648l-116 -156l-36 4l48 152h104z" />
    <glyph glyph-name="ecircumflex" unicode="&#xea;" horiz-adv-x="381" 
d="M360 141q-3 -10 -6 -17q-17 -42 -45 -80q-18 -24 -56 -35q-24 -7 -46 -7q-31 0 -67.5 16.5t-54.5 37.5q-13 15 -36.5 62.5t-23.5 63.5q0 13 -0.5 26t-0.5 26q0 44 8.5 76t34.5 62q13 15 29 25.5t51 28.5q9 5 31.5 9.5t42.5 4.5q28 0 76 -44q55 -51 55 -102l1 -23l-256 -1
q-1 -7 -1 -18v-29q0 -53 31 -102q39 -62 100 -62q14 0 34 5q42 12 68 52q8 13 18 39zM273 298q0 12 -1 24t-8 26q-12 23 -35 38t-48 15q-20 0 -34 -16q-2 -3 -19 -26q-25 -34 -31 -63zM356 516l-24 -8l-144 92l-104 -84l-24 4l94 142l78 -2z" />
    <glyph glyph-name="edieresis" unicode="&#xeb;" horiz-adv-x="381" 
d="M360 141q-3 -10 -6 -17q-17 -42 -45 -80q-18 -24 -56 -35q-24 -7 -46 -7q-31 0 -67.5 16.5t-54.5 37.5q-13 15 -36.5 62.5t-23.5 63.5q0 13 -0.5 26t-0.5 26q0 44 8.5 76t34.5 62q13 15 29 25.5t51 28.5q9 5 31.5 9.5t42.5 4.5q28 0 76 -44q55 -51 55 -102l1 -23l-256 -1
q-1 -7 -1 -18v-29q0 -53 31 -102q39 -62 100 -62q14 0 34 5q42 12 68 52q8 13 18 39zM273 298q0 12 -1 24t-8 26q-12 23 -35 38t-48 15q-20 0 -34 -16q-2 -3 -19 -26q-25 -34 -31 -63zM310 570q10 -13 10 -30q0 -25 -20 -40q-13 -10 -30 -10q-25 0 -40 20q-10 13 -10 30
q0 25 20 40q13 10 30 10q25 0 40 -20zM156 508q-14 -21 -41 -21q-15 0 -27 9q-21 14 -21 41q0 15 9 27q14 21 41 21q15 0 27 -9q21 -14 21 -41q0 -15 -9 -27z" />
    <glyph glyph-name="igrave" unicode="&#xec;" horiz-adv-x="245" 
d="M229 15l-196 3v14q15 6 22 9q23 12 29 26q2 5 3 20.5t1 18.5q0 9 -1 33.5t-1 37.5q0 16 1 30l2 28q0 14 -2 27t-2 25v19q0 19 -0.5 37.5t-5.5 29t-14 10.5q-7 0 -11 -1t-8 -4l-6 19l68 30l57 27q1 -9 1.5 -20t0.5 -22q0 -15 -0.5 -28.5t-0.5 -26.5v-117v-50.5t1 -59.5
q0 -30 1.5 -46.5t8 -26.5t21 -15t31.5 -10q4 -2 1 -8t-1 -9zM-38 56v800h700v-800h-700zM612 106v700h-600v-700h600z" />
    <glyph glyph-name="iacute" unicode="&#xed;" horiz-adv-x="245" 
d="M221 15l-196 3v14q15 6 22 9q23 12 29 26q2 5 3 20.5t1 18.5q0 9 -1 33.5t-1 37.5q0 16 1 30l2 28q0 14 -2 27t-2 25v19q0 19 -0.5 37.5t-5.5 29t-14 10.5q-7 0 -11 -1t-8 -4l-6 19l68 30l57 27q1 -9 1.5 -20t0.5 -22q0 -15 -0.5 -28.5t-0.5 -26.5v-117v-50.5t1 -59.5
q0 -30 1.5 -46.5t8 -26.5t21 -15t31.5 -10q4 -2 1 -8t-1 -9zM204 688l-116 -156l-36 4l48 152h104z" />
    <glyph glyph-name="icircumflex" unicode="&#xee;" horiz-adv-x="264" 
d="M221 15l-196 3v14q15 6 22 9q23 12 29 26q2 5 3 20.5t1 18.5q0 9 -1 33.5t-1 37.5q0 16 1 30l2 28q0 14 -2 27t-2 25v19q0 19 -0.5 37.5t-5.5 29t-14 10.5q-7 0 -11 -1t-8 -4l-6 19l68 30l57 27q1 -9 1.5 -20t0.5 -22q0 -15 -0.5 -28.5t-0.5 -26.5v-117v-50.5t1 -59.5
q0 -30 1.5 -46.5t8 -26.5t21 -15t31.5 -10q4 -2 1 -8t-1 -9zM296 528l-24 -8l-144 92l-104 -84l-24 4l94 142l78 -2z" />
    <glyph glyph-name="idieresis" unicode="&#xef;" horiz-adv-x="276" 
d="M241 15l-196 3v14q15 6 22 9q23 12 29 26q2 5 3 20.5t1 18.5q0 9 -1 33.5t-1 37.5q0 16 1 30l2 28q0 14 -2 27t-2 25v19q0 19 -0.5 37.5t-5.5 29t-14 10.5q-7 0 -11 -1t-8 -4l-6 19l68 30l57 27q1 -9 1.5 -20t0.5 -22q0 -15 -0.5 -28.5t-0.5 -26.5v-117v-50.5t1 -59.5
q0 -30 1.5 -46.5t8 -26.5t21 -15t31.5 -10q4 -2 1 -8t-1 -9zM254 622q10 -13 10 -30q0 -25 -20 -40q-13 -10 -30 -10q-25 0 -40 20q-10 13 -10 30q0 25 20 40q13 10 30 10q25 0 40 -20zM100 560q-14 -21 -41 -21q-15 0 -27 9q-21 14 -21 41q0 15 9 27q14 21 41 21
q15 0 27 -9q21 -14 21 -41q0 -15 -9 -27z" />
    <glyph glyph-name="eth" unicode="&#xf0;" horiz-adv-x="405" 
d="M370 220q0 -90 -9.5 -120t-56 -65t-102.5 -35q-70 0 -128 52q-25 23 -36.5 59t-11.5 77q0 40 8.5 76t19.5 51q23 33 49.5 46.5t57.5 13.5q44 0 93 -29q16 -9 40 -29q3 9 -19 73q-28 80 -69 126q-9 11 -17 18q-2 2 -19 16l-74 -62l-28 20l76 61q-35 25 -73 41
q-13 5 -33 12v22q32 -2 51 -5q56 -9 93 -27l8 -5l86 69l20 -20l-79 -67q34 -26 65.5 -59t39.5 -54q22 -59 35 -126t13 -130zM298 203q-7 53 -34 85q-30 36 -79 42q-49 4 -76 -46q-23 -43 -23 -108q0 -14 1.5 -27t6.5 -37t35.5 -44t67.5 -20q7 0 21 2q40 8 61 44.5t21 82.5
v13q-2 9 -2 13z" />
    <glyph glyph-name="ntilde" unicode="&#xf1;" horiz-adv-x="469" 
d="M433 12l-174 3v13q13 4 19 7q21 11 25.5 23.5t4.5 42.5q0 14 -0.5 28.5t-0.5 29.5l1 82q1 11 1 20q0 12 -3 23q-6 22 -11 44q-9 19 -37 19q-31 0 -67 -19q-25 -14 -49 -28v-117t1 -66q0 -25 1.5 -40.5t5.5 -23.5q7 -10 20.5 -15t28.5 -9q3 -1 0 -7t0 -9l-177 3v13
q13 5 20 8q21 10 25.5 21t4.5 37q0 9 -1 31t-1 33v24v23v22v19v17v14v12q0 16 -0.5 29t-0.5 23q0 32 -17 32q-4 0 -15 -3t-16 -3v8q24 20 68 43.5t47 17.5q1 -2 2 -14t1 -14v-27l2 -64q41 38 63 52q44 29 81 29q26 0 40 -3.5t28 -18.5q24 -23 24 -59v-80q0 -53 1.5 -113
t5.5 -65q9 -13 26.5 -21.5t22.5 -10.5q2 -2 -0.5 -7.5t0.5 -8.5zM449 582q0 -50 -39.5 -80t-97.5 -30q-41 0 -84 25q-96 56 -130 56q-11 0 -27 -17q-21 -24 -41 -47q0 63 27 103.5t78 40.5q36 0 75 -24q88 -54 113 -54q57 0 93 45q12 15 25 46l5 -3q2 -14 2.5 -32t0.5 -29z
" />
    <glyph glyph-name="ograve" unicode="&#xf2;" 
d="M350 215q0 -83 -43 -141q-48 -65 -127 -65q-75 0 -125 56t-50 130q-1 6 -1 12.5v10.5q0 71 38.5 126t107.5 64q7 1 20 1q74 0 127 -59t53 -135zM271 215q0 66 -24 113q-29 56 -80 56q-8 -1 -12 -1q-39 -5 -54.5 -37.5t-15.5 -82.5q0 -15 0.5 -24.5t3.5 -37.5
q9 -91 35 -125q23 -30 64 -30t62 35t21 134zM22 -12v800h700v-800h-700zM672 38v700h-600v-700h600z" />
    <glyph glyph-name="oacute" unicode="&#xf3;" 
d="M350 215q0 -83 -43 -141q-48 -65 -127 -65q-75 0 -125 56t-50 130q-1 6 -1 12.5v10.5q0 71 38.5 126t107.5 64q7 1 20 1q74 0 127 -59t53 -135zM271 215q0 66 -24 113q-29 56 -80 56q-8 -1 -12 -1q-39 -5 -54.5 -37.5t-15.5 -82.5q0 -15 0.5 -24.5t3.5 -37.5
q9 -91 35 -125q23 -30 64 -30t62 35t21 134zM280 624l-116 -156l-36 4l48 152h104z" />
    <glyph glyph-name="ocircumflex" unicode="&#xf4;" 
d="M350 215q0 -83 -43 -141q-48 -65 -127 -65q-75 0 -125 56t-50 130q-1 6 -1 12.5v10.5q0 71 38.5 126t107.5 64q7 1 20 1q74 0 127 -59t53 -135zM271 215q0 66 -24 113q-29 56 -80 56q-8 -1 -12 -1q-39 -5 -54.5 -37.5t-15.5 -82.5q0 -15 0.5 -24.5t3.5 -37.5
q9 -91 35 -125q23 -30 64 -30t62 35t21 134zM320 472l-24 -8l-144 92l-104 -84l-24 4l94 142l78 -2z" />
    <glyph glyph-name="otilde" unicode="&#xf5;" 
d="M350 215q0 -83 -43 -141q-48 -65 -127 -65q-75 0 -125 56t-50 130q-1 6 -1 12.5v10.5q0 71 38.5 126t107.5 64q7 1 20 1q74 0 127 -59t53 -135zM271 215q0 66 -24 113q-29 56 -80 56q-8 -1 -12 -1q-39 -5 -54.5 -37.5t-15.5 -82.5q0 -15 0.5 -24.5t3.5 -37.5
q9 -91 35 -125q23 -30 64 -30t62 35t21 134zM397 546q0 -50 -39.5 -80t-97.5 -30q-41 0 -84 25q-96 56 -130 56q-11 0 -27 -17q-21 -24 -41 -47q0 63 27 103.5t78 40.5q36 0 75 -24q88 -54 113 -54q57 0 93 45q12 15 25 46l5 -3q2 -14 2.5 -32t0.5 -29z" />
    <glyph glyph-name="odieresis" unicode="&#xf6;" 
d="M350 215q0 -83 -43 -141q-48 -65 -127 -65q-75 0 -125 56t-50 130q-1 6 -1 12.5v10.5q0 71 38.5 126t107.5 64q7 1 20 1q74 0 127 -59t53 -135zM271 215q0 66 -24 113q-29 56 -80 56q-8 -1 -12 -1q-39 -5 -54.5 -37.5t-15.5 -82.5q0 -15 0.5 -24.5t3.5 -37.5
q9 -91 35 -125q23 -30 64 -30t62 35t21 134zM274 546q10 -13 10 -30q0 -25 -20 -40q-13 -10 -30 -10q-25 0 -40 20q-10 13 -10 30q0 25 20 40q13 10 30 10q25 0 40 -20zM120 484q-14 -21 -41 -21q-15 0 -27 9q-21 14 -21 41q0 15 9 27q14 21 41 21q15 0 27 -9q21 -14 21 -41
q0 -15 -9 -27z" />
    <glyph glyph-name="divide" unicode="&#xf7;" horiz-adv-x="756" 
d="M390 586q14 -17 14 -38q0 -26 -18.5 -42t-39.5 -16q-26 0 -42 18.5t-16 39.5q0 26 20 44q17 14 38 14q26 0 44 -20zM664 360h-652l-4 48l656 -4v-44zM404 236q13 -14 13 -36q0 -27 -21 -44q-14 -13 -36 -13q-27 0 -44 21q-13 14 -13 36q0 27 21 44q14 13 36 13
q27 0 44 -21z" />
    <glyph glyph-name="oslash" unicode="&#xf8;" 
d="M354 397l-53 -54q22 -27 35.5 -61t13.5 -67q0 -83 -43 -141q-48 -65 -127 -65q-41 0 -75.5 19.5t-58.5 52.5l-40 -40l-22 11l49 49q-13 24 -20.5 47t-7.5 47q-1 6 -1 12.5v10.5q0 71 38.5 126t107.5 64q6 1 19 1q33 0 63.5 -13.5t54.5 -37.5l51 51zM249 318
q-13 30 -33.5 48t-49.5 18q-7 0 -11 -1q-39 -5 -54.5 -37.5t-15.5 -82.5q0 -15 0.5 -24.5t3.5 -37.5l5 -39zM271 215q0 25 -6 51q-2 7 -9 31l-157 -162q9 -41 28 -63q23 -26 61 -26q41 0 62 35t21 134z" />
    <glyph glyph-name="ugrave" unicode="&#xf9;" horiz-adv-x="445" 
d="M431 48q-14 -9 -22 -13q-28 -16 -40 -21.5t-28 -9.5t-20 -1q-4 2 -4 21v11v37q-17 -21 -25 -30q-15 -18 -30 -24q-7 -3 -36.5 -9t-34.5 -6q-21 0 -50 7.5t-41 18.5q-47 39 -47 117l2 135v22t1 26q0 20 -2.5 38.5t-7.5 30.5q-8 16 -27 20q-3 0 -9 1l1 12h56h52l-1 -99
l1 -132q0 -10 -1 -28t-1 -26v-13q2 -9 2 -14q6 -36 28.5 -56.5t67.5 -20.5q37 0 62.5 15t36.5 47q5 16 5 36q0 10 -0.5 20.5t-0.5 22.5v143v18q0 26 -1.5 39t-9 20.5t-25.5 12.5q-6 1 -17 3v13h66h49l2 -102v-174q0 -11 -1.5 -33.5t-1.5 -23.5q0 -25 7 -36q3 -5 11 -5
q16 3 24 3.5t9 -1.5q3 -5 2 -8t-1 -4zM46 56v800h700v-800h-700zM696 106v700h-600v-700h600z" />
    <glyph glyph-name="uacute" unicode="&#xfa;" horiz-adv-x="445" 
d="M431 48q-14 -9 -22 -13q-28 -16 -40 -21.5t-28 -9.5t-20 -1q-4 2 -4 21v11v37q-17 -21 -25 -30q-15 -18 -30 -24q-7 -3 -36.5 -9t-34.5 -6q-21 0 -50 7.5t-41 18.5q-47 39 -47 117l2 135v22t1 26q0 20 -2.5 38.5t-7.5 30.5q-8 16 -27 20q-3 0 -9 1l1 12h56h52l-1 -99
l1 -132q0 -10 -1 -28t-1 -26v-13q2 -9 2 -14q6 -36 28.5 -56.5t67.5 -20.5q37 0 62.5 15t36.5 47q5 16 5 36q0 10 -0.5 20.5t-0.5 22.5v143v18q0 26 -1.5 39t-9 20.5t-25.5 12.5q-6 1 -17 3v13h66h49l2 -102v-174q0 -11 -1.5 -33.5t-1.5 -23.5q0 -25 7 -36q3 -5 11 -5
q16 3 24 3.5t9 -1.5q3 -5 2 -8t-1 -4zM300 704l-116 -156l-36 4l48 152h104z" />
    <glyph glyph-name="ucircumflex" unicode="&#xfb;" horiz-adv-x="445" 
d="M431 48q-14 -9 -22 -13q-28 -16 -40 -21.5t-28 -9.5t-20 -1q-4 2 -4 21v11v37q-17 -21 -25 -30q-15 -18 -30 -24q-7 -3 -36.5 -9t-34.5 -6q-21 0 -50 7.5t-41 18.5q-47 39 -47 117l2 135v22t1 26q0 20 -2.5 38.5t-7.5 30.5q-8 16 -27 20q-3 0 -9 1l1 12h56h52l-1 -99
l1 -132q0 -10 -1 -28t-1 -26v-13q2 -9 2 -14q6 -36 28.5 -56.5t67.5 -20.5q37 0 62.5 15t36.5 47q5 16 5 36q0 10 -0.5 20.5t-0.5 22.5v143v18q0 26 -1.5 39t-9 20.5t-25.5 12.5q-6 1 -17 3v13h66h49l2 -102v-174q0 -11 -1.5 -33.5t-1.5 -23.5q0 -25 7 -36q3 -5 11 -5
q16 3 24 3.5t9 -1.5q3 -5 2 -8t-1 -4zM356 516l-24 -8l-144 92l-104 -84l-24 4l94 142l78 -2z" />
    <glyph glyph-name="udieresis" unicode="&#xfc;" horiz-adv-x="445" 
d="M431 48q-14 -9 -22 -13q-28 -16 -40 -21.5t-28 -9.5t-20 -1q-4 2 -4 21v11v37q-17 -21 -25 -30q-15 -18 -30 -24q-7 -3 -36.5 -9t-34.5 -6q-21 0 -50 7.5t-41 18.5q-47 39 -47 117l2 135v22t1 26q0 20 -2.5 38.5t-7.5 30.5q-8 16 -27 20q-3 0 -9 1l1 12h56h52l-1 -99
l1 -132q0 -10 -1 -28t-1 -26v-13q2 -9 2 -14q6 -36 28.5 -56.5t67.5 -20.5q37 0 62.5 15t36.5 47q5 16 5 36q0 10 -0.5 20.5t-0.5 22.5v143v18q0 26 -1.5 39t-9 20.5t-25.5 12.5q-6 1 -17 3v13h66h49l2 -102v-174q0 -11 -1.5 -33.5t-1.5 -23.5q0 -25 7 -36q3 -5 11 -5
q16 3 24 3.5t9 -1.5q3 -5 2 -8t-1 -4zM322 606q10 -13 10 -30q0 -25 -20 -40q-13 -10 -30 -10q-25 0 -40 20q-10 13 -10 30q0 25 20 40q13 10 30 10q25 0 40 -20zM168 544q-14 -21 -41 -21q-15 0 -27 9q-21 14 -21 41q0 15 9 27q14 21 41 21q15 0 27 -9q21 -14 21 -41
q0 -15 -9 -27z" />
    <glyph glyph-name="yacute" unicode="&#xfd;" horiz-adv-x="488" 
d="M356 700l-116 -156l-36 4l48 152h104zM477 416q-28 -7 -43 -22q-25 -26 -39 -74q-19 -63 -45 -125q-15 -37 -33 -82t-78 -151q-20 -36 -59 -100q-12 -13 -20 -19q-26 -19 -58 -19q-23 0 -36.5 12.5t-13.5 39.5q0 23 15 33.5t39 10.5q14 0 29 -11.5t27 -11.5q15 0 45 58
q9 19 27 58q-4 6 -6 10q-14 25 -26 49.5t-18 37.5q-14 34 -24 52q-36 68 -60 114q-31 60 -37 72q-16 31 -48 59q-5 4 -15 11l-2 16h214v-14q-22 -7 -33 -13q-34 -18 -34 -42q0 -8 3.5 -17.5t26.5 -56.5q10 -21 42 -83l58 -112q8 20 12 33q31 83 37 103q22 67 35 140
q2 15 -26 33q-9 6 -30 15v10h174v-14z" />
    <glyph glyph-name="thorn" unicode="&#xfe;" horiz-adv-x="424" 
d="M399 251q4 -20 4 -45q0 -50 -15 -92.5t-34 -60.5q-32 -29 -60 -39.5t-80 -10.5q-13 0 -46 19q-10 6 -30 19l-6 -123q0 -22 0.5 -49.5t7.5 -32.5q15 -11 42 -14h26l1 -14q-2 -4 -11 -5t-23 -1q-10 0 -30 1t-26 1h-38.5t-31.5 -1q-45 0 -50 3v11q4 3 23 4.5t28 17.5
q4 7 5 54.5t1 83.5q0 47 2 81t2 69v123q1 47 2 96l2 98v66q-2 54 -9.5 60t-28.5 6q-10 0 -19 -3v16l67 17q19 6 30 9q22 6 28 2q3 -1 4 -65t1 -80q0 -52 -0.5 -94.5t-1.5 -75.5q15 18 24 28q27 30 43.5 39t33 13t32.5 4q49 0 86 -41q34 -38 45 -94zM324 137q7 20 7 45
q0 52 -29.5 94t-72.5 42q-9 0 -13 -1q-27 -5 -48 -24q-18 -19 -30 -31v-128v-66q31 -30 71 -30q36 0 68 27t47 72z" />
    <glyph glyph-name="ydieresis" unicode="&#xff;" horiz-adv-x="501" 
d="M477 416q-28 -7 -43 -22q-25 -26 -39 -74q-19 -63 -45 -125q-15 -37 -33 -82t-78 -151q-20 -36 -59 -100q-12 -13 -20 -19q-26 -19 -58 -19q-23 0 -36.5 12.5t-13.5 39.5q0 23 15 33.5t39 10.5q14 0 29 -11.5t27 -11.5q15 0 45 58q9 19 27 58q-4 6 -6 10q-14 25 -26 49.5
t-18 37.5q-14 34 -24 52q-36 68 -60 114q-31 60 -37 72q-16 31 -48 59q-5 4 -15 11l-2 16h214v-14q-22 -7 -33 -13q-34 -18 -34 -42q0 -8 3.5 -17.5t26.5 -56.5q10 -21 42 -83l58 -112q8 20 12 33q31 83 37 103q22 67 35 140q2 15 -26 33q-9 6 -30 15v10h174v-14zM378 630
q10 -13 10 -30q0 -25 -20 -40q-13 -10 -30 -10q-25 0 -40 20q-10 13 -10 30q0 25 20 40q13 10 30 10q25 0 40 -20zM224 568q-14 -21 -41 -21q-15 0 -27 9q-21 14 -21 41q0 15 9 27q14 21 41 21q15 0 27 -9q21 -14 21 -41q0 -15 -9 -27z" />
    <glyph glyph-name="ETB" horiz-adv-x="245" 
d="M221 15l-196 3v14q15 6 22 9q23 12 29 26q2 5 3 20.5t1 18.5q0 9 -1 33.5t-1 37.5q0 16 1 30l2 28q0 14 -2 27t-2 25v19q0 19 -0.5 37.5t-5.5 29t-14 10.5q-7 0 -11 -1t-8 -4l-6 19l68 30l57 27q1 -9 1.5 -20t0.5 -22q0 -15 -0.5 -28.5t-0.5 -26.5v-117v-50.5t1 -59.5
q0 -30 1.5 -46.5t8 -26.5t21 -15t31.5 -10q4 -2 1 -8t-1 -9z" />
    <glyph glyph-name="EM" horiz-adv-x="445" 
d="M356 620l-124 -144l-78 -2l-94 142l24 4l104 -84l144 92z" />
    <glyph glyph-name="NAK" 
d="M280 624l-116 -156l-36 4l48 152h104z" />
    <glyph glyph-name="SYN" 
d="M274 546q10 -13 10 -30q0 -25 -20 -40q-13 -10 -30 -10q-25 0 -40 20q-10 13 -10 30q0 25 20 40q13 10 30 10q25 0 40 -20zM120 484q-14 -21 -41 -21q-15 0 -27 9q-21 14 -21 41q0 15 9 27q14 21 41 21q15 0 27 -9q21 -14 21 -41q0 -15 -9 -27z" />
    <glyph glyph-name="CAN" horiz-adv-x="445" 
d="M356 516l-24 -8l-144 92l-104 -84l-24 4l94 142l78 -2z" />
  </font>
</defs>
</svg>
